<svg id="Camada_1" data-name="Camada 1" xmlns="http://www.w3.org/2000/svg" xmlns:xlink="http://www.w3.org/1999/xlink" viewBox="0 0 701.77 608.51"><defs><style>.cls-1,.cls-3,.cls-4,.cls-6,.cls-7{opacity:0.5;}.cls-2,.cls-7{fill:#47e6b1;}.cls-14,.cls-3{fill:#4d8af0;}.cls-13,.cls-21,.cls-3,.cls-6,.cls-7{isolation:isolate;}.cls-4{fill:#34e079;}.cls-5{fill:#e2e2e2;}.cls-6{fill:#f55f44;}.cls-10,.cls-11,.cls-22,.cls-8,.cls-9{fill:none;stroke-miterlimit:10;}.cls-10,.cls-11,.cls-8,.cls-9{stroke-width:2px;}.cls-8{stroke:url(#Gradiente_sem_nome);}.cls-9{stroke:#535461;}.cls-10{stroke:url(#Gradiente_sem_nome_2);}.cls-11{stroke:url(#Gradiente_sem_nome_3);}.cls-12{fill:#535461;}.cls-13,.cls-20{fill:#fff;}.cls-13,.cls-21{opacity:0.1;}.cls-15{fill:#6c63ff;}.cls-16{fill:#3ad29f;}.cls-17{fill:url(#Gradiente_sem_nome_5);}.cls-18{fill:#27ae60;}.cls-19{fill:url(#Gradiente_sem_nome_6);}.cls-22{stroke:#c4c4c4;stroke-linecap:round;stroke-width:5px;opacity:0.3;}</style><linearGradient id="Gradiente_sem_nome" x1="434.86" y1="113.19" x2="532.11" y2="113.19" gradientTransform="matrix(1, 0, 0, -1, -180.4, 524.47)" gradientUnits="userSpaceOnUse"><stop offset="0" stop-color="gray" stop-opacity="0.25"/><stop offset="0.54" stop-color="gray" stop-opacity="0.12"/><stop offset="1" stop-color="gray" stop-opacity="0.1"/></linearGradient><linearGradient id="Gradiente_sem_nome_2" x1="544.29" y1="152.97" x2="574.51" y2="152.97" xlink:href="#Gradiente_sem_nome"/><linearGradient id="Gradiente_sem_nome_3" x1="652.77" y1="98.73" x2="681.98" y2="98.73" xlink:href="#Gradiente_sem_nome"/><linearGradient id="Gradiente_sem_nome_5" x1="562.29" y1="106.07" x2="562.29" y2="167.52" xlink:href="#Gradiente_sem_nome"/><linearGradient id="Gradiente_sem_nome_6" x1="380.42" y1="2.92" x2="380.42" y2="202.96" gradientTransform="matrix(1, 0, 0, -1, 0, 610.93)" xlink:href="#Gradiente_sem_nome"/></defs><title>aniversario-ilustration</title><g class="cls-1"><rect class="cls-2" x="103.84" y="108.3" width="2.78" height="15.78"/><rect class="cls-2" x="97.35" y="114.8" width="15.78" height="2.78"/></g><g class="cls-1"><rect class="cls-2" x="202.83" y="451.72" width="2.78" height="15.78"/><rect class="cls-2" x="196.32" y="458.22" width="15.78" height="2.78"/></g><g class="cls-1"><rect class="cls-2" x="64.27" y="268.43" width="2.78" height="15.78"/><rect class="cls-2" x="57.78" y="274.93" width="15.78" height="2.78"/></g><g class="cls-1"><rect class="cls-2" x="551.79" width="2.78" height="15.78"/><rect class="cls-2" x="545.3" y="6.5" width="15.78" height="2.78"/></g><g class="cls-1"><rect class="cls-2" x="81.93" y="39.24" width="2.78" height="15.78"/><rect class="cls-2" x="75.42" y="45.74" width="15.78" height="2.78"/></g><path class="cls-3" d="M138.06,395.41a3.41,3.41,0,0,1-1.9-4.12,1.61,1.61,0,0,0,.08-.38h0a1.68,1.68,0,0,0-1.41-1.9,1.67,1.67,0,0,0-1.66.77h0a1.35,1.35,0,0,0-.19.33,3.43,3.43,0,0,1-4.13,1.9,1.53,1.53,0,0,0-.37-.08h0a1.67,1.67,0,0,0-1.14,3.07h0a1.41,1.41,0,0,0,.34.19,3.42,3.42,0,0,1,1.89,4.13,1.51,1.51,0,0,0-.07.37h0a1.66,1.66,0,0,0,1.41,1.9,1.68,1.68,0,0,0,1.66-.76h0a2.17,2.17,0,0,0,.19-.33,3.4,3.4,0,0,1,4.12-1.9,1.59,1.59,0,0,0,.38.07h0a1.67,1.67,0,0,0,1.14-3.07h0A2.27,2.27,0,0,0,138.06,395.41Z"/><path class="cls-3" d="M124.26,545.39a3.41,3.41,0,0,1-1.89-4.12,2.53,2.53,0,0,0,.07-.38h0a1.67,1.67,0,0,0-3.07-1.14h0a1.63,1.63,0,0,0-.19.34,3.41,3.41,0,0,1-4.11,1.9,1.69,1.69,0,0,0-.38-.07h0a1.67,1.67,0,0,0-1.14,3.07h0a2.27,2.27,0,0,0,.34.19,3.41,3.41,0,0,1,1.89,4.12,1.59,1.59,0,0,0-.07.38h0a1.67,1.67,0,0,0,3.07,1.14h0a2.27,2.27,0,0,0,.19-.34,3.41,3.41,0,0,1,4.12-1.9,1.72,1.72,0,0,0,.38.08h0a1.68,1.68,0,0,0,1.9-1.41,1.66,1.66,0,0,0-.76-1.66h0A1.51,1.51,0,0,0,124.26,545.39Z"/><path class="cls-4" d="M631.86,213.41a3.42,3.42,0,0,1-1.9-4.13,1.61,1.61,0,0,0,.07-.37h0a1.66,1.66,0,0,0-1.41-1.9,1.68,1.68,0,0,0-1.66.76h0a2.17,2.17,0,0,0-.19.33,3.41,3.41,0,0,1-4.11,1.91,1.69,1.69,0,0,0-.38-.07h0a1.67,1.67,0,0,0-1.14,3.06h0a1.68,1.68,0,0,0,.34.2,3.41,3.41,0,0,1,1.9,4.12,1.61,1.61,0,0,0-.08.38h0a1.67,1.67,0,0,0,3.07,1.13h0a1.35,1.35,0,0,0,.19-.33,3.4,3.4,0,0,1,4.12-1.9,2.57,2.57,0,0,0,.38.08h0a1.68,1.68,0,0,0,1.9-1.41,1.66,1.66,0,0,0-.76-1.66h0A1.68,1.68,0,0,0,631.86,213.41Z"/><path class="cls-4" d="M608.88,371.74a3.42,3.42,0,0,1-1.89-4.13,1.51,1.51,0,0,0,.07-.37h0a1.66,1.66,0,0,0-1.41-1.9,1.68,1.68,0,0,0-1.66.76h0a2.27,2.27,0,0,0-.19.34,3.41,3.41,0,0,1-4.12,1.89,1.59,1.59,0,0,0-.38-.07h0a1.67,1.67,0,0,0-1.14,3.07h0a2.27,2.27,0,0,0,.34.19,3.41,3.41,0,0,1,1.9,4.12,1.61,1.61,0,0,0-.08.38h0a1.68,1.68,0,0,0,1.41,1.9,1.66,1.66,0,0,0,1.66-.76h0a1.63,1.63,0,0,0,.19-.34,3.42,3.42,0,0,1,4.12-1.9,1.72,1.72,0,0,0,.38.08h0a1.68,1.68,0,0,0,1.9-1.41,1.66,1.66,0,0,0-.76-1.66h0A1.63,1.63,0,0,0,608.88,371.74Z"/><path class="cls-4" d="M626,56.2a3.41,3.41,0,0,1-1.9-4.12,1.61,1.61,0,0,0,.08-.38h0a1.67,1.67,0,0,0-3.07-1.13h0a1.35,1.35,0,0,0-.19.33,3.42,3.42,0,0,1-4.13,1.9,1.53,1.53,0,0,0-.37-.08h0a1.67,1.67,0,0,0-1.14,3.07h0a1.9,1.9,0,0,0,.34.2,3.4,3.4,0,0,1,1.89,4.12,1.61,1.61,0,0,0-.07.37h0a1.66,1.66,0,0,0,1.41,1.9,1.68,1.68,0,0,0,1.66-.76h0a1.77,1.77,0,0,0,.19-.33,3.4,3.4,0,0,1,4.12-1.9,1.59,1.59,0,0,0,.38.07h0a1.67,1.67,0,0,0,1.9-1.41,1.65,1.65,0,0,0-.76-1.65h0A1.68,1.68,0,0,0,626,56.2Z"/><path class="cls-4" d="M679.7,467.67a3.41,3.41,0,0,1-1.89-4.12,1.59,1.59,0,0,0,.07-.38h0a1.67,1.67,0,0,0-3.07-1.14h0a2.27,2.27,0,0,0-.19.34,3.41,3.41,0,0,1-4.12,1.9,1.61,1.61,0,0,0-.38-.08h0a1.68,1.68,0,0,0-1.9,1.41,1.66,1.66,0,0,0,.76,1.66h0a1.63,1.63,0,0,0,.34.19,3.43,3.43,0,0,1,1.9,4.13,1.53,1.53,0,0,0-.08.37h0a1.67,1.67,0,0,0,3.07,1.14h0a1.63,1.63,0,0,0,.19-.34,3.42,3.42,0,0,1,4.13-1.89,1.51,1.51,0,0,0,.37.07h0a1.66,1.66,0,0,0,1.9-1.41,1.68,1.68,0,0,0-.76-1.66h0A1.86,1.86,0,0,0,679.7,467.67Z"/><circle class="cls-4" cx="5.57" cy="215.56" r="5.57"/><circle class="cls-5" cx="627.03" cy="122.16" r="5.57"/><circle class="cls-6" cx="373.73" cy="331.11" r="6.27"/><circle class="cls-5" cx="373.73" cy="331.11" r="6.27"/><circle class="cls-5" cx="696.2" cy="289.62" r="5.57"/><circle class="cls-7" cx="245.99" cy="39.53" r="6.27"/><circle class="cls-5" cx="603.33" cy="519.64" r="5.57"/><path class="cls-8" d="M256.47,319.06c-3.29,10.69,1.67,23.33,11.32,29,4,2.36,8.7,3.55,12.62,6.11,8.52,5.55,11.89,16.18,14.65,26,3.18,11.25,6.37,23.14,3.46,34.45-1.86,7.22-6.08,13.6-8.48,20.66A43,43,0,0,0,288,453.6c.35,3.29,1.17,6.69,3.43,9.14,3.26,3.52,8.51,4,13.23,4.89a64.2,64.2,0,0,1,46.16,35.74"/><path class="cls-9" d="M257.48,319.06c-3.29,10.69,1.68,23.33,11.32,29,4.05,2.36,8.7,3.55,12.62,6.11,8.53,5.55,11.89,16.18,14.66,26,3.17,11.25,6.36,23.14,3.45,34.45-1.86,7.22-6.08,13.6-8.48,20.66A43,43,0,0,0,289,453.6c.35,3.29,1.17,6.69,3.43,9.14,3.26,3.52,8.51,4,13.23,4.89a64.18,64.18,0,0,1,46.16,35.74"/><path class="cls-10" d="M382.2,239.11c-8.13,11.33-16.57,23.52-17.26,37.45-1.06,21.4,16.05,38.9,23.7,58.92a70.05,70.05,0,0,1-2.35,54.77c-3.73,7.71-9.05,15.37-8.36,23.91.39,5.21,3,9.95,5.1,14.74A83.11,83.11,0,0,1,378.2,504"/><path class="cls-9" d="M383.2,239.11c-8.12,11.37-16.56,23.52-17.27,37.45-1.06,21.4,16.06,38.9,23.7,58.92a70,70,0,0,1-2.35,54.77c-3.73,7.71-9,15.37-8.36,23.91.39,5.21,3,9.95,5.1,14.74A83.11,83.11,0,0,1,379.2,504"/><path class="cls-11" d="M496.24,341l3.93,32c.52,4.25,1,8.89-1.32,12.54-2.16,3.44-6.23,5.08-9.39,7.62-10.38,8.36-9.43,24.34-5.85,37.17s8.73,26.61,3.75,39c-2.05,5.09-5.68,9.38-8.36,14.17a43.33,43.33,0,0,0-5.18,26.91"/><path class="cls-9" d="M497.22,341l3.93,32c.52,4.25,1,8.89-1.32,12.54-2.16,3.44-6.23,5.08-9.39,7.62-10.38,8.36-9.43,24.34-5.85,37.17s8.73,26.61,3.75,39c-2.06,5.09-5.68,9.38-8.36,14.17a43.41,43.41,0,0,0-5.19,26.91"/><polygon class="cls-5" points="271.57 326.25 249.43 326.25 253.31 312.97 266.59 312.97 271.57 326.25"/><path class="cls-5" d="M351.82,186.23C351.82,237,310.68,311.3,260,311.3S168.08,237,168.08,186.23a91.88,91.88,0,0,1,183.75,0Z"/><polygon class="cls-12" points="266.59 313.52 253.31 313.52 245.56 309.1 274.34 309.1 266.59 313.52"/><path class="cls-13" d="M226.74,114.83s-38.74,21-44.27,63.09"/><polygon class="cls-14" points="391.71 245.48 369.57 245.48 373.45 232.2 386.73 232.2 391.71 245.48"/><path class="cls-15" d="M472,105.47c0,50.74-41.13,125.07-91.87,125.07s-91.87-74.34-91.87-125.07a91.88,91.88,0,1,1,183.75,0Z"/><polygon class="cls-12" points="386.73 232.76 373.45 232.76 365.7 228.32 394.48 228.32 386.73 232.76"/><path class="cls-13" d="M346.88,34.07s-38.74,21-44.27,63.09"/><polygon class="cls-16" points="510.84 348.46 488.7 348.46 492.58 335.18 505.86 335.18 510.84 348.46"/><path class="cls-16" d="M591.09,208.44c0,50.74-41.14,125.07-91.87,125.07s-91.88-74.33-91.88-125.07a91.88,91.88,0,0,1,183.75,0Z"/><polygon class="cls-12" points="505.86 335.73 492.58 335.73 484.83 331.31 513.61 331.31 505.86 335.73"/><path class="cls-13" d="M466,137s-38.74,21-44.27,63.09"/><g class="cls-1"><path class="cls-17" d="M431.84,364.12c-5.33-5.34-13.1-7.47-21.88-6-8.21,1.39-16.43,5.86-23.14,12.55a27.08,27.08,0,0,0-4.84,6.64,27,27,0,0,0-4.8-6.89h0c-6.59-6.81-14.73-11.4-22.95-12.91-8.75-1.67-16.55.36-22,5.61s-7.65,13-6.3,21.79c1.28,8.23,5.61,16.51,12.2,23.31,13.87,14.31,41.54,8.72,42.71,8.47l.34-.07,1.07.24c1.17.27,28.74,6.33,42.84-7.74,6.69-6.69,11.18-14.89,12.61-23.1C439.26,377.24,437.16,369.47,431.84,364.12Zm-55.63,44.32c-6.69.9-23.35,2.12-31.62-6.41-5.32-5.5-8.8-12-9.8-18.48-.9-5.86.4-10.88,3.7-14a12.41,12.41,0,0,1,4.51-2.76,18.63,18.63,0,0,1,9.63-.48c6.39,1.19,12.84,4.87,18.16,10.37,8.27,8.48,6.53,25.13,5.42,31.79ZM429,384.52c-1.11,6.4-4.7,12.91-10.11,18.3-8.43,8.36-25.09,6.88-31.74,5.85-1-6.69-2.45-23.32,6-31.71,5.42-5.4,11.93-9,18.34-10a18.65,18.65,0,0,1,9.63.65,12.51,12.51,0,0,1,4.46,2.85c3.23,3.23,4.45,8.23,3.45,14.09Z"/></g><path class="cls-18" d="M383.58,414.88l-2.64.55c-1.12.23-27.59,5.58-40.86-8.11-6.31-6.51-10.45-14.43-11.71-22.31-1.3-8.42.84-15.82,6-20.85s12.65-6.93,21-5.37c7.84,1.47,15.63,5.86,21.94,12.37h0c13.26,13.69,7.09,40,6.82,41.1Zm-38.91-47.24a11.89,11.89,0,0,0-4.32,2.64c-3.14,3.05-4.39,7.82-3.53,13.43.95,6.15,4.28,12.43,9.37,17.69,7.92,8.17,23.87,7,30.26,6.14,1.07-6.37,2.74-22.27-5.18-30.44h0c-5.09-5.25-11.26-8.78-17.39-9.92A17.79,17.79,0,0,0,344.67,367.64Z"/><path class="cls-18" d="M379.67,415l-.59-2.63c-.25-1.12-6-27.52,7.53-41h0c6.42-6.39,14.28-10.65,22.14-12,8.36-1.42,15.83.61,20.9,5.73s7.11,12.54,5.67,20.91c-1.36,7.85-5.64,15.7-12.06,22.1-13.5,13.45-39.88,7.65-41,7.4Zm39.72-46.61a17.76,17.76,0,0,0-9.2-.62c-6.14,1-12.37,4.45-17.56,9.61h0c-8.06,8-6.69,24-5.71,30.35,6.38,1,22.31,2.42,30.36-5.61,5.18-5.17,8.61-11.39,9.67-17.56,1-5.6-.21-10.39-3.3-13.49A11.88,11.88,0,0,0,419.39,368.39Z"/><g class="cls-1"><polygon class="cls-19" points="508.79 407.96 252.06 407.96 252.06 459.33 265.39 459.33 265.39 608.01 495.45 608.01 495.45 459.33 508.79 459.33 508.79 407.96"/></g><rect class="cls-18" x="268.3" y="423.49" width="224.24" height="181.99"/><rect class="cls-20" x="359.29" y="455.99" width="42.25" height="149.48"/><rect class="cls-21" x="268.3" y="413.74" width="224.24" height="45.5"/><rect class="cls-16" x="255.31" y="410.49" width="250.23" height="45.5"/><rect class="cls-20" x="359.29" y="410.49" width="42.25" height="45.5"/><line class="cls-22" x1="126.37" y1="606.01" x2="634.47" y2="606.01"/></svg>