<svg xmlns="http://www.w3.org/2000/svg" viewBox="0 0 115.29 140.13"><defs><style>.cls-1,.cls-7,.cls-8{fill:none;stroke-miterlimit:10;}.cls-1{stroke:#356a9c;stroke-width:8px;}.cls-2{fill:#356a9c;}.cls-3{fill:#4090db;}.cls-4{fill:#3f3f40;}.cls-5{fill:#ffd221;}.cls-6{fill:#c29e1d;}.cls-7{stroke:#ffd221;stroke-width:6px;}.cls-8{stroke:#cfdcf2;stroke-linecap:round;stroke-width:2px;}.cls-9{fill:#ebf0f5;}</style></defs><title>cadeado-email</title><g id="Camada_3" data-name="Camada 3"><path class="cls-1" d="M54.66,4h0A20.62,20.62,0,0,1,75.29,24.62v34.5a0,0,0,0,1,0,0H34a0,0,0,0,1,0,0V24.62A20.62,20.62,0,0,1,54.66,4Z"/><circle class="cls-2" cx="54.47" cy="70.06" r="34.19"/><path class="cls-3" d="M54.47,42.37A27.69,27.69,0,1,1,26.79,70.06,27.69,27.69,0,0,1,54.47,42.37m0-13A40.69,40.69,0,1,0,95.16,70.06,40.74,40.74,0,0,0,54.47,29.37Z"/><circle class="cls-4" cx="54.47" cy="61.05" r="7.16"/><polygon class="cls-4" points="62.03 86.24 46.91 86.24 50.67 66.98 58.28 66.97 62.03 86.24"/><rect class="cls-5" x="57.14" y="72.06" width="33.7" height="4.13"/><rect class="cls-6" x="57.14" y="76.23" width="33.7" height="4.13"/><rect class="cls-6" x="59.81" y="80.06" width="4.13" height="6.09"/><rect class="cls-6" x="66.5" y="80.06" width="4.13" height="6.09"/><circle class="cls-7" cx="102.22" cy="76.75" r="10.06"/><line class="cls-8" x1="54.28" y1="16.63" x2="54.28" y2="24.01"/><line class="cls-8" x1="1" y1="70.54" x2="8.38" y2="70.54"/><line class="cls-8" x1="92.92" y1="30.1" x2="87.7" y2="35.32"/><line class="cls-8" x1="15.88" y1="31.64" x2="21.1" y2="36.85"/><line class="cls-8" x1="55.55" y1="123.5" x2="55.55" y2="116.12"/><line class="cls-8" x1="16.91" y1="110.02" x2="22.12" y2="104.8"/><line class="cls-8" x1="93.95" y1="108.49" x2="88.73" y2="103.27"/><ellipse class="cls-9" cx="54.47" cy="136.13" rx="32.89" ry="4"/></g></svg>