<svg xmlns="http://www.w3.org/2000/svg" width="94" height="94" viewBox="0 0 94 94">
  <g id="Grupo_175" data-name="Grupo 175" transform="translate(-636 -571)">
    <circle id="Elipse_47" data-name="Elipse 47" cx="47" cy="47" r="47" transform="translate(636 571)" fill="#fff"/>
    <path id="Caminho_229" data-name="Caminho 229" d="M1605.64-5640.31l-1.357,1.356.013.011-15.839,15.838a3.632,3.632,0,0,1-5.137,0l-16.8-16.8a13.141,13.141,0,0,1-.166-18.514,12.975,12.975,0,0,1,9.233-3.843,12.972,12.972,0,0,1,9.2,3.813l1.091,1.091,1.357-1.356a13.015,13.015,0,0,1,18.406,0,12.98,12.98,0,0,1,3.811,9.2A12.972,12.972,0,0,1,1605.64-5640.31Z" transform="translate(-904.12 6260.385)" fill="#f66"/>
  </g>
</svg>
