<svg id="Camada_1" data-name="Camada 1" xmlns="http://www.w3.org/2000/svg" viewBox="0 0 1310.64 359.98"><defs><style>.cls-1{fill:#ff3d00;}.cls-2{fill:#123b51;}</style></defs><title>logo-macbuy-color</title><g id="Grupo_1" data-name="Grupo 1"><path id="Caminho_1" data-name="Caminho 1" class="cls-1" d="M1001,276.73a49.47,49.47,0,0,1-8.13-2.08,7.91,7.91,0,0,1-3.59-2.11,4.48,4.48,0,0,1-.85-2.85,4.85,4.85,0,0,1,1.81-4,8.4,8.4,0,0,1,5.34-1.53,10.39,10.39,0,0,1,4.27.76,11,11,0,0,1,3.21,2,23.33,23.33,0,0,0,2.09,1.75,1.78,1.78,0,0,0,1.6.76h7a2,2,0,0,0,1.45-.56,2.24,2.24,0,0,0,.59-1.48,8.45,8.45,0,0,0-2.36-5,19.17,19.17,0,0,0-6.91-4.94,26.48,26.48,0,0,0-10.86-2.06,24.18,24.18,0,0,0-10.6,2.12,16.38,16.38,0,0,0-6.66,5.57,12.64,12.64,0,0,0-2.26,7.16,12.27,12.27,0,0,0,3.8,9.34,24.79,24.79,0,0,0,11.71,5.24,75.81,75.81,0,0,1,8.23,2.24,10.51,10.51,0,0,1,3.85,2.18,5,5,0,0,1-.84,7,4.37,4.37,0,0,1-.44.31,11.21,11.21,0,0,1-6,1.47,14,14,0,0,1-4.67-.76A13,13,0,0,1,988,295c-1.12-1-1.8-1.59-2.13-1.86a1.62,1.62,0,0,0-1.25-.69H977a2.14,2.14,0,0,0-1.44.55,1.86,1.86,0,0,0-.59,1.53,8.63,8.63,0,0,0,2.25,4.93,19.14,19.14,0,0,0,7.06,5.14,29.14,29.14,0,0,0,11.85,2.18,26.64,26.64,0,0,0,15.93-4.21,12.91,12.91,0,0,0,5.77-10.93q0-11.61-16.78-15" transform="translate(-8.36 -2.3)"/></g><g id="Grupo_2" data-name="Grupo 2"><path id="Caminho_2" data-name="Caminho 2" class="cls-1" d="M1052.72,295.91a2.26,2.26,0,0,0-1.61-.61h-6.53a5.09,5.09,0,0,1-4.6-2.13,11.2,11.2,0,0,1-1.4-6.16V266.53h11.68a2.16,2.16,0,0,0,1.6-.67,2.2,2.2,0,0,0,.67-1.63v-5.56a2.2,2.2,0,0,0-.67-1.64,2.16,2.16,0,0,0-1.6-.67h-11.68V240.57a2,2,0,0,0-.6-1.65,2.15,2.15,0,0,0-1.65-.68h-7.68a2.3,2.3,0,0,0-2.27,2.32h0v15.79H1019a2.31,2.31,0,0,0-1.61.68,2.2,2.2,0,0,0-.66,1.64v5.57a2.18,2.18,0,0,0,.66,1.63,2.35,2.35,0,0,0,1.61.67h7.38V288a19,19,0,0,0,4.27,13.34,16.9,16.9,0,0,0,12.83,4.47h7.64a2,2,0,0,0,1.61-.67,2.22,2.22,0,0,0,.66-1.58v-6a2.34,2.34,0,0,0-.66-1.7" transform="translate(-8.36 -2.3)"/></g><g id="Grupo_3" data-name="Grupo 3"><path id="Caminho_3" data-name="Caminho 3" class="cls-1" d="M1100.88,276.91a22.37,22.37,0,0,0-6.51-15.74,27.35,27.35,0,0,0-33.64,0,22.17,22.17,0,0,0-6.57,15.74v8.41a22.31,22.31,0,0,0,6.48,15.8,27.85,27.85,0,0,0,33.84,0,22.5,22.5,0,0,0,6.4-15.8c0-.76.11-2.18.11-4.21s-.06-3.43-.11-4.2m-12.83,7.9a14.55,14.55,0,0,1-2.84,9.23,9.38,9.38,0,0,1-7.58,3.16A9.57,9.57,0,0,1,1070,294a14.27,14.27,0,0,1-2.89-9.23l-.11-3.72.11-3.69a14.62,14.62,0,0,1,2.89-9.31,9.46,9.46,0,0,1,7.65-3.16,9.32,9.32,0,0,1,7.54,3.16,14.56,14.56,0,0,1,2.88,9.31,28.38,28.38,0,0,1,.1,3.69,28.89,28.89,0,0,1-.1,3.72" transform="translate(-8.36 -2.3)"/></g><g id="Grupo_4" data-name="Grupo 4"><path id="Caminho_4" data-name="Caminho 4" class="cls-1" d="M1137,257a2.43,2.43,0,0,0-1.67-.61h-4a15.64,15.64,0,0,0-13.41,6.28v-3.95a2.39,2.39,0,0,0-.66-1.66,2.31,2.31,0,0,0-1.7-.67h-7.65a2.09,2.09,0,0,0-1.55.67,2.36,2.36,0,0,0-.67,1.69v44.89a2.3,2.3,0,0,0,.67,1.59,2.1,2.1,0,0,0,1.55.66h8.31a2.17,2.17,0,0,0,1.55-.66,2.29,2.29,0,0,0,.66-1.59V277.5a9.65,9.65,0,0,1,2.52-7.05,9.2,9.2,0,0,1,6.91-2.55h7.33a2.09,2.09,0,0,0,1.66-.72,2.4,2.4,0,0,0,.6-1.59v-6.92a2.54,2.54,0,0,0-.6-1.69" transform="translate(-8.36 -2.3)"/></g><g id="Grupo_5" data-name="Grupo 5"><path id="Caminho_5" data-name="Caminho 5" class="cls-1" d="M1176.52,262.27a24.42,24.42,0,0,0-34,0,27.11,27.11,0,0,0-6.1,18.76l.1,2.4a24.68,24.68,0,0,0,6.48,17.34,22.25,22.25,0,0,0,16.57,6.11,26.89,26.89,0,0,0,11.42-2.33,22.09,22.09,0,0,0,7.6-5.4,8.91,8.91,0,0,0,2.67-5.34,1.54,1.54,0,0,0-.59-1.34,2.29,2.29,0,0,0-1.48-.46H1171a3.79,3.79,0,0,0-1.6.22,5.26,5.26,0,0,0-1.29,1.33,10.51,10.51,0,0,1-8.66,4.37,8.68,8.68,0,0,1-7.34-3.49,14.75,14.75,0,0,1-2.83-8.79v-.79h31a2.33,2.33,0,0,0,1.67-.67,2.3,2.3,0,0,0,.62-1.64v-2a26.65,26.65,0,0,0-6-18.29m-6.83,14.51h-20.42v-.22a14.14,14.14,0,0,1,2.67-9,10,10,0,0,1,14.08-.9,9.56,9.56,0,0,1,.9.9,13.81,13.81,0,0,1,2.77,9Z" transform="translate(-8.36 -2.3)"/></g><g id="Grupo_6" data-name="Grupo 6"><path id="Caminho_6" data-name="Caminho 6" class="cls-2" d="M698.28,108.28q-15.27-14.16-47-14.23a80.28,80.28,0,0,0-33.49,6.27,51.91,51.91,0,0,0-20.25,15.06,28.93,28.93,0,0,0-6.91,15.8,4.91,4.91,0,0,0,1.43,4.08,5.66,5.66,0,0,0,4.21,1.65H626a3,3,0,0,0,2.58-1.8,32.78,32.78,0,0,0,5.92-4.21,49.43,49.43,0,0,1,7.77-5.47,18.67,18.67,0,0,1,8.57-1.8,16.64,16.64,0,0,1,13.06,4.44,21.34,21.34,0,0,1,3.86,14.08v3.16l-31.78,4.94a88,88,0,0,0-39.75,15.25,34.92,34.92,0,0,0-14.44,28.93A36.86,36.86,0,0,0,588,215.11a42.59,42.59,0,0,0,17.42,14.74,56,56,0,0,0,24.69,5.34,51.7,51.7,0,0,0,23.81-5.07,42.11,42.11,0,0,0,15.6-13.2v9.16a6.37,6.37,0,0,0,2,4.55,6,6,0,0,0,4.46,2H707.4a6,6,0,0,0,4.61-2,6.53,6.53,0,0,0,1.81-4.55V146.84a50,50,0,0,0-15.41-38.51m-30.14,66.55a31.28,31.28,0,0,1-7.18,21.93,23.79,23.79,0,0,1-18.28,7.56,20.29,20.29,0,0,1-12.39-3.67,11.44,11.44,0,0,1-5-9.68q0-11.47,21.53-15.67l21.23-3.67Z" transform="translate(-8.36 -2.3)"/></g><g id="Grupo_7" data-name="Grupo 7"><path id="Caminho_7" data-name="Caminho 7" class="cls-2" d="M854.77,180.84h-34.3a6.32,6.32,0,0,0-4.29,1.29,11.34,11.34,0,0,0-2.84,4.19,23.91,23.91,0,0,1-7,10.86,18.45,18.45,0,0,1-11.63,3.26A18.22,18.22,0,0,1,779.56,194a33.43,33.43,0,0,1-5.33-20l-.26-8.66.26-9.94q.75-26.65,20.47-26.66a18.31,18.31,0,0,1,11.4,3.42A23.29,23.29,0,0,1,813.34,143a10.59,10.59,0,0,0,2.84,4.14,6.42,6.42,0,0,0,4.3,1.34h34.29a6.92,6.92,0,0,0,4.87-2,5.62,5.62,0,0,0,1.77-4.87,41.2,41.2,0,0,0-7.9-20.24A61.16,61.16,0,0,0,831,102.16,77.78,77.78,0,0,0,793.62,94,69.16,69.16,0,0,0,746.31,110a58.69,58.69,0,0,0-19.21,44.19l-.26,10.71.26,10.46a59.46,59.46,0,0,0,19.3,44,69,69,0,0,0,47.22,15.79A77.67,77.67,0,0,0,832,226.56a59.57,59.57,0,0,0,22.34-20,38.51,38.51,0,0,0,7-19.45,5.73,5.73,0,0,0-2-4.46,6.9,6.9,0,0,0-4.61-1.81" transform="translate(-8.36 -2.3)"/></g><g id="Grupo_8" data-name="Grupo 8"><path id="Caminho_8" data-name="Caminho 8" class="cls-2" d="M1013.46,155.22a69.29,69.29,0,0,0-15.35-44.81,49,49,0,0,0-38.88-16.36,48.26,48.26,0,0,0-37.09,15.17V53.53a6.37,6.37,0,0,0-1.76-4.67,6.19,6.19,0,0,0-4.6-1.85H882.72A6.5,6.5,0,0,0,878,48.87a6.09,6.09,0,0,0-2,4.67V226.06a6.26,6.26,0,0,0,2,4.71,6.62,6.62,0,0,0,4.71,1.82h30.44a5.94,5.94,0,0,0,4.62-2,6.57,6.57,0,0,0,1.82-4.55V218a47.67,47.67,0,0,0,39.63,17.21,49.53,49.53,0,0,0,39.06-15.94,70,70,0,0,0,15.19-45.42c.14-2.27.24-5.33.24-9.17s-.1-7.13-.24-9.41m-46.82,17.49A36.2,36.2,0,0,1,960.87,192a18.91,18.91,0,0,1-16.42,6.91A19.23,19.23,0,0,1,928,191.74a32.62,32.62,0,0,1-5.93-18.17c-.15-2.48-.25-5.79-.25-9.87s.1-7.46.25-9.68a27.87,27.87,0,0,1,6-16.88,19.9,19.9,0,0,1,16.3-6.76,18.93,18.93,0,0,1,16.46,6.91,35.87,35.87,0,0,1,5.78,19.2c.15,1.76.25,4.44.25,8.12s-.1,6.37-.25,8.08" transform="translate(-8.36 -2.3)"/></g><g id="Grupo_9" data-name="Grupo 9"><path id="Caminho_9" data-name="Caminho 9" class="cls-2" d="M1162.24,98.5a6.24,6.24,0,0,0-4.62-1.81H1123.9a6.9,6.9,0,0,0-4.77,1.81,6.34,6.34,0,0,0-2,4.71v71.36a26.07,26.07,0,0,1-5.71,17.9,20.51,20.51,0,0,1-16,6.37q-21.18,0-21.22-24.27V103.21a6.33,6.33,0,0,0-2-4.71,6.61,6.61,0,0,0-4.73-1.81h-34A6.3,6.3,0,0,0,1029,98.5a6.18,6.18,0,0,0-2,4.71v72.92a63.24,63.24,0,0,0,13.83,43.6,46.38,46.38,0,0,0,36.36,15.42q29.12,0,42.46-19.05V226a6.26,6.26,0,0,0,2,4.71,6.6,6.6,0,0,0,4.71,1.82h31.18a6,6,0,0,0,4.61-2A6.47,6.47,0,0,0,1164,226V103.21a6.44,6.44,0,0,0-1.82-4.71" transform="translate(-8.36 -2.3)"/></g><g id="Grupo_10" data-name="Grupo 10"><path id="Caminho_10" data-name="Caminho 10" class="cls-2" d="M1317.32,98.4a5.33,5.33,0,0,0-4-1.71h-30.18a8.27,8.27,0,0,0-7.71,5.48l-29.12,74.21-28.43-74.21a7.46,7.46,0,0,0-7.4-5.48h-30.45a5.17,5.17,0,0,0-3.95,1.71,8.14,8.14,0,0,0-2.23,4.29,10.83,10.83,0,0,0,.82,2.85l49.13,118.66-20.22,49.18a12.08,12.08,0,0,0-.5,3.32,5.22,5.22,0,0,0,1.57,3.95,5.11,5.11,0,0,0,3.8,1.54h29.69a8.36,8.36,0,0,0,7.9-5.48l72.41-171.15a10.82,10.82,0,0,0,.5-3.34,5.16,5.16,0,0,0-1.67-3.77" transform="translate(-8.36 -2.3)"/></g><g id="Grupo_11" data-name="Grupo 11"><path id="Caminho_11" data-name="Caminho 11" class="cls-1" d="M317,159.05a27.44,27.44,0,0,1-12.71,22.71L175.53,263.57v-53.4l7.57-4.93,99.45-63.72A21.48,21.48,0,0,1,317,159.07" transform="translate(-8.36 -2.3)"/></g><g id="Grupo_12" data-name="Grupo 12"><path id="Caminho_12" data-name="Caminho 12" class="cls-1" d="M309.45,87.42l-139.34,74.4L103,182.34l-24.68,7.51L55.54,156,10.4,88.94A41.68,41.68,0,0,1,14,84.76a30.61,30.61,0,0,1,6.58-5.08L144.05,6.78a32.43,32.43,0,0,1,32.91,0l123.51,72.9a31.16,31.16,0,0,1,9,7.74" transform="translate(-8.36 -2.3)"/></g><g id="Grupo_13" data-name="Grupo 13"><path id="Caminho_13" data-name="Caminho 13" class="cls-1" d="M137.71,212V352.7L20.55,283.59a34.25,34.25,0,0,1-4.6-3.23,33.65,33.65,0,0,1-7.59-9.24v-117L62.79,235Z" transform="translate(-8.36 -2.3)"/></g><g id="Grupo_14" data-name="Grupo 14"><path id="Caminho_14" data-name="Caminho 14" class="cls-1" d="M317,249.45a36.52,36.52,0,0,1-16.48,30.22L183.13,357.33l-6.13,4-1.44.9V304.54l115.52-69.36a18.14,18.14,0,0,1,8.15-2.62,16.49,16.49,0,0,1,17.7,15.2h0a15.5,15.5,0,0,1,0,1.67" transform="translate(-8.36 -2.3)"/></g><g id="Grupo_15" data-name="Grupo 15"><path id="Caminho_15" data-name="Caminho 15" class="cls-2" d="M555.38,109.77c-9-9.87-26.72-14.81-41-14.81-37.91,0-46.9,16.18-51.08,23-4.2-6.8-13.2-23-51.11-23-14.27,0-32,4.94-41,14.81s-13.44,24.54-13.44,44v75.75a6.62,6.62,0,0,0,1.87,4.67,6,6,0,0,0,4.67,2h32.1a6.73,6.73,0,0,0,4.81-1.85,6.43,6.43,0,0,0,2-4.8v-73.8a26.45,26.45,0,0,1,5.11-18A17.23,17.23,0,0,1,421.93,132a16.72,16.72,0,0,1,13.18,5.76,26.71,26.71,0,0,1,5.06,18v73.8a6.71,6.71,0,0,0,1.86,4.67,6,6,0,0,0,4.67,2h33.12a6,6,0,0,0,4.67-2,6.61,6.61,0,0,0,1.86-4.67V155.72a26.77,26.77,0,0,1,5.06-18A16.78,16.78,0,0,1,504.58,132a17.25,17.25,0,0,1,13.7,5.76,26.5,26.5,0,0,1,5.11,18v73.82a6.47,6.47,0,0,0,2,4.8,6.78,6.78,0,0,0,4.81,1.86h32.12a6,6,0,0,0,4.67-2,6.69,6.69,0,0,0,1.86-4.67V153.82c0-19.52-4.48-34.24-13.43-44.06" transform="translate(-8.36 -2.3)"/></g></svg>