<svg id="Camada_1" data-name="Camada 1" xmlns="http://www.w3.org/2000/svg" viewBox="0 0 1327.36 364.57"><defs><style>.cls-1{fill:#fff;}</style></defs><title>logo-macbuy</title><g id="Grupo_17" data-name="Grupo 17"><g id="Grupo_16" data-name="Grupo 16"><g id="Grupo_1" data-name="Grupo 1"><path id="Caminho_1" data-name="Caminho 1" class="cls-1" d="M1005.26,277.94a50.7,50.7,0,0,1-8.23-2.11,8,8,0,0,1-3.64-2.14,4.5,4.5,0,0,1-.86-2.88,4.91,4.91,0,0,1,1.84-4.06,8.41,8.41,0,0,1,5.4-1.55,10.36,10.36,0,0,1,4.33.77,11.1,11.1,0,0,1,3.25,2,22.33,22.33,0,0,0,2.12,1.77,1.77,1.77,0,0,0,1.62.77h7.11a2,2,0,0,0,1.46-.56,2.27,2.27,0,0,0,.6-1.5,8.53,8.53,0,0,0-2.39-5.09,19.33,19.33,0,0,0-7-5,26.82,26.82,0,0,0-11-2.09,24.46,24.46,0,0,0-10.73,2.15,16.59,16.59,0,0,0-6.75,5.64,12.79,12.79,0,0,0-2.28,7.25,12.39,12.39,0,0,0,3.84,9.46,25.13,25.13,0,0,0,11.86,5.31,75,75,0,0,1,8.34,2.27,10.58,10.58,0,0,1,3.9,2.21,5.06,5.06,0,0,1-1.3,7.42,11.4,11.4,0,0,1-6.12,1.49,14.34,14.34,0,0,1-4.73-.77,13.32,13.32,0,0,1-3.73-2.27c-1.14-1-1.83-1.61-2.16-1.88a1.62,1.62,0,0,0-1.27-.7h-7.77a2.13,2.13,0,0,0-1.46.55,1.89,1.89,0,0,0-.6,1.55,8.82,8.82,0,0,0,2.28,5,19.41,19.41,0,0,0,7.15,5.2,29.46,29.46,0,0,0,12,2.21,27,27,0,0,0,16.13-4.26,13.09,13.09,0,0,0,5.85-11.07q0-11.76-17-15.15"/></g><g id="Grupo_2" data-name="Grupo 2"><path id="Caminho_2" data-name="Caminho 2" class="cls-1" d="M1057.68,297.36a2.25,2.25,0,0,0-1.63-.62h-6.61a5.15,5.15,0,0,1-4.66-2.15,11.42,11.42,0,0,1-1.42-6.24V267.61h11.83a2.2,2.2,0,0,0,1.62-.68,2.23,2.23,0,0,0,.68-1.65v-5.63a2.23,2.23,0,0,0-.68-1.67,2.15,2.15,0,0,0-1.62-.67h-11.83v-16a2.07,2.07,0,0,0-.6-1.67,2.2,2.2,0,0,0-1.68-.68h-7.77a2.32,2.32,0,0,0-2.3,2.35v16h-7.44a2.38,2.38,0,0,0-1.63.68,2.26,2.26,0,0,0-.67,1.67v5.64a2.27,2.27,0,0,0,.67,1.65,2.43,2.43,0,0,0,1.63.68h7.48v21.74a19.2,19.2,0,0,0,4.32,13.51,17.13,17.13,0,0,0,13,4.53h7.73a2.05,2.05,0,0,0,1.63-.68,2.24,2.24,0,0,0,.67-1.6v-6.08a2.35,2.35,0,0,0-.67-1.72"/></g><g id="Grupo_3" data-name="Grupo 3"><path id="Caminho_3" data-name="Caminho 3" class="cls-1" d="M1106.46,278.12a22.62,22.62,0,0,0-6.6-15.94,27.68,27.68,0,0,0-34.06,0,22.45,22.45,0,0,0-6.66,15.94l0,4.25,0,4.27a22.58,22.58,0,0,0,6.56,16,28.23,28.23,0,0,0,34.28,0,22.82,22.82,0,0,0,6.48-16c0-.77.11-2.21.11-4.27s-.06-3.47-.11-4.25m-13,8a14.74,14.74,0,0,1-2.87,9.35,9.51,9.51,0,0,1-7.68,3.2,9.73,9.73,0,0,1-7.75-3.2,14.49,14.49,0,0,1-2.92-9.35l-.11-3.77.11-3.74a14.8,14.8,0,0,1,2.92-9.42,9.57,9.57,0,0,1,7.75-3.2,9.43,9.43,0,0,1,7.64,3.2,14.73,14.73,0,0,1,2.91,9.42,29.16,29.16,0,0,1,.11,3.74,29.62,29.62,0,0,1-.11,3.77"/></g><g id="Grupo_4" data-name="Grupo 4"><path id="Caminho_4" data-name="Caminho 4" class="cls-1" d="M1143,257.92a2.45,2.45,0,0,0-1.69-.61h-4a15.82,15.82,0,0,0-13.59,6.36v-4a2.41,2.41,0,0,0-.66-1.69,2.36,2.36,0,0,0-1.73-.67h-7.74a2.1,2.1,0,0,0-1.57.67,2.4,2.4,0,0,0-.68,1.72v45.46a2.29,2.29,0,0,0,.68,1.61,2.14,2.14,0,0,0,1.57.67H1122a2.17,2.17,0,0,0,1.57-.67,2.32,2.32,0,0,0,.67-1.61V278.72a9.79,9.79,0,0,1,2.55-7.14,9.34,9.34,0,0,1,7-2.59h7.43a2.09,2.09,0,0,0,1.68-.73,2.37,2.37,0,0,0,.6-1.61v-7a2.56,2.56,0,0,0-.6-1.72"/></g><g id="Grupo_5" data-name="Grupo 5"><path id="Caminho_5" data-name="Caminho 5" class="cls-1" d="M1183.06,263.29a24.73,24.73,0,0,0-34.44,0,27.46,27.46,0,0,0-6.18,19l.1,2.43a25,25,0,0,0,6.56,17.56,22.55,22.55,0,0,0,16.79,6.19,27.24,27.24,0,0,0,11.56-2.36,22.21,22.21,0,0,0,7.7-5.47,9,9,0,0,0,2.7-5.41,1.57,1.57,0,0,0-.59-1.35,2.37,2.37,0,0,0-1.5-.47h-8.31a3.88,3.88,0,0,0-1.62.22,5.38,5.38,0,0,0-1.3,1.35,10.67,10.67,0,0,1-8.78,4.43,8.8,8.8,0,0,1-7.43-3.54,15,15,0,0,1-2.87-8.9v-.8h31.37a2.37,2.37,0,0,0,1.69-.68,2.33,2.33,0,0,0,.63-1.66v-2a27,27,0,0,0-6.08-18.53M1176.15,278h-20.68v-.23a14.26,14.26,0,0,1,2.7-9.07,10.1,10.1,0,0,1,15.17,0,14,14,0,0,1,2.81,9.07Z"/></g><g id="Grupo_6" data-name="Grupo 6"><path id="Caminho_6" data-name="Caminho 6" class="cls-1" d="M698.72,107.34Q683.25,93,651.09,92.93a81.24,81.24,0,0,0-33.92,6.35,52.57,52.57,0,0,0-20.5,15.25,29.26,29.26,0,0,0-7,16,4.92,4.92,0,0,0,1.45,4.13,5.69,5.69,0,0,0,4.26,1.67h30.09a3,3,0,0,0,2.61-1.82,33.85,33.85,0,0,0,6-4.26,48.5,48.5,0,0,1,7.87-5.54,18.84,18.84,0,0,1,8.68-1.83,16.87,16.87,0,0,1,13.22,4.5,21.63,21.63,0,0,1,3.91,14.26v3.2l-32.18,5a89.13,89.13,0,0,0-40.26,15.45,35.37,35.37,0,0,0-14.63,29.3,37.41,37.41,0,0,0,6.3,20.94,43.19,43.19,0,0,0,17.65,14.93,56.82,56.82,0,0,0,25,5.41,52.37,52.37,0,0,0,24.12-5.14,42.53,42.53,0,0,0,15.79-13.37v9.28a6.46,6.46,0,0,0,2,4.61,6.09,6.09,0,0,0,4.52,2h31.89a6.1,6.1,0,0,0,4.67-2,6.63,6.63,0,0,0,1.83-4.61V146.39a50.59,50.59,0,0,0-15.61-39m-30.52,67.4A31.72,31.72,0,0,1,661.06,197a24.09,24.09,0,0,1-18.52,7.65A20.56,20.56,0,0,1,630,200.94a11.61,11.61,0,0,1-5.08-9.81q0-11.61,21.81-15.87l21.5-3.71Z"/></g><g id="Grupo_7" data-name="Grupo 7"><path id="Caminho_7" data-name="Caminho 7" class="cls-1" d="M857.21,180.82H822.47a6.39,6.39,0,0,0-4.34,1.31,11.5,11.5,0,0,0-2.88,4.24,24.22,24.22,0,0,1-7.13,11,18.71,18.71,0,0,1-11.78,3.3,18.43,18.43,0,0,1-15.3-6.49,33.86,33.86,0,0,1-5.4-20.27l-.26-8.78.26-10.06q.76-27,20.73-27a18.57,18.57,0,0,1,11.55,3.46,23.67,23.67,0,0,1,7.33,10.93,10.68,10.68,0,0,0,2.88,4.19,6.46,6.46,0,0,0,4.35,1.36h34.73a7,7,0,0,0,4.93-2,5.66,5.66,0,0,0,1.79-4.93,41.71,41.71,0,0,0-8-20.5,61.92,61.92,0,0,0-22.84-19.44,78.73,78.73,0,0,0-37.81-8.22,70,70,0,0,0-47.92,16.14,59.45,59.45,0,0,0-19.45,44.75l-.26,10.85.26,10.59a60.2,60.2,0,0,0,19.55,44.58,69.83,69.83,0,0,0,47.82,16,78.7,78.7,0,0,0,38.88-8.7,60.26,60.26,0,0,0,22.62-20.26,39,39,0,0,0,7.14-19.7,5.77,5.77,0,0,0-2-4.51,7,7,0,0,0-4.67-1.84"/></g><g id="Grupo_8" data-name="Grupo 8"><path id="Caminho_8" data-name="Caminho 8" class="cls-1" d="M1017.92,154.88a70.19,70.19,0,0,0-15.54-45.39A49.64,49.64,0,0,0,963,92.93a48.85,48.85,0,0,0-37.56,15.36V51.89a6.45,6.45,0,0,0-1.79-4.73A6.22,6.22,0,0,0,919,45.29H885.51a6.54,6.54,0,0,0-4.77,1.88,6.21,6.21,0,0,0-2,4.73V226.62a6.38,6.38,0,0,0,2,4.77,6.71,6.71,0,0,0,4.77,1.84h30.83a6,6,0,0,0,4.68-2,6.6,6.6,0,0,0,1.84-4.61v-8.2A48.32,48.32,0,0,0,963,235.85a50.2,50.2,0,0,0,39.56-16.15,70.88,70.88,0,0,0,15.38-46c.14-2.3.25-5.4.25-9.28,0-4-.11-7.23-.25-9.53m-47.41,17.71a36.71,36.71,0,0,1-5.87,19.5,19.13,19.13,0,0,1-16.63,7,19.48,19.48,0,0,1-16.62-7.24,33,33,0,0,1-6-18.4c-.15-2.51-.26-5.86-.26-10s.11-7.55.26-9.8a28.23,28.23,0,0,1,6.08-17.09A20.13,20.13,0,0,1,948,129.72a19.15,19.15,0,0,1,16.67,7,36.41,36.41,0,0,1,5.86,19.44c.15,1.78.25,4.5.25,8.23s-.1,6.45-.25,8.18"/></g><g id="Grupo_9" data-name="Grupo 9"><path id="Caminho_9" data-name="Caminho 9" class="cls-1" d="M1168.6,97.43a6.33,6.33,0,0,0-4.68-1.83h-34.15a7,7,0,0,0-4.83,1.83,6.4,6.4,0,0,0-2,4.77v72.27a26.44,26.44,0,0,1-5.79,18.13,20.75,20.75,0,0,1-16.21,6.45q-21.46,0-21.49-24.58V102.2a6.42,6.42,0,0,0-2-4.77,6.69,6.69,0,0,0-4.79-1.83h-34.45a6.4,6.4,0,0,0-4.52,1.83,6.24,6.24,0,0,0-2,4.77v73.85a64,64,0,0,0,14,44.16,47,47,0,0,0,36.83,15.62q29.48,0,43-19.3v10.06a6.37,6.37,0,0,0,2,4.77,6.7,6.7,0,0,0,4.77,1.84h31.58a6.09,6.09,0,0,0,4.67-2,6.55,6.55,0,0,0,1.85-4.62V102.2a6.52,6.52,0,0,0-1.84-4.77"/></g><g id="Grupo_10" data-name="Grupo 10"><path id="Caminho_10" data-name="Caminho 10" class="cls-1" d="M1325.66,97.33a5.41,5.41,0,0,0-4-1.73h-30.57a8.35,8.35,0,0,0-7.8,5.55l-29.5,75.16L1225,101.15a7.56,7.56,0,0,0-7.49-5.55h-30.84a5.25,5.25,0,0,0-4,1.73,8.18,8.18,0,0,0-2.26,4.35,10.79,10.79,0,0,0,.83,2.88L1231,224.74l-20.48,49.8a12,12,0,0,0-.51,3.37,5.28,5.28,0,0,0,1.59,4,5.2,5.2,0,0,0,3.85,1.56h30.07a8.47,8.47,0,0,0,8-5.55l73.33-173.34a10.83,10.83,0,0,0,.51-3.38,5.23,5.23,0,0,0-1.69-3.82"/></g><g id="Grupo_11" data-name="Grupo 11"><path id="Caminho_11" data-name="Caminho 11" class="cls-1" d="M312.54,158.75a27.78,27.78,0,0,1-12.88,23L169.3,264.61V210.53l7.67-5L277.69,141a21.76,21.76,0,0,1,34.85,17.77"/></g><g id="Grupo_12" data-name="Grupo 12"><path id="Caminho_12" data-name="Caminho 12" class="cls-1" d="M304.93,86.21,163.81,161.56l-68,20.78-25,7.61L47.78,155.67,2.07,87.75a41.35,41.35,0,0,1,3.59-4.23,30.88,30.88,0,0,1,6.67-5.15L137.42,4.54a32.87,32.87,0,0,1,33.33,0L295.84,78.37a31.78,31.78,0,0,1,9.09,7.84"/></g><g id="Grupo_13" data-name="Grupo 13"><path id="Caminho_13" data-name="Caminho 13" class="cls-1" d="M131,212.42V354.88l-118.65-70a33.36,33.36,0,0,1-4.66-3.27A34,34,0,0,1,0,272.25V153.73l55.12,81.89Z"/></g><g id="Grupo_14" data-name="Grupo 14"><path id="Caminho_14" data-name="Caminho 14" class="cls-1" d="M312.54,250.31a37,37,0,0,1-16.69,30.6L177,359.56l-6.21,4.1-1.46.91V306.1l117-70.24a18.3,18.3,0,0,1,8.25-2.66,16.71,16.71,0,0,1,17.93,15.4,15.83,15.83,0,0,1,0,1.69"/></g><g id="Grupo_15" data-name="Grupo 15"><path id="Caminho_15" data-name="Caminho 15" class="cls-1" d="M554,108.85c-9.08-10-27.06-15-41.5-15-38.4,0-47.5,16.38-51.74,23.24C456.51,110.2,447.4,93.82,409,93.82c-14.45,0-32.43,5-41.52,15s-13.61,24.85-13.61,44.6v76.71a6.69,6.69,0,0,0,1.89,4.73,6.07,6.07,0,0,0,4.73,2H393a6.82,6.82,0,0,0,4.87-1.87,6.55,6.55,0,0,0,2-4.87V155.38a26.77,26.77,0,0,1,5.17-18.24,17.46,17.46,0,0,1,13.81-5.81,16.92,16.92,0,0,1,13.34,5.83,27,27,0,0,1,5.13,18.24v74.74a6.77,6.77,0,0,0,1.88,4.73,6.07,6.07,0,0,0,4.73,2h33.54a6.07,6.07,0,0,0,4.73-2,6.69,6.69,0,0,0,1.89-4.73V155.38a27.15,27.15,0,0,1,5.12-18.24,17,17,0,0,1,13.34-5.83,17.44,17.44,0,0,1,13.87,5.83,26.83,26.83,0,0,1,5.18,18.24v74.76a6.54,6.54,0,0,0,2,4.87,6.87,6.87,0,0,0,4.87,1.88H561a6.12,6.12,0,0,0,4.73-2,6.77,6.77,0,0,0,1.88-4.73v-76.7c0-19.77-4.54-34.68-13.6-44.62"/></g></g></g></svg>