<svg id="bhf_icon-logo" viewBox="0 0 2573.7 464.1"><g fill="inherit"><path d="M753.2 233.2H614.1v-38.1c0-34.3-26.8-60.2-60.7-60.2h-56V76.3c0-18 2.9-19.6 28.4-19.6 15.1 0 28.4-12.7 28.4-28.4 0-15.2-11.9-27.7-27-28.4h-58.3c-19.5 0-28.4 16.5-28.4 28.4v106.6h-58.6c-39.4 0-60.1 30.6-60.1 60.2v38.1h-137c-53 0-97.2 36.5-109.8 85.5H56.8v-28.4c0-15.7-12.7-28.4-28.4-28.4C12.7 262 0 274.7 0 290.4V404c0 15.7 12.7 28.4 28.4 28.4s28.4-12.7 28.4-28.4v-28.4h18.6c12.8 48.8 56.8 84.9 109.5 84.9h568.2c62.8 0 113.7-50.9 113.7-113.6.1-62.8-50.8-113.7-113.6-113.7z"></path><path d="M1067.4 239.5v49.6c-18.6-10.8-37.9-16.2-57.9-16.2-9 0-15.8 1.8-20.5 5.5-4.7 3.7-7.1 8.4-7.1 14.1 0 5.7 2.9 10.9 8.6 15.3 5.7 4.5 14.4 9.2 25.8 14.3 7.1 3.2 13 6 17.7 8.4 4.7 2.4 10.1 5.7 16.2 10s10.9 8.7 14.5 13.4c3.6 4.7 6.6 10.5 9.1 17.4 2.5 6.9 3.8 14.4 3.8 22.4 0 20.9-7.7 37.8-23.1 50.8-15.4 13-35.8 19.5-61.3 19.5-27.3 0-49.6-4.8-66.8-14.5v-53.4c20.9 15.2 43.2 22.7 66.8 22.7 8 0 14.7-2.1 20-6.4 5.3-4.2 7.9-9.8 7.9-16.7 0-2.3-.3-4.5-1-6.5-.7-2.1-2-4-3.8-5.9-1.8-1.8-3.6-3.4-5.3-4.6-1.7-1.3-4.3-2.8-7.6-4.5-3.3-1.7-6.1-3.2-8.4-4.3-2.3-1.1-5.7-2.8-10.2-4.8-4.5-2.1-8.1-3.7-10.9-4.8-14.9-6.9-26.9-15.4-36-25.5-9.1-10.1-13.6-23.5-13.6-40.3 0-20 7.4-36.1 22.1-48.4 14.7-12.3 35-18.4 61-18.4 23.2.1 43.2 4 60 11.8zM1218.8 286.7h50.3v174.7h-50.3v-27.9c-9.2 19.5-26.9 29.3-53.1 29.3-17.9 0-31.9-5-41.9-15s-15-24.7-15-44.3V286.7h50.3v105.4c0 20.4 9 30.7 26.9 30.7 21.8 0 32.7-14.6 32.7-43.8v-92.3zM1360 217.8v95.8c11.9-19.3 29.3-28.9 52-28.9 21.8 0 39.8 7.9 54.1 23.8 14.2 15.8 21.4 37.6 21.4 65.1 0 24.6-6.8 45.7-20.5 63.4-13.7 17.7-31.9 26.5-54.6 26.5-23.2 0-40.7-9.8-52.4-29.3v27.2h-50.3V217.8h50.3zm38.5 203.6c10.6 0 19.5-4.3 26.9-12.9 7.4-8.6 11-19.9 11-33.9 0-15.2-3.6-27-10.9-35.5-7.2-8.5-16.1-12.7-26.7-12.7-10.6 0-19.7 4-27.4 12.1-7.7 8-11.5 19.3-11.5 33.8 0 14.9 3.6 26.9 10.7 35.8 7.2 8.8 16.5 13.3 27.9 13.3zM1569.6 286.7v27.2c9.6-19.3 26.1-28.9 49.3-28.9 24.6 0 40.9 11 48.9 33.1 3.9-10.3 10.4-18.4 19.6-24.3 9.2-5.9 20-8.8 32.4-8.8 17.2 0 30.8 5.5 40.8 16.4 10 10.9 15 26.9 15 48.1v112h-50.3V357.7c0-9.9-2-17.7-5.9-23.4-3.9-5.7-9.5-8.6-16.9-8.6-7.8 0-14.8 3.2-20.8 9.5-6.1 6.3-9.1 17.6-9.1 33.9v92.3h-50.3V357.7c0-9.9-2-17.7-5.9-23.4-3.9-5.7-9.5-8.6-16.9-8.6-7.8 0-14.8 3.2-20.8 9.5-6.1 6.3-9.1 17.6-9.1 33.9v92.3h-50.3V286.7h50.3zM1818.6 340.5v-45.1c13.8-7.8 33.6-11.7 59.6-11.7 24.8 0 43.3 5.3 55.5 16 12.2 10.7 18.3 27.3 18.3 49.8v112h-49.3V440c-7.4 14.9-21.8 22.4-43.4 22.4-17 0-30.3-4.8-39.8-14.5-9.5-9.6-14.3-21.7-14.3-36.2 0-16.8 6.1-29.8 18.4-39.1 12.3-9.3 30.5-14 54.6-14h22v-12.1c0-14.7-9.8-22.1-29.3-22.1-18.7.2-36.2 5.5-52.3 16.1zm81.7 49.2h-16.2c-8.5 0-15 1.8-19.6 5.5-4.6 3.7-6.9 8.4-6.9 14.1 0 11.7 6.8 17.6 20.3 17.6 7.1 0 12.6-2.2 16.5-6.5 3.9-4.4 5.9-10.3 5.9-17.9v-12.8zM2041.5 286.7v32.4c3.2-10.1 8.6-18.2 16-24.3 7.5-6.1 16.1-9.1 26-9.1 5.5 0 9.9.5 13.1 1.4v47.5c-5.5-2.5-11.8-3.8-18.9-3.8-10.8 0-19.5 4-26.2 11.9-6.7 7.9-10 18.4-10 31.5v87.2h-50.3l.3-174.7h50zM2124.5 267.8c-5.7-5.7-8.6-12.6-8.6-20.7 0-8 2.9-14.9 8.6-20.7 5.7-5.7 12.6-8.6 20.7-8.6 8 0 14.9 2.9 20.7 8.6 5.7 5.7 8.6 12.6 8.6 20.7 0 8-2.9 14.9-8.6 20.7-5.7 5.7-12.6 8.6-20.7 8.6-8 0-14.9-2.9-20.7-8.6zm-4.4 193.6V286.7h50.3v174.7h-50.3zM2262.2 286.7v29.6c4.4-9.6 11.1-17.3 20.2-22.9 9.1-5.6 19.9-8.4 32.6-8.4 17.9 0 31.9 5.3 42 16 10.1 10.7 15.2 26.4 15.2 47v113.4h-50.3v-104c0-10.3-2.4-18.2-7.2-23.6-4.8-5.4-11.6-8.1-20.3-8.1-9.2 0-16.8 3.6-22.9 10.9-6.1 7.2-9.1 18.1-9.1 32.6v92.3h-50.3V286.7h50.1zM2488.3 464.1c-27.3 0-48.5-8.2-63.4-24.6-14.9-16.4-22.4-37.5-22.4-63.2 0-26.9 7.8-49 23.4-66.3 15.6-17.3 36.4-26 62.4-26 27.1 0 48.1 8.4 63 25.2 14.9 16.8 22.4 38.1 22.4 64.1 0 26.4-7.5 48.2-22.6 65.3-15 17-35.9 25.5-62.8 25.5zm-.4-140.5c-11 0-19.3 4.7-24.8 14.1-5.5 9.4-8.3 21.6-8.3 36.5 0 14.9 2.8 27.2 8.4 36.7 5.6 9.5 14.1 14.3 25.3 14.3 11 0 19.2-4.7 24.6-14 5.4-9.3 8.1-21.4 8.1-36.4.2-34.1-11-51.2-33.3-51.2z"></path></g></svg>