<svg id="Camada_1" data-name="Camada 1" xmlns="http://www.w3.org/2000/svg" viewBox="0 0 60 38"><defs><style>.cls-1{fill:#ccc;}.cls-2{fill:#3e60b8;}.cls-3{fill:#fff;}</style></defs><title>diners-club</title><path class="cls-1" d="M4,0H56a4,4,0,0,1,4,4V34a4,4,0,0,1-4,4H4a4,4,0,0,1-4-4V4A4,4,0,0,1,4,0Z"/><path d="M8.6,27.1h2.7A2.82,2.82,0,0,1,14.4,30c0,2.2-1.5,3.9-4.6,3.9H7.1v-.2c.5-.1.7-.1.9-.8a44.16,44.16,0,0,0,1.4-5.2c0-.4-.3-.4-.8-.5Zm.5,6.1c0,.4.3.4.8.4,3.3,0,3.4-3.1,3.4-3.7,0-1.1-.2-2.4-2-2.4-.6,0-.6.2-.7.3A44.44,44.44,0,0,0,9.1,33.2Zm7.6-.4c-.4.6-.9,1.2-1.5,1.2s-.5-.5-.5-.7c0-.5.8-3.2.8-3.5s-.1-.3-.7-.3v-.2a10.1,10.1,0,0,0,1.7-.3h0c-.5,1.4-1.5,4.4-.9,4.4.1,0,.4-.2.9-.8ZM16.5,28c-.3,0-.5-.2-.5-.6s.2-.6.5-.6.5.2.5.6S16.8,28,16.5,28Zm5.2,4.8c-.5.7-.9,1.2-1.5,1.2s-.5-.3-.5-.6.8-2.9.8-3.3a.27.27,0,0,0-.3-.3c-1.1-.1-2.4,2.9-2.7,4.2h-.8c.3-1.2,1-3.7,1-3.9s-.1-.3-.7-.3v-.2l1.7-.3h0L18,31.5h0c.5-.8,1.5-2.3,2.4-2.3a.63.63,0,0,1,.7.7c0,.5-.8,3.1-.8,3.4s.1.2.2.2.5-.3.9-.8A.37.37,0,0,0,21.7,32.8Zm3.7.2a3.4,3.4,0,0,1-2.1,1.1,1.41,1.41,0,0,1-1.5-1.5A3.72,3.72,0,0,1,25,29.3a.81.81,0,0,1,.9.7c0,1-1.6,1.8-3,2-.4,1,.2,1.7.9,1.7s1-.4,1.5-.8V33Zm-.3-3.1a.37.37,0,0,0-.4-.4c-.6,0-1.3.8-1.7,1.8l-.2.5C23.9,31.4,25.1,30.9,25.1,29.9Zm.6,4c.4-1.3.8-2.7,1.1-4,0-.1-.1-.3-.4-.3a.37.37,0,0,0-.3.1v-.2c.5-.1,1.2-.2,1.6-.3h0a20.93,20.93,0,0,0-.5,2.1c.3-.7,1.3-2.2,1.9-2.2a.54.54,0,0,1,.5.5c0,.6-.4.6-.5.6-.5,0-.3-.4-.6-.4-.5,0-1.7,3-2,4.1Zm3.4-1.6c.1.5.2,1.5,1.1,1.5a.81.81,0,0,0,.8-.9c0-.7-1.3-1.7-1.3-2.6A1.15,1.15,0,0,1,31,29.1c.5,0,.7.2,1,.2s.2-.1.3-.2h.1l-.2,1.5H32c-.1-.6-.3-1.2-1-1.2a.57.57,0,0,0-.6.6c0,.7,1.3,1.6,1.3,2.5,0,1.2-1,1.4-1.6,1.4-.3,0-.7-.2-1-.2-.1,0-.2.1-.3.2h-.2l.2-1.7H29Zm10-5.2c-2.1,0-3.2,2.6-3.2,4.2,0,1.4.6,2.3,1.8,2.3a3.33,3.33,0,0,0,2.4-1.3l.2.1A3.68,3.68,0,0,1,37.4,34a2.74,2.74,0,0,1-2.8-2.9,4.56,4.56,0,0,1,4.3-4.4,10.93,10.93,0,0,1,1.7.3c.3,0,.4-.1.4-.2h.2l-.4,2.1h-.2A1.4,1.4,0,0,0,39.1,27.1Zm2.4,6.8c-.5,0-.5-.4-.5-.7s1.5-5.8,1.5-6-.4-.3-.7-.3v-.2l1.7-.3.1.1c-.6,2.2-1.2,4.5-1.7,6.7,0,.1,0,.2.2.2s.5-.3,1-1l.1.1C42.8,33.2,42.2,33.9,41.5,33.9Zm6.4-1.1c-.7,1-.9,1.2-1.5,1.2s-.5-.4-.5-.6a10.83,10.83,0,0,1,.5-2h0c-.7,1.2-1.5,2.6-2.5,2.6a.53.53,0,0,1-.6-.6c0-.5.8-3.2.8-3.5s-.2-.3-.6-.3v-.1l1.6-.3h0c-.4,1.3-1.5,4.3-.8,4.3s2.2-2.9,2.7-4.2h.8c-.3,1.3-.7,2.7-1,4-.1.5.4.1,1-.6Zm1-6c.5-.1,1.1-.1,1.6-.2l.1.1c-.2.9-.6,2.1-.9,3.3h0a2,2,0,0,1,1.8-1.1c.7,0,1.2.9,1.2,1.6a3.94,3.94,0,0,1-3.4,3.6c-.6,0-1.4-.3-1.4-.6h0c.5-2,1-4.1,1.6-6.1,0-.2-.1-.3-.7-.3v-.2h0Zm0,6.6c0,.1,0,.4.5.4,1.4,0,2.5-2.3,2.5-3.2,0-.3-.1-1.2-.7-1.2C49.8,29.4,49,32,48.9,33.4Z"/><path class="cls-2" d="M23.9,24.7H35.5a10.4,10.4,0,0,0,0-20.8H23.9a10.43,10.43,0,0,0,0,20.8Z"/><path class="cls-3" d="M24.5,4.1a10.2,10.2,0,0,0,0,20.4,10.2,10.2,0,0,0,0-20.4Zm-2,16.5A6.71,6.71,0,0,1,18,14.3,6.52,6.52,0,0,1,22.5,8V20.6Zm4.3-.1V8a6.64,6.64,0,0,1,4.3,6.2,6.54,6.54,0,0,1-4.3,6.2Z"/></svg>