<svg id="Camada_1" data-name="Camada 1" xmlns="http://www.w3.org/2000/svg" viewBox="0 0 60 38"><defs><style>.cls-1{fill:#fff;}.cls-2{fill:#2091c3;}.cls-3{fill:#faec32;}.cls-4{fill:#d0352a;}</style></defs><title>elo</title><path d="M4,0H56a4,4,0,0,1,4,4V34a4,4,0,0,1-4,4H4a4,4,0,0,1-4-4V4A4,4,0,0,1,4,0Z"/><path class="cls-1" d="M27.5,9.1V24.6c0,1.5.4,2.2,1.6,2.6l3,1.3,1.2-3-2.6-1c-.2-.1-.2-.2-.2-.3V9.1Zm-9.2,3.5A8.26,8.26,0,0,0,10,20.8a7.75,7.75,0,0,0,1.4,4.5l8.2-3.5L23,20.3h0l3.3-1.4a8.37,8.37,0,0,0-8.1-6.3Zm0,3.5a4.84,4.84,0,0,1,3.6,1.6l-8.3,3.5v-.4a4.72,4.72,0,0,1,4.8-4.7Zm3.3,8c-2,1.5-4,1.7-5.9.6l-2,2.9a8.31,8.31,0,0,0,10.4-1Z"/><path class="cls-2" d="M38.7,24.3a4.74,4.74,0,0,1-1.8-3.7,4.86,4.86,0,0,1,1.5-3.4l-1.9-3.1a8.21,8.21,0,0,0,.4,13.3l1.8-3.1"/><path class="cls-3" d="M40,16.2a4.15,4.15,0,0,1,1.6-.3,4.72,4.72,0,0,1,4.4,3l3.7-.3a8.37,8.37,0,0,0-8.1-6.3,7.79,7.79,0,0,0-3.1.6L40,16.1"/><path class="cls-4" d="M46.4,20.8a4.64,4.64,0,0,1-4.7,4.4c-.4,0-.8-.1-1.2-.1l-1.4,3.3a7.46,7.46,0,0,0,2.6.4A8.2,8.2,0,0,0,50,20.9l-3.6-.1"/></svg>