<svg id="Camada_1" data-name="Camada 1" xmlns="http://www.w3.org/2000/svg" viewBox="0 0 4 4.01"><defs><style>.cls-1{fill:#383838;}.cls-2{fill:#fff;}</style></defs><title>boleto-info-01</title><path class="cls-1" d="M3.65,2.44c0,.16.17.42.09.56s-.41.1-.53.21-.07.44-.2.52-.41-.11-.56-.07S2.16,4,2,4s-.29-.31-.45-.35-.41.15-.54.07S.9,3.32.79,3.21.35,3.14.26,3s.13-.4.09-.56S0,2.17,0,2s.3-.3.35-.45S.19,1.14.26,1,.67.9.79.79.86.35,1,.27s.39.11.54.07S1.84,0,2,0s.29.3.45.34S2.86.19,3,.27s.09.41.2.52.44.07.53.21-.13.4-.09.56S4,1.83,4,2,3.7,2.29,3.65,2.44Z" transform="translate(0 0)"/><path class="cls-2" d="M1.29,1.7c0-.2.07-.34.29-.34s.29.11.29.34,0,.34-.29.34S1.29,1.91,1.29,1.7Zm.36,0c0-.06,0-.17-.07-.17s-.07.11-.07.17,0,.17.07.17S1.65,1.75,1.65,1.7Zm.12,1H1.62l.61-1.39h.15Zm.94-.36c0,.19,0,.34-.29.34s-.29-.13-.29-.34S2.21,2,2.42,2,2.71,2.15,2.71,2.37Zm-.36,0c0,.08,0,.18.07.18s.07-.12.07-.18,0-.17-.07-.17S2.35,2.31,2.35,2.36Z" transform="translate(0 0)"/></svg>