<svg id="Camada_1" data-name="Camada 1" xmlns="http://www.w3.org/2000/svg" xmlns:xlink="http://www.w3.org/1999/xlink" viewBox="0 0 22.22 22.21"><defs><style>.cls-1{fill:none;}.cls-2{clip-path:url(#clip-path);}.cls-3{fill:#fbbc05;}.cls-4{fill:#ea4335;}.cls-5{fill:#34a853;}.cls-6{fill:#4285f4;}</style><clipPath id="clip-path" transform="translate(0.93 0.94)"><path class="cls-1" d="M19.67,8.32H10.18v3.93h5.46c-.51,2.5-2.64,3.94-5.46,3.94a6,6,0,0,1,0-12,6,6,0,0,1,3.75,1.34l3-3a10.18,10.18,0,1,0-6.71,17.82c5.09,0,9.72-3.7,9.72-10.18A8.84,8.84,0,0,0,19.67,8.32Z"/></clipPath></defs><title>icone-google</title><g id="Google_G_Logo" data-name="Google  G  Logo"><g class="cls-2"><g id="Grupo_26" data-name="Grupo 26"><path id="Caminho_77" data-name="Caminho 77" class="cls-3" d="M-.93,16.19v-12l7.87,6Z" transform="translate(0.93 0.94)"/></g></g><g class="cls-2"><g id="Grupo_27" data-name="Grupo 27"><path id="Caminho_79" data-name="Caminho 79" class="cls-4" d="M-.93,4.15l7.87,6,3.24-2.82,11.11-1.8V-.94H-.93Z" transform="translate(0.93 0.94)"/></g></g><g class="cls-2"><g id="Grupo_28" data-name="Grupo 28"><path id="Caminho_81" data-name="Caminho 81" class="cls-5" d="M-.93,16.18,13,5.54,16.61,6,21.29-.94V21.28H-.93Z" transform="translate(0.93 0.94)"/></g></g><g class="cls-2"><g id="Grupo_29" data-name="Grupo 29"><path id="Caminho_83" data-name="Caminho 83" class="cls-6" d="M21.29,21.28,6.94,10.17,5.09,8.78l16.2-4.63Z" transform="translate(0.93 0.94)"/></g></g></g></svg>