<svg xmlns="http://www.w3.org/2000/svg" xmlns:xlink="http://www.w3.org/1999/xlink" width="386.605" height="357.723" viewBox="0 0 386.605 357.723">
  <defs>
    <linearGradient id="linear-gradient" y1="17.554" x2="1" y2="17.554" gradientUnits="objectBoundingBox">
      <stop offset="0" stop-color="gray" stop-opacity="0.251"/>
      <stop offset="0.535" stop-color="gray" stop-opacity="0.122"/>
      <stop offset="1" stop-color="gray" stop-opacity="0.102"/>
    </linearGradient>
  </defs>
  <g id="Grupo_185" data-name="Grupo 185" transform="translate(172.753 1122)">
    <ellipse id="Elipse_68" data-name="Elipse 68" cx="129.26" cy="20.961" rx="129.26" ry="20.961" transform="translate(-84.657 -806.2)" opacity="0.1"/>
    <path id="Caminho_276" data-name="Caminho 276" d="M110.267-1111.254l-121.328,74.664s0,153.993,121.328,237.989c121.328-84,121.328-237.989,121.328-237.989Z" transform="translate(-88.954 -5.912)" fill="#3f3d56"/>
    <path id="Caminho_277" data-name="Caminho 277" d="M257.715-1111.254l-2.074,1.276v309.919c.689.487,1.377.974,2.074,1.457,121.328-84,121.328-237.989,121.328-237.989Z" transform="translate(-235.678 -5.912)" fill="#38d39f" opacity="0.04"/>
    <g id="Grupo_180" data-name="Grupo 180" transform="translate(-17.59 -985.806)" opacity="0.7">
      <path id="Caminho_278" data-name="Caminho 278" d="M181.693-799.313l22.872,20.966,28.354-40.9,11.436,9.53-39.79,50.433-32.4-36.214Z" transform="translate(-172.163 819.25)" fill="url(#linear-gradient)"/>
    </g>
    <path id="Caminho_279" data-name="Caminho 279" d="M195.894-798.6,214.447-781.6l26.284-38.654,9.277,7.731-35.561,46.384-26.284-29.377Z" transform="translate(-198.555 -166.005)" fill="#3ad29f"/>
    <path id="Caminho_280" data-name="Caminho 280" d="M-14.227-1077.786a1.653,1.653,0,0,1-.921-2,.771.771,0,0,0,.036-.183h0a.829.829,0,0,0-.777-.878.828.828,0,0,0-.712.328h0a.784.784,0,0,0-.092.162,1.654,1.654,0,0,1-2,.921.769.769,0,0,0-.184-.036h0a.829.829,0,0,0-.878.777.829.829,0,0,0,.328.712h0a.784.784,0,0,0,.163.092,1.653,1.653,0,0,1,.921,2,.822.822,0,0,0-.036.183h0a.829.829,0,0,0,.777.878.829.829,0,0,0,.712-.328h0a.81.81,0,0,0,.092-.163,1.653,1.653,0,0,1,2-.921.822.822,0,0,0,.183.036h0a.829.829,0,0,0,.878-.777.828.828,0,0,0-.328-.712h0A.8.8,0,0,0-14.227-1077.786Z" transform="translate(-84.172 -22.64)" fill="#beffc8"/>
    <path id="Caminho_281" data-name="Caminho 281" d="M-160.227-752.786a1.653,1.653,0,0,1-.921-2,.772.772,0,0,0,.036-.183h0a.828.828,0,0,0-.777-.878.827.827,0,0,0-.712.328h0a.784.784,0,0,0-.092.162,1.653,1.653,0,0,1-2,.921.769.769,0,0,0-.184-.036h0a.829.829,0,0,0-.878.777.829.829,0,0,0,.328.712h0a.783.783,0,0,0,.163.092,1.653,1.653,0,0,1,.921,2,.824.824,0,0,0-.036.184h0a.829.829,0,0,0,.777.878.829.829,0,0,0,.712-.328h0a.806.806,0,0,0,.092-.163,1.653,1.653,0,0,1,2-.921.818.818,0,0,0,.183.036h0a.829.829,0,0,0,.878-.777.828.828,0,0,0-.328-.712h0A.8.8,0,0,0-160.227-752.786Z" transform="translate(-3.851 -201.436)" fill="#beffc8"/>
    <circle id="Elipse_69" data-name="Elipse 69" cx="2.699" cy="2.699" r="2.699" transform="translate(161.219 -1010.435)" fill="#beffc8"/>
    <circle id="Elipse_70" data-name="Elipse 70" cx="2.699" cy="2.699" r="2.699" transform="translate(-120.842 -817.446)" fill="#beffc8"/>
    <circle id="Elipse_71" data-name="Elipse 71" cx="2.699" cy="2.699" r="2.699" transform="translate(207.104 -906.518)" fill="#beffc8"/>
    <path id="Caminho_282" data-name="Caminho 282" d="M524.773-1048.786a1.653,1.653,0,0,1-.921-2,.769.769,0,0,0,.036-.183h0a.829.829,0,0,0-.777-.878.827.827,0,0,0-.712.328h0a.777.777,0,0,0-.092.162,1.654,1.654,0,0,1-2,.921.774.774,0,0,0-.184-.036h0a.829.829,0,0,0-.878.777.829.829,0,0,0,.328.712h0a.782.782,0,0,0,.163.092,1.653,1.653,0,0,1,.921,2,.815.815,0,0,0-.036.184h0a.829.829,0,0,0,.777.878.83.83,0,0,0,.712-.328h0a.8.8,0,0,0,.092-.163,1.653,1.653,0,0,1,2-.921.814.814,0,0,0,.183.036h0a.829.829,0,0,0,.878-.777.828.828,0,0,0-.328-.712h0A.815.815,0,0,0,524.773-1048.786Z" transform="translate(-380.698 -38.594)" fill="#beffc8"/>
    <path id="Caminho_283" data-name="Caminho 283" d="M624.773-420.786a1.653,1.653,0,0,1-.921-2,.769.769,0,0,0,.036-.183h0a.828.828,0,0,0-.777-.878.827.827,0,0,0-.712.328h0a.777.777,0,0,0-.092.162,1.653,1.653,0,0,1-2,.921.77.77,0,0,0-.184-.036h0a.829.829,0,0,0-.878.777.83.83,0,0,0,.328.712h0a.784.784,0,0,0,.163.092,1.653,1.653,0,0,1,.921,2,.815.815,0,0,0-.036.184h0a.829.829,0,0,0,.777.878.83.83,0,0,0,.712-.328h0a.8.8,0,0,0,.092-.163,1.653,1.653,0,0,1,2-.921.819.819,0,0,0,.183.036h0a.829.829,0,0,0,.878-.777.828.828,0,0,0-.328-.712h0A.82.82,0,0,0,624.773-420.786Z" transform="translate(-435.713 -384.084)" fill="#beffc8"/>
    <path id="Caminho_284" data-name="Caminho 284" d="M-167.227-942.786a1.653,1.653,0,0,1-.921-2,.773.773,0,0,0,.036-.183h0a.828.828,0,0,0-.777-.878.827.827,0,0,0-.712.328h0a.781.781,0,0,0-.092.162,1.653,1.653,0,0,1-2,.921.775.775,0,0,0-.184-.036h0a.829.829,0,0,0-.878.777.829.829,0,0,0,.328.712h0a.787.787,0,0,0,.163.092,1.653,1.653,0,0,1,.921,2,.825.825,0,0,0-.036.184h0a.829.829,0,0,0,.777.878.829.829,0,0,0,.712-.328h0a.807.807,0,0,0,.092-.163,1.653,1.653,0,0,1,2-.921.825.825,0,0,0,.183.036h0a.829.829,0,0,0,.878-.777.828.828,0,0,0-.328-.712h0A.807.807,0,0,0-167.227-942.786Z" transform="translate(0 -96.909)" fill="#beffc8"/>
    <circle id="Elipse_72" data-name="Elipse 72" cx="2.699" cy="2.699" r="2.699" transform="translate(-139.736 -996.939)" fill="#fff" opacity="0.5"/>
    <circle id="Elipse_73" data-name="Elipse 73" cx="2.699" cy="2.699" r="2.699" transform="translate(208.454 -975.346)" fill="#fff" opacity="0.5"/>
    <g id="Grupo_181" data-name="Grupo 181" transform="translate(86.542 -1122)" opacity="0.5">
      <rect id="Retângulo_229" data-name="Retângulo 229" width="1.35" height="7.648" transform="translate(3.149)" fill="#fff"/>
      <rect id="Retângulo_230" data-name="Retângulo 230" width="7.648" height="1.35" transform="translate(0 3.149)" fill="#fff"/>
    </g>
    <g id="Grupo_182" data-name="Grupo 182" transform="translate(91.491 -822.395)">
      <rect id="Retângulo_231" data-name="Retângulo 231" width="1.35" height="7.648" transform="translate(3.149 0)" fill="#beffc8"/>
      <rect id="Retângulo_232" data-name="Retângulo 232" width="7.648" height="1.35" transform="translate(0 3.149)" fill="#beffc8"/>
    </g>
    <g id="Grupo_183" data-name="Grupo 183" transform="translate(-164.029 -806.2)" opacity="0.5">
      <rect id="Retângulo_233" data-name="Retângulo 233" width="1.35" height="7.648" transform="translate(3.149)" fill="#fff"/>
      <rect id="Retângulo_234" data-name="Retângulo 234" width="7.648" height="1.35" transform="translate(0 3.149)" fill="#fff"/>
    </g>
    <g id="Grupo_184" data-name="Grupo 184" transform="translate(143.224 -943.856)" opacity="0.5">
      <rect id="Retângulo_235" data-name="Retângulo 235" width="1.35" height="7.648" transform="translate(3.149)" fill="#fff"/>
      <rect id="Retângulo_236" data-name="Retângulo 236" width="7.648" height="1.35" transform="translate(0 3.149)" fill="#fff"/>
    </g>
    <path id="Caminho_285" data-name="Caminho 285" d="M621.371-1003.118l2.9,2.657,4.106-6.039,1.449,1.208-5.556,7.247-4.106-4.589Z" transform="translate(-436.217 -63.541)" fill="#fff" opacity="0.5"/>
    <rect id="Retângulo_237" data-name="Retângulo 237" width="10.006" height="12.865" transform="translate(92.41 -1013.974) rotate(-2.221)" fill="#38d39f"/>
    <path id="Caminho_286" data-name="Caminho 286" d="M321.987-786.6s-13.846-6.615-13.625-.9,13.957,9.472,13.957,9.472Z" transform="translate(-264.68 -182.745)" fill="#ffb9b9"/>
    <path id="Caminho_287" data-name="Caminho 287" d="M340.132-684.54s-6.532,15.989-8.946,27.526-6.089,27.416-1.361,38.676S348-573.982,348.134-570.411s-1.151,7.2,1.705,7.086,18.4-5,19.033-7.175-5.3-7.662-5.3-7.662l-14.655-45.922L364.2-654l11.029,44.633,2.16,55.705s10.6-3.272,12.141-.471c0,0,4.75-6.621,5.353-9.506s-2.243-57.848-2.243-57.848,9.732-62.6,1.876-62.3S355.893-702.317,340.132-684.54Z" transform="translate(-275.229 -236.459)" fill="#38d39f"/>
    <path id="Caminho_288" data-name="Caminho 288" d="M363.305-418.107s-7.246,16.016-7.933,16.759-5.409,8.077-1.838,7.939,12-4.042,18.208-10,14.388-16.293,13.646-16.98-5.824-2.635-5.824-2.635Z" transform="translate(-288.806 -384.533)" fill="#575a89"/>
    <path id="Caminho_289" data-name="Caminho 289" d="M438.163-393.909s-.437,7.169-1.755,10.082-1.151,7.2,2.42,7.058,12.8-1.927,12.8-1.927.548-4.313-.194-5-3.9-8.431-2.558-10.629S438.163-393.909,438.163-393.909Z" transform="translate(-334.709 -399.841)" fill="#575a89"/>
    <path id="Caminho_290" data-name="Caminho 290" d="M440.3-909.508s7.612,11.864,10.58,14.61-5.381,8.792-5.381,8.792l-14.942,2.01s.188-13.6-.582-15S440.3-909.508,440.3-909.508Z" transform="translate(-331.568 -116.901)" fill="#ffb9b9"/>
    <path id="Caminho_291" data-name="Caminho 291" d="M404.684-879s3.078,5.6,5.935,5.491,17.633-6.406,18.264-8.576,4.894,15.545,4.894,15.545l-36.156,63.628L388.8-809l4.273-37.359,3.51-20.163Z" transform="translate(-308.935 -131.889)" fill="#38d39f"/>
    <path id="Caminho_292" data-name="Caminho 292" d="M408.007-827.308a20.012,20.012,0,0,0-2.218,9.384c.006.143.011.286.024.428.342,6.61,2.777,14.255,3.651,19.814.634,3.988.453,6.9-1.88,7.583-5.658,1.65.825,2.829-21.065,10.115s-25.71,1-25.766-.431,3.1-12.279,2.358-12.966-10.38,8.986-13.292,7.668-.332-8.57-.332-8.57,6.56-15.274,6.421-18.845,9.937-20.412,9.937-20.412l6.853-44.611s2.635-5.824,6.178-6.677a8.775,8.775,0,0,1,6.483,1.179l-5.929,13.1-6.256,23.13,1.046,8.542s7.275-15.3,12.052-21.21,14.964-19.892,14.964-19.892,2.378-8.025.583-10.422,7.489-2.765,11.448,7.095c2.1,5.225,5.5,13.018,7.638,20.274,1.9,6.428,2.8,12.437.916,15.871C418.943-841.909,411.7-835.012,408.007-827.308Z" transform="translate(-286.726 -126.632)" fill="#575a89"/>
    <path id="Caminho_293" data-name="Caminho 293" d="M491.161-814.115c-2.879,5.247-10.122,12.144-13.814,19.847-.964-3.474-2.141-7.069-2.141-7.069s-4.512-24.143,8.835-30.383a8.931,8.931,0,0,1,6.2,1.733C492.147-823.559,493.045-817.55,491.161-814.115Z" transform="translate(-356.066 -159.672)" opacity="0.1"/>
    <path id="Caminho_294" data-name="Caminho 294" d="M358.755-795.917l-11.316,3.3-15.712.61-1.616,13.652,25.821,1.86S362.382-794.627,358.755-795.917Z" transform="translate(-276.647 -179.392)" fill="#575a89"/>
    <path id="Caminho_295" data-name="Caminho 295" d="M419.888-693.877s-15.139,2.512-11.683,7.067,16.866-.233,16.866-.233Z" transform="translate(-319.327 -235.528)" fill="#ffb9b9"/>
    <path id="Caminho_296" data-name="Caminho 296" d="M448.753-726.6c.342,6.61,2.777,14.255,3.651,19.814-4.823,4.564-9.408,8.59-11.137,8.657-3.57.138-9.312-.354-11.426.443s-3.356-12.744-3.356-12.744,1.262-4.34,6.893-6.7A78.406,78.406,0,0,0,448.753-726.6Z" transform="translate(-329.666 -217.524)" opacity="0.1"/>
    <path id="Caminho_297" data-name="Caminho 297" d="M457.273-841.254s12.085-1.9,11.432,18.153,1.274,32.852-3.587,36.617-20.649,20.827-24.22,20.966-9.312-.354-11.427.443-3.355-12.745-3.355-12.745,1.262-4.34,6.892-6.7,18.895-10.746,18.784-13.6-3.355-12.745-3.355-12.745S443.925-835.014,457.273-841.254Z" transform="translate(-329.463 -154.424)" fill="#575a89"/>
    <circle id="Elipse_74" data-name="Elipse 74" cx="15.724" cy="15.724" r="15.724" transform="translate(82.356 -1040.288)" fill="#ffb9b9"/>
    <path id="Caminho_298" data-name="Caminho 298" d="M395.518-959.389a3.034,3.034,0,0,1-1.322.664.943.943,0,0,1-1.093-.757,3.92,3.92,0,0,1-1.5,1.924c-.734.383-1.87.062-1.976-.759a3.47,3.47,0,0,1-.8,1.684,1.2,1.2,0,0,1-1.68.056,43.2,43.2,0,0,1,.224,5.349,6.811,6.811,0,0,0,1.924,4.849c1.966,1.711,4.922,1.288,7.508.964a2.277,2.277,0,0,1,1.176.064c.968.413.924,1.76.938,2.813a7.815,7.815,0,0,0,6.843,7.422,3.917,3.917,0,0,0,2.911-.711c.734-.622,1.109-1.637,1.951-2.1,1.368-.76,3.028.349,4.029,1.553s1.987,2.685,3.537,2.906c2.05.292,3.611-1.8,4.377-3.721a21.694,21.694,0,0,0-.431-16.856C417.856-963.381,403.234-964.857,395.518-959.389Z" transform="translate(-308.026 -87.712)" fill="#2f2e41"/>
  </g>
</svg>
