<svg id="Camada_1" data-name="Camada 1" xmlns="http://www.w3.org/2000/svg" viewBox="0 0 370.91 373.88"><defs><style>.cls-1{fill:#fff;}.cls-2{fill:#ffc7c7;}</style></defs><title>vantangens</title><path class="cls-1" d="M344.45,28.3,302.67,28l.1-16.64a10,10,0,0,0-20.09-.12l-.1,16.64-86-.53.1-16.64a10,10,0,0,0-20.09-.12l-.1,16.64-86-.53.1-16.64A10,10,0,0,0,70.46,10l-.1,16.64-41.79-.26A26.65,26.65,0,0,0,1.79,52.82L0,345.17A26.65,26.65,0,0,0,26.46,372l315.88,1.93a26.65,26.65,0,0,0,26.78-26.46l1.79-292.34A26.65,26.65,0,0,0,344.45,28.3Zm4.59,319a6.55,6.55,0,0,1-6.58,6.49L26.58,351.86a6.54,6.54,0,0,1-6.49-6.57l1.43-234.36,329,2Zm1.55-254.45-328.94-2,.23-37.9a6.54,6.54,0,0,1,6.57-6.49l41.79.26-.06,9.54a10,10,0,1,0,20.09.12l0-9.54,86,.53-.06,9.54a10,10,0,0,0,20.09.12l.06-9.54,86,.53-.06,9.54a10,10,0,0,0,20.09.12l.06-9.54,41.78.25A6.54,6.54,0,0,1,350.82,55Z"/><path class="cls-2" d="M266.52,200.51a48.26,48.26,0,0,1-14.46,34.29L190.6,294.94a8.12,8.12,0,0,1-11.41-.06L118.5,234a48.57,48.57,0,0,1,67.2-70.11,47.93,47.93,0,0,1,32.49-12.32A48.69,48.69,0,0,1,266.52,200.51Z"/></svg>