<svg id="Camada_1" data-name="Camada 1" xmlns="http://www.w3.org/2000/svg" viewBox="0 0 352 352"><defs><style>.cls-1{fill:#fff;}</style></defs><title>vantangens</title><path class="cls-1" d="M352,136a8,8,0,0,0-3.2-6.35L320,108V32A32,32,0,0,0,288,0H64A32,32,0,0,0,32,32v76L3.2,129.6A8,8,0,0,0,0,136s0,0,0,.05H0V320a32,32,0,0,0,32,32H320a32,32,0,0,0,32-32V136h0S352,136,352,136ZM48,32A16,16,0,0,1,64,16H288a16,16,0,0,1,16,16V157c-37.14,29-93.54,73.57-117.1,94.42A17.3,17.3,0,0,1,175.75,256c-3.8,0-7.46-1.54-10.9-4.59C141.13,230.41,85,186,48,157ZM336,320a16,16,0,0,1-16,16H32a16,16,0,0,1-16-16V152.34c33.37,26,110.57,86.54,138.24,111.06C160.6,269,168,272,175.75,272a33,33,0,0,0,21.76-8.6C226.27,237.93,305,176.42,336,152.33Z"/><path class="cls-1" d="M249,100.1a43.46,43.46,0,0,1-12.83,31l-55,54.51a7.29,7.29,0,0,1-10.28,0l-55-54.5a43.4,43.4,0,0,1-12.86-31,43.84,43.84,0,0,1,43.8-43.8A43.17,43.17,0,0,1,176,67.57,43.17,43.17,0,0,1,205.2,56.3,43.84,43.84,0,0,1,249,100.1Z"/></svg>