<svg id="Camada_1" data-name="Camada 1" xmlns="http://www.w3.org/2000/svg" viewBox="0 0 366.6 200.55"><defs><style>.cls-1{fill:#fff;}.cls-2{fill:#ffc7c7;}</style></defs><title>vantangens</title><path class="cls-1" d="M350.48,46.05c-9.91-10.72-24-16.65-39.68-16.65H273.07V9a9,9,0,0,0-9-9H84.37a9,9,0,0,0-9,9V40.35h-35a9,9,0,0,0,0,18h44.1a9,9,0,0,0,9-9V18h161.7V159.08H170.4a6.13,6.13,0,0,0-1.13.07,30.17,30.17,0,0,0-56.09.15,8.7,8.7,0,0,0-2-.22H93.45V127.65a9,9,0,0,0-9-9H40.35a9,9,0,1,0,0,18h35V168a9,9,0,0,0,9,9h27.38a30.22,30.22,0,0,0,58.95,0H278.55a30.22,30.22,0,0,0,58.95,0h20.1a9,9,0,0,0,9-9V93.23c0-19.43-5.62-35.78-16.12-47.18ZM141.23,182.63a12.23,12.23,0,1,1,12.22-12.23,12.24,12.24,0,0,1-12.22,12.23Zm166.79,0a12.23,12.23,0,1,1,12.23-12.23A12.23,12.23,0,0,1,308,182.63Zm40.58-23.55H336a30.15,30.15,0,0,0-55.95,0h-6.9V47.4h37.73c23.62,0,37.72,17.18,37.72,45.9Zm0,0"/><path class="cls-2" d="M154.57,105.38A9,9,0,0,0,161,120.75a9.17,9.17,0,0,0,6.37-2.62L190.5,95l.07-.07c.16-.23.38-.38.53-.6s.15-.23.22-.38a1.45,1.45,0,0,1,.31-.37c.07-.15.14-.3.22-.45s.15-.23.22-.38.16-.3.23-.45.15-.22.15-.37.07-.3.15-.45.08-.3.15-.38a1,1,0,0,0,.07-.45c0-.15.08-.3.08-.45s.08-.3.08-.52.07-.23.07-.38a7.74,7.74,0,0,0,0-1.8.7.7,0,0,0-.07-.37c0-.15-.08-.3-.08-.53s-.08-.3-.08-.45-.07-.3-.07-.45-.07-.3-.15-.37-.08-.3-.15-.45a.76.76,0,0,1-.15-.38c-.07-.15-.15-.3-.23-.45s-.14-.22-.22-.37-.15-.3-.22-.45a1.3,1.3,0,0,0-.31-.38c-.07-.15-.14-.22-.22-.37s-.37-.38-.53-.6l-.07-.08-22.05-22A9,9,0,0,0,155.7,72.45l6.68,6.68H9a9,9,0,0,0,0,18H162.3Zm0,0"/></svg>