<?xml version="1.0" standalone="no"?>
<!DOCTYPE svg PUBLIC "-//W3C//DTD SVG 1.1//EN" "http://www.w3.org/Graphics/SVG/1.1/DTD/svg11.dtd" >
<svg xmlns="http://www.w3.org/2000/svg">
<metadata>
<json>
<![CDATA[
{
	"fontFamily": "Layout-Precode",
	"majorVersion": 1,
	"minorVersion": 0,
	"designer": "Marco Antonio",
	"version": "Version 1.0",
	"fontId": "Layout-Precode",
	"psName": "Layout-Precode",
	"subFamily": "Regular",
	"fullName": "Layout-Precode",
	"description": "Font generated by IcoMoon."
}
]]>
</json>
</metadata>
<defs>
<font id="Layout-Precode" horiz-adv-x="1024">
<font-face units-per-em="1024" ascent="960" descent="-64" />
<missing-glyph horiz-adv-x="1024" />
<glyph unicode="&#x20;" horiz-adv-x="512" d="" />
<glyph unicode="&#xe900;" glyph-name="arrow-left-100" data-tags="arrow-left-100" d="M1009.371 464.091h-947.931l377.417 377.417c7.314 7.314 7.314 19.017 0 26.331s-19.017 7.314-26.331 0l-408.137-408.137c-7.314-7.314-7.314-19.017 0-26.331l408.137-408.137c2.926-2.926 8.777-5.851 13.166-5.851s8.777 1.463 13.166 5.851c7.314 7.314 7.314 19.017 0 26.331l-377.417 375.954h947.931c10.24 0 19.017 8.777 19.017 19.017s-8.777 17.554-19.017 17.554z" />
<glyph unicode="&#xe901;" glyph-name="arrow-left-300" data-tags="arrow-left-300" d="M978.651 490.423h-830.903l311.589 311.589c16.091 16.091 16.091 42.423 0 58.514s-42.423 16.091-58.514 0l-381.806-383.269c-16.091-16.091-16.091-42.423 0-58.514l381.806-381.806c8.777-8.777 19.017-11.703 29.257-11.703s20.48 4.389 29.257 11.703c16.091 16.091 16.091 42.423 0 58.514l-311.589 311.589h829.44c23.406 0 40.96 19.017 40.96 40.96 1.463 23.406-17.554 42.423-39.497 42.423z" />
<glyph unicode="&#xe902;" glyph-name="arrow-left-500" data-tags="arrow-left-500" d="M978.651 505.051h-803.109l294.034 294.034c20.48 20.48 20.48 52.663 0 73.143s-52.663 20.48-73.143 0l-381.806-381.806c-20.48-20.48-20.48-52.663 0-73.143l381.806-381.806c10.24-10.24 23.406-14.629 36.571-14.629s26.331 4.389 36.571 14.629c20.48 20.48 20.48 52.663 0 73.143l-294.034 294.034h803.109c27.794 0 51.2 23.406 51.2 51.2s-21.943 51.2-51.2 51.2z" />
<glyph unicode="&#xe903;" glyph-name="arrow-right-100" data-tags="arrow-right-100" d="M17.554 464.091h946.469l-375.954 377.417c-7.314 7.314-7.314 19.017 0 26.331s19.017 7.314 26.331 0l408.137-408.137c7.314-7.314 7.314-19.017 0-26.331l-408.137-408.137c-2.926-2.926-8.777-5.851-13.166-5.851s-8.777 1.463-13.166 5.851c-7.314 7.314-7.314 19.017 0 26.331l375.954 375.954h-946.469c-10.24 0-19.017 8.777-19.017 19.017s8.777 17.554 19.017 17.554z" />
<glyph unicode="&#xe904;" glyph-name="arrow-right-300" data-tags="arrow-right-300" d="M35.109 486.034h838.217l-314.514 314.514c-16.091 16.091-16.091 42.423 0 58.514s42.423 16.091 58.514 0l386.194-386.194c16.091-16.091 16.091-42.423 0-58.514l-384.731-386.194c-8.777-8.777-19.017-11.703-29.257-11.703s-21.943 4.389-29.257 11.703c-16.091 16.091-16.091 42.423 0 58.514l314.514 314.514h-839.68c-23.406 0-42.423 19.017-42.423 42.423s19.017 42.423 42.423 42.423z" />
<glyph unicode="&#xe905;" glyph-name="arrow-right-500" data-tags="arrow-right-500" d="M49.737 500.663h794.331l-291.109 289.646c-20.48 20.48-20.48 52.663 0 71.68 20.48 20.48 52.663 20.48 71.68 0l377.417-377.417c20.48-20.48 20.48-52.663 0-71.68l-377.417-375.954c-10.24-10.24-23.406-14.629-36.571-14.629s-26.331 4.389-36.571 14.629c-20.48 20.48-20.48 52.663 0 71.68l289.646 289.646h-791.406c-27.794 0-51.2 23.406-51.2 51.2s21.943 51.2 51.2 51.2z" />
<glyph unicode="&#xe906;" glyph-name="bag-100" data-tags="bag-100" d="M806.034 728.869h-125.806v64.366c0 92.16-76.069 166.766-168.229 166.766s-168.229-74.606-168.229-168.229v-64.366h-125.806c-42.423 0-77.531-30.72-80.457-70.217l-43.886-642.194c-1.463-20.48 5.851-39.497 19.017-54.126 14.629-16.091 36.571-26.331 59.977-26.331h675.84c23.406 0 45.349 8.777 59.977 26.331 14.629 14.629 20.48 33.646 19.017 54.126l-43.886 642.194c0 40.96-35.109 71.68-77.531 71.68zM373.029 791.771c0 77.531 62.903 138.971 138.971 138.971s138.971-62.903 138.971-138.971v-64.366h-277.943v64.366zM889.417-18.651c-10.24-10.24-23.406-16.091-39.497-16.091h-675.84c-14.629 0-29.257 5.851-39.497 16.091-8.777 8.777-13.166 20.48-11.703 32.183l43.886 642.194c1.463 24.869 24.869 43.886 51.2 43.886h125.806v-125.806c0-7.314 5.851-14.629 14.629-14.629 7.314 0 14.629 5.851 14.629 14.629v125.806h277.943v-125.806c0-7.314 5.851-14.629 14.629-14.629 7.314 0 14.629 5.851 14.629 14.629v125.806h125.806c26.331 0 49.737-19.017 51.2-43.886l43.886-642.194c1.463-11.703-2.926-23.406-11.703-32.183z" />
<glyph unicode="&#xe907;" glyph-name="bag-300" data-tags="bag-300" d="M877.714 644.023c-2.926 45.349-42.423 80.457-90.697 80.457h-106.789v59.977c0 96.549-78.994 175.543-175.543 175.543s-175.543-78.994-175.543-175.543v-61.44h-106.789c-48.274 0-87.771-35.109-90.697-80.457l-42.423-615.863c-1.463-21.943 7.314-43.886 23.406-61.44 17.554-19.017 42.423-29.257 68.754-29.257h649.509c26.331 0 51.2 10.24 68.754 29.257 16.091 17.554 23.406 39.497 21.943 62.903l-43.886 615.863zM384.731 784.457c0 65.829 54.126 119.954 119.954 119.954s119.954-54.126 119.954-119.954v-61.44h-239.909v61.44zM857.234 3.291c-7.314-7.314-17.554-11.703-27.794-11.703h-649.509c-10.24 0-20.48 4.389-27.794 11.703-5.851 5.851-7.314 13.166-7.314 20.48l42.423 615.863c1.463 16.091 16.091 29.257 35.109 29.257h106.789v-92.16c0-14.629 11.703-27.794 27.794-27.794 14.629 0 27.794 11.703 27.794 27.794v92.16h239.909v-92.16c0-14.629 11.703-27.794 27.794-27.794 14.629 0 27.794 11.703 27.794 27.794v92.16h106.789c19.017 0 33.646-13.166 35.109-29.257l42.423-615.863c0-7.314-1.463-14.629-7.314-20.48z" />
<glyph unicode="&#xe908;" glyph-name="bag-500" data-tags="bag-500" d="M177.006-64h640.731c29.257 0 57.051 11.703 77.531 33.646 19.017 20.48 27.794 45.349 26.331 71.68l-43.886 607.086c-2.926 51.2-48.274 92.16-102.4 92.16h-92.16v33.646c0 102.4-83.383 185.783-187.246 185.783s-185.783-83.383-185.783-185.783v-33.646h-92.16c-54.126 0-99.474-40.96-102.4-92.16l-42.423-607.086c-1.463-26.331 7.314-51.2 26.331-71.68 19.017-21.943 46.811-33.646 77.531-33.646zM392.046 774.217c0 57.051 46.811 103.863 103.863 103.863s103.863-46.811 103.863-103.863v-33.646h-207.726v33.646zM197.486 642.56c0 8.777 10.24 16.091 21.943 16.091h92.16v-92.16c0-21.943 19.017-40.96 40.96-40.96s40.96 19.017 40.96 40.96v92.16h209.189v-92.16c0-21.943 19.017-40.96 40.96-40.96s40.96 19.017 40.96 40.96v92.16h90.697c11.703 0 20.48-7.314 21.943-16.091l42.423-608.549c0-4.389-1.463-7.314-4.389-10.24-4.389-4.389-10.24-7.314-17.554-7.314h-640.731c-7.314 0-13.166 2.926-17.554 7.314-1.463 1.463-4.389 5.851-4.389 10.24l42.423 608.549z" />
<glyph unicode="&#xe909;" glyph-name="bag-solid" data-tags="bag-solid" d="M863.086 632.32c-1.463 30.72-30.72 55.589-64.366 55.589h-96.549c0 0 0 0 0 0v77.531c0 106.789-86.309 194.56-193.097 194.56s-194.56-87.771-194.56-194.56v-77.531c0 0 0 0 0 0h-95.086c-33.646 0-62.903-24.869-64.366-55.589l-43.886-633.417c-2.926-33.646 26.331-62.903 64.366-62.903h667.063c38.034 0 67.291 29.257 64.366 62.903l-43.886 633.417zM399.36 765.44c0 59.977 48.274 108.251 108.251 108.251s108.251-48.274 108.251-108.251v-77.531c0 0 0 0 0 0h-216.503c0 0 0 0 0 0v77.531z" />
<glyph unicode="&#xe90a;" glyph-name="bagtwo-100" data-tags="bagtwo-100" d="M846.994 9.143h-672.914c-21.943 0-43.886 8.777-59.977 26.331s-23.406 38.034-21.943 61.44l43.886 694.857c2.926 42.423 38.034 76.069 80.457 76.069h585.143c42.423 0 78.994-33.646 80.457-76.069l43.886-694.857c1.463-21.943-5.851-43.886-21.943-61.44-13.166-17.554-33.646-26.331-57.051-26.331zM217.966 835.657c-26.331 0-48.274-20.48-49.737-46.811l-43.886-694.857c-1.463-13.166 4.389-26.331 13.166-36.571s21.943-16.091 36.571-16.091h674.377c13.166 0 26.331 5.851 36.571 16.091 8.777 10.24 14.629 23.406 13.166 36.571l-43.886 694.857c-1.463 26.331-23.406 46.811-49.737 46.811h-586.606zM517.851 411.429c-86.309 0-157.989 70.217-157.989 157.989v118.491c0 8.777 7.314 16.091 16.091 16.091s16.091-7.314 16.091-16.091v-118.491c0-68.754 57.051-125.806 125.806-125.806s125.806 57.051 125.806 125.806v118.491c0 8.777 7.314 16.091 16.091 16.091s16.091-7.314 16.091-16.091v-118.491c0-87.771-70.217-157.989-157.989-157.989z" />
<glyph unicode="&#xe90b;" glyph-name="bagtwo-300" data-tags="bagtwo-300" d="M814.811 809.326c2.926 0 4.389-1.463 4.389-4.389l46.811-722.651c0 0 0-1.463-1.463-2.926s-2.926-1.463-2.926-1.463h-700.709c0 0-1.463 0-2.926 1.463s-1.463 2.926-1.463 2.926l45.349 722.651c0 2.926 1.463 4.389 4.389 4.389h608.549zM814.811 872.229h-608.549c-36.571 0-65.829-27.794-67.291-64.366l-46.811-722.651c-2.926-39.497 29.257-71.68 67.291-71.68h700.709c39.497 0 70.217 33.646 67.291 71.68l-45.349 722.651c-1.463 36.571-30.72 64.366-67.291 64.366v0zM517.851 399.726c-98.011 0-178.469 80.457-178.469 178.469v122.88c0 17.554 14.629 32.183 32.183 32.183s32.183-14.629 32.183-32.183v-121.417c0-62.903 51.2-115.566 115.566-115.566 62.903 0 115.566 51.2 115.566 115.566v122.88c0 17.554 14.629 32.183 32.183 32.183s32.183-14.629 32.183-32.183v-122.88c-1.463-99.474-81.92-179.931-181.394-179.931z" />
<glyph unicode="&#xe90c;" glyph-name="bagtwo-500" data-tags="bagtwo-500" d="M823.589 16.457h-629.029c-29.257 0-57.051 11.703-77.531 33.646-20.48 20.48-30.72 49.737-27.794 78.994l40.96 649.509c2.926 55.589 49.737 99.474 105.326 99.474h547.109c55.589 0 102.4-43.886 105.326-99.474l40.96-649.509c1.463-29.257-8.777-57.051-27.794-78.994-20.48-21.943-48.274-33.646-77.531-33.646zM235.52 787.383c-8.777 0-16.091-7.314-16.091-16.091l-40.96-649.509c0-5.851 2.926-10.24 4.389-13.166 1.463-1.463 5.851-5.851 11.703-5.851h629.029c5.851 0 10.24 2.926 11.703 5.851 1.463 1.463 4.389 5.851 4.389 13.166l-40.96 649.509c0 8.777-7.314 16.091-16.091 16.091h-547.109zM516.389 392.411c-98.011 0-177.006 78.994-177.006 177.006v109.714c0 24.869 20.48 43.886 43.886 43.886 24.869 0 43.886-20.48 43.886-43.886v-109.714c0-48.274 39.497-87.771 87.771-87.771s87.771 39.497 87.771 87.771v109.714c0 24.869 20.48 43.886 43.886 43.886s43.886-20.48 43.886-43.886v-109.714c1.463-98.011-77.531-177.006-174.080-177.006z" />
<glyph unicode="&#xe90d;" glyph-name="bagtwo-solid" data-tags="bagtwo-solid" d="M882.103 813.714c-2.926 36.571-32.183 64.366-68.754 64.366h-610.011c-36.571 0-65.829-27.794-68.754-64.366l-45.349-727.040c-2.926-39.497 29.257-73.143 68.754-73.143h703.634c39.497 0 70.217 33.646 68.754 73.143l-48.274 727.040zM713.874 582.583c0-108.251-89.234-197.486-197.486-197.486s-197.486 89.234-197.486 197.486v122.88c0 27.794 21.943 49.737 49.737 49.737s49.737-21.943 49.737-49.737v-122.88c0-54.126 43.886-98.011 98.011-98.011s98.011 43.886 98.011 98.011v122.88c0 27.794 21.943 49.737 49.737 49.737s49.737-21.943 49.737-49.737v-122.88z" />
<glyph unicode="&#xe90e;" glyph-name="barcode-100" data-tags="barcode-100" d="M953.783 36.937h-883.566c-38.034 0-70.217 30.72-70.217 70.217v681.691c0 39.497 32.183 70.217 70.217 70.217h882.103c39.497 0 70.217-32.183 70.217-70.217v-681.691c1.463-39.497-30.72-70.217-68.754-70.217zM70.217 812.251c-13.166 0-23.406-10.24-23.406-23.406v-681.691c0-13.166 10.24-23.406 23.406-23.406h882.103c13.166 0 23.406 10.24 23.406 23.406v681.691c0 13.166-10.24 23.406-23.406 23.406h-882.103zM217.966 654.263h74.606c8.777 0 14.629-7.314 14.629-14.629v-380.343c0-8.777-7.314-14.629-14.629-14.629h-76.069c-8.777 0-14.629 7.314-14.629 14.629v378.88c0 8.777 7.314 16.091 16.091 16.091zM373.029 654.263h24.869c8.777 0 14.629-7.314 14.629-14.629v-380.343c0-8.777-7.314-14.629-14.629-14.629h-24.869c-8.777 0-14.629 7.314-14.629 14.629v378.88c-1.463 8.777 5.851 16.091 14.629 16.091zM478.354 654.263h21.943c8.777 0 14.629-7.314 14.629-14.629v-380.343c0-8.777-7.314-14.629-14.629-14.629h-21.943c-8.777 0-14.629 7.314-14.629 14.629v378.88c0 8.777 5.851 16.091 14.629 16.091zM577.829 654.263h74.606c8.777 0 14.629-7.314 14.629-14.629v-380.343c0-8.777-7.314-14.629-14.629-14.629h-74.606c-8.777 0-14.629 7.314-14.629 14.629v378.88c0 8.777 7.314 16.091 14.629 16.091zM731.429 654.263h74.606c8.777 0 14.629-7.314 14.629-14.629v-380.343c0-8.777-7.314-14.629-14.629-14.629h-74.606c-8.777 0-14.629 7.314-14.629 14.629v378.88c0 8.777 7.314 16.091 14.629 16.091z" />
<glyph unicode="&#xe90f;" glyph-name="barcode-300" data-tags="barcode-300" d="M931.84 32.549h-838.217c-51.2 0-92.16 40.96-92.16 92.16v646.583c0 51.2 40.96 92.16 92.16 92.16h836.754c51.2 0 92.16-40.96 92.16-92.16v-646.583c1.463-51.2-39.497-92.16-90.697-92.16zM96.549 127.634h832.366v640.731h-832.366v-640.731zM234.057 642.56h71.68c8.777 0 14.629-5.851 14.629-14.629v-361.326c0-8.777-5.851-14.629-14.629-14.629h-71.68c-8.777 0-14.629 5.851-14.629 14.629v361.326c0 8.777 5.851 14.629 14.629 14.629zM381.806 642.56h23.406c8.777 0 14.629-5.851 14.629-14.629v-361.326c0-8.777-5.851-14.629-14.629-14.629h-23.406c-8.777 0-14.629 5.851-14.629 14.629v361.326c0 8.777 5.851 14.629 14.629 14.629zM481.28 642.56h20.48c8.777 0 14.629-5.851 14.629-14.629v-361.326c0-8.777-5.851-14.629-14.629-14.629h-20.48c-8.777 0-14.629 5.851-14.629 14.629v361.326c0 8.777 5.851 14.629 14.629 14.629zM576.366 642.56h70.217c8.777 0 14.629-5.851 14.629-14.629v-361.326c0-8.777-5.851-14.629-14.629-14.629h-70.217c-8.777 0-14.629 5.851-14.629 14.629v361.326c0 8.777 5.851 14.629 14.629 14.629zM721.189 642.56h70.217c8.777 0 14.629-5.851 14.629-14.629v-361.326c0-8.777-5.851-14.629-14.629-14.629h-70.217c-8.777 0-14.629 5.851-14.629 14.629v361.326c0 8.777 7.314 14.629 14.629 14.629z" />
<glyph unicode="&#xe910;" glyph-name="barcode-500" data-tags="barcode-500" d="M912.823 20.846h-800.183c-61.44 0-111.177 49.737-111.177 111.177v618.789c0 61.44 49.737 111.177 111.177 111.177h800.183c61.44 0 111.177-49.737 111.177-111.177v-618.789c0-61.44-49.737-111.177-111.177-111.177zM137.509 156.891h748.983v569.051h-748.983v-569.051zM245.76 627.931h68.754c7.314 0 13.166-5.851 13.166-13.166v-345.234c0-7.314-5.851-13.166-13.166-13.166h-68.754c-7.314 0-13.166 5.851-13.166 13.166v343.771c0 8.777 5.851 14.629 13.166 14.629zM386.194 627.931h23.406c7.314 0 13.166-5.851 13.166-13.166v-345.234c0-7.314-5.851-13.166-13.166-13.166h-21.943c-7.314 0-13.166 5.851-13.166 13.166v343.771c-1.463 8.777 4.389 14.629 11.703 14.629zM482.743 627.931h20.48c7.314 0 13.166-5.851 13.166-13.166v-345.234c0-7.314-5.851-13.166-13.166-13.166h-20.48c-7.314 0-13.166 5.851-13.166 13.166v343.771c-1.463 8.777 5.851 14.629 13.166 14.629zM573.44 627.931h67.291c7.314 0 13.166-5.851 13.166-13.166v-345.234c0-7.314-5.851-13.166-13.166-13.166h-67.291c-7.314 0-13.166 5.851-13.166 13.166v343.771c-1.463 8.777 5.851 14.629 13.166 14.629zM712.411 627.931h67.291c7.314 0 13.166-5.851 13.166-13.166v-345.234c0-7.314-5.851-13.166-13.166-13.166h-67.291c-7.314 0-13.166 5.851-13.166 13.166v343.771c0 8.777 5.851 14.629 13.166 14.629z" />
<glyph unicode="&#xe911;" glyph-name="card-300" data-tags="card-300" d="M920.137 791.771h-817.737c-57.051 0-102.4-45.349-102.4-102.4v-482.743c0-57.051 45.349-102.4 102.4-102.4h817.737c57.051 0 102.4 45.349 102.4 102.4v482.743c0 57.051-46.811 102.4-102.4 102.4zM102.4 717.166h817.737c16.091 0 27.794-13.166 27.794-27.794v-73.143h-873.326v73.143c0 16.091 11.703 27.794 27.794 27.794zM920.137 178.834h-817.737c-16.091 0-27.794 13.166-27.794 27.794v336.457h873.326v-336.457c0-16.091-13.166-27.794-27.794-27.794zM433.006 336.823h-257.463c-20.48 0-36.571-16.091-36.571-36.571s16.091-36.571 36.571-36.571h258.926c20.48 0 36.571 16.091 36.571 36.571s-17.554 36.571-38.034 36.571z" />
<glyph unicode="&#xe912;" glyph-name="card-500" data-tags="card-500" d="M901.12 803.474h-785.554c-64.366 0-115.566-52.663-115.566-115.566v-463.726c0-64.366 52.663-115.566 115.566-115.566h784.091c64.366 0 115.566 52.663 115.566 115.566v463.726c1.463 62.903-51.2 115.566-114.103 115.566zM115.566 696.686h784.091c4.389 0 8.777-4.389 8.777-8.777v-52.663h-801.646v52.663c0 4.389 4.389 8.777 8.777 8.777zM901.12 213.943h-785.554c-4.389 0-8.777 4.389-8.777 8.777v305.737h803.109v-304.274c0-5.851-4.389-10.24-8.777-10.24zM434.469 366.080h-248.686c-29.257 0-54.126-23.406-54.126-54.126s23.406-54.126 54.126-54.126h248.686c29.257 0 54.126 23.406 54.126 54.126s-24.869 54.126-54.126 54.126z" />
<glyph unicode="&#xe913;" glyph-name="card-solid" data-tags="card-solid" d="M1025.463 682.057v-52.663h-1024v52.663c0 64.366 52.663 117.029 117.029 117.029h789.943c64.366-1.463 117.029-52.663 117.029-117.029zM1.463 521.143v-307.2c0-64.366 52.663-117.029 117.029-117.029h789.943c64.366 0 117.029 52.663 117.029 117.029v307.2h-1024zM438.857 250.514h-250.149c-29.257 0-54.126 23.406-54.126 54.126 0 29.257 23.406 54.126 54.126 54.126h250.149c29.257 0 54.126-24.869 54.126-54.126 0-30.72-24.869-54.126-54.126-54.126z" />
<glyph unicode="&#xe914;" glyph-name="clock-100" data-tags="clock-100" d="M512 960c-282.331 0-512-229.669-512-512s229.669-512 512-512 512 229.669 512 512-229.669 512-512 512zM512-21.577c-258.926 0-469.577 210.651-469.577 469.577s210.651 469.577 469.577 469.577 469.577-210.651 469.577-469.577-210.651-469.577-469.577-469.577zM536.869 456.777v301.349c0 11.703-8.777 20.48-20.48 20.48s-20.48-8.777-20.48-20.48v-311.589c0-5.851 2.926-11.703 7.314-16.091l131.657-108.251c4.389-2.926 8.777-4.389 13.166-4.389 5.851 0 11.703 2.926 16.091 7.314 7.314 8.777 5.851 21.943-2.926 29.257l-124.343 102.4z" />
<glyph unicode="&#xe915;" glyph-name="clock-300" data-tags="clock-300" d="M512 960c-282.331 0-512-229.669-512-512s229.669-512 512-512 512 229.669 512 512-229.669 512-512 512zM512 16.457c-238.446 0-431.543 193.097-431.543 431.543s193.097 431.543 431.543 431.543 431.543-193.097 431.543-431.543-193.097-431.543-431.543-431.543zM555.886 465.554v280.869c0 21.943-17.554 40.96-40.96 40.96s-40.96-17.554-40.96-40.96v-298.423c0-11.703 5.851-23.406 14.629-30.72l127.269-103.863c7.314-5.851 16.091-8.777 24.869-8.777 11.703 0 23.406 4.389 30.72 14.629 14.629 17.554 11.703 42.423-5.851 57.051l-109.714 89.234z" />
<glyph unicode="&#xe916;" glyph-name="clock-500" data-tags="clock-500" d="M510.537 958.537c-280.869 0-510.537-228.206-510.537-510.537s229.669-510.537 510.537-510.537 512 228.206 512 510.537-229.669 510.537-512 510.537zM510.537 53.029c-217.966 0-394.971 177.006-394.971 394.971s177.006 394.971 394.971 394.971 394.971-177.006 394.971-394.971-177.006-394.971-394.971-394.971zM573.44 474.331v260.389c0 32.183-26.331 58.514-58.514 58.514s-58.514-26.331-58.514-58.514v-286.72c0-17.554 7.314-33.646 21.943-45.349l121.417-100.937c10.24-8.777 23.406-13.166 36.571-13.166 16.091 0 33.646 7.314 45.349 21.943 20.48 24.869 16.091 61.44-8.777 81.92l-99.474 81.92z" />
<glyph unicode="&#xe917;" glyph-name="exit-100" data-tags="exit-100" d="M678.766 0.366h-631.954v895.269h631.954c11.703 0 20.48 8.777 20.48 20.48s-8.777 20.48-20.48 20.48h-652.434c-11.703 1.463-20.48-8.777-20.48-20.48v-936.229c0-11.703 8.777-20.48 20.48-20.48h652.434c11.703 0 20.48 8.777 20.48 20.48s-8.777 20.48-20.48 20.48zM735.817 737.646c-8.777 8.777-21.943 8.777-29.257 0-8.777-8.777-8.777-21.943 0-29.257l244.297-244.297h-588.069c-11.703 0-20.48-8.777-20.48-20.48s8.777-20.48 20.48-20.48h580.754l-228.206-231.131c-8.777-8.777-8.777-21.943 0-29.257 4.389-4.389 8.777-5.851 14.629-5.851s10.24 1.463 14.629 5.851l264.777 264.777c0 0 0 0 0 0l2.926 2.926c8.777 8.777 8.777 21.943 0 29.257l-276.48 277.943z" />
<glyph unicode="&#xe918;" glyph-name="exit-300" data-tags="exit-300" d="M715.337-6.949c0 21.943-19.017 40.96-40.96 40.96h-592.457v827.977h592.457c21.943 0 40.96 19.017 40.96 40.96s-19.017 40.96-40.96 40.96h-633.417c-21.943-1.463-40.96-19.017-40.96-42.423v-909.897c0-21.943 19.017-40.96 40.96-40.96h633.417c21.943 1.463 40.96 19.017 40.96 42.423zM694.857 156.891c7.314-7.314 19.017-11.703 29.257-11.703s20.48 4.389 29.257 11.703l256 256c0 0 0 0 0 0l2.926 2.926c16.091 16.091 16.091 42.423 0 57.051l-269.166 269.166c-16.091 16.091-42.423 16.091-57.051 0-16.091-16.091-16.091-42.423 0-57.051l201.874-201.874h-520.777c-21.943 0-40.96-19.017-40.96-40.96s19.017-40.96 40.96-40.96h513.463l-185.783-187.246c-16.091-16.091-16.091-40.96 0-57.051z" />
<glyph unicode="&#xe919;" glyph-name="exit-500" data-tags="exit-500" d="M58.514-47.909h608.549c32.183 0 58.514 26.331 58.514 58.514s-26.331 58.514-58.514 58.514h-548.571v757.76h550.034c32.183 0 58.514 26.331 58.514 58.514s-26.331 58.514-58.514 58.514h-610.011c-32.183 0-58.514-26.331-58.514-58.514v-874.789c0-32.183 26.331-58.514 58.514-58.514zM1006.446 487.497l-257.463 257.463c-23.406 23.406-59.977 23.406-83.383 0s-23.406-59.977 0-83.383l160.914-160.914h-453.486c-32.183 0-58.514-26.331-58.514-58.514s26.331-58.514 58.514-58.514h446.171l-146.286-146.286c-23.406-23.406-23.406-59.977 0-83.383 11.703-11.703 26.331-17.554 40.96-17.554s30.72 5.851 40.96 17.554l247.223 247.223c0 0 0 0 0 0l2.926 2.926c24.869 23.406 24.869 59.977 1.463 83.383z" />
<glyph unicode="&#xe91a;" glyph-name="eye-100" data-tags="eye-100" d="M512 96.914c-364.251 0-504.686 364.251-506.149 368.64s-1.463 8.777 1.463 11.703c1.463 2.926 185.783 321.829 504.686 321.829s503.223-318.903 506.149-321.829c1.463-4.389 2.926-8.777 1.463-11.703-2.926-4.389-143.36-368.64-507.611-368.64zM35.109 468.48c20.48-46.811 159.451-342.309 476.891-342.309 318.903 0 456.411 295.497 476.891 342.309-26.331 43.886-198.949 301.349-476.891 301.349s-450.56-257.463-476.891-301.349zM512 265.143c-100.937 0-182.857 81.92-182.857 182.857s81.92 182.857 182.857 182.857 182.857-81.92 182.857-182.857c0-100.937-81.92-182.857-182.857-182.857zM512 601.6c-84.846 0-153.6-68.754-153.6-153.6s68.754-153.6 153.6-153.6 153.6 68.754 153.6 153.6c0 84.846-68.754 153.6-153.6 153.6z" />
<glyph unicode="&#xe91b;" glyph-name="eye-300" data-tags="eye-300" d="M512 89.6c-367.177 0-507.611 365.714-509.074 370.103-2.926 7.314-2.926 17.554 1.463 24.869 7.314 13.166 187.246 321.829 507.611 321.829s500.297-308.663 507.611-321.829c4.389-7.314 4.389-16.091 1.463-24.869-1.463-4.389-143.36-370.103-509.074-370.103zM61.44 465.554c26.331-61.44 156.526-318.903 450.56-318.903s424.229 257.463 450.56 320.366c-35.109 52.663-197.486 280.869-450.56 280.869-254.537 0-415.451-228.206-450.56-282.331zM512 253.44c-106.789 0-193.097 86.309-193.097 193.097s86.309 193.097 193.097 193.097 193.097-86.309 193.097-193.097c0-106.789-87.771-193.097-193.097-193.097zM512 582.583c-74.606 0-136.046-61.44-136.046-136.046s61.44-136.046 136.046-136.046 136.046 61.44 136.046 136.046c0 74.606-61.44 136.046-136.046 136.046z" />
<glyph unicode="&#xe91c;" glyph-name="eye-500" data-tags="eye-500" d="M510.537 85.211c-367.177 0-507.611 365.714-509.074 368.64-4.389 11.703-2.926 24.869 2.926 35.109 7.314 14.629 185.783 321.829 506.149 321.829s498.834-307.2 506.149-320.366c5.851-10.24 7.314-23.406 2.926-35.109-1.463-4.389-143.36-370.103-509.074-370.103zM87.771 465.554c30.72-68.754 155.063-296.96 422.766-296.96s392.046 228.206 422.766 295.497c-40.96 61.44-191.634 263.314-422.766 263.314-232.594 0-383.269-201.874-422.766-261.851zM39.497 469.943v0 0zM510.537 246.126c-111.177 0-201.874 90.697-201.874 201.874s90.697 201.874 201.874 201.874 201.874-90.697 201.874-201.874c0-111.177-90.697-201.874-201.874-201.874zM510.537 566.491c-65.829 0-118.491-52.663-118.491-118.491s52.663-118.491 118.491-118.491 118.491 52.663 118.491 118.491-54.126 118.491-118.491 118.491z" />
<glyph unicode="&#xe91d;" glyph-name="eyeno-100" data-tags="eyeno-100" d="M513.463 124.709c-318.903 0-457.874 295.497-478.354 343.771 16.091 24.869 81.92 124.343 190.171 201.874l-20.48 21.943c-127.269-92.16-197.486-212.114-198.949-215.040-1.463-4.389-2.926-8.777-1.463-13.166s143.36-370.103 509.074-370.103c90.697 0 166.766 21.943 231.131 55.589l-21.943 21.943c-58.514-26.331-127.269-46.811-209.189-46.811zM1022.537 477.257c-1.463 2.926-187.246 321.829-507.611 321.829-99.474 0-185.783-30.72-257.463-73.143l-81.92 81.92c-5.851 5.851-14.629 5.851-20.48 0s-5.851-14.629 0-20.48l696.32-696.32c2.926-2.926 7.314-4.389 10.24-4.389 4.389 0 7.314 1.463 10.24 4.389 5.851 5.851 5.851 14.629 0 20.48l-73.143 73.143c157.989 108.251 223.817 277.943 223.817 280.869 1.463 4.389 1.463 8.777 0 11.703zM415.451 566.491c26.331 21.943 61.44 35.109 98.011 35.109 84.846 0 153.6-68.754 153.6-153.6 0-36.571-13.166-71.68-35.109-98.011l-216.503 216.503zM778.24 205.166l-124.343 124.343c27.794 32.183 43.886 73.143 43.886 118.491 0 100.937-81.92 182.857-182.857 182.857-45.349 0-86.309-16.091-118.491-43.886l-117.029 117.029c67.291 38.034 146.286 65.829 236.983 65.829 279.406 0 452.023-258.926 478.354-301.349-16.091-30.72-81.92-171.154-216.503-263.314zM355.474 541.623c-16.091-27.794-24.869-58.514-24.869-93.623 0-100.937 81.92-182.857 182.857-182.857 33.646 0 65.829 8.777 93.623 24.869l-21.943 21.943c-21.943-11.703-45.349-17.554-71.68-17.554-84.846 0-153.6 68.754-153.6 153.6 0 26.331 5.851 49.737 17.554 71.68l-21.943 21.943z" />
<glyph unicode="&#xe91e;" glyph-name="eyeno-300" data-tags="eyeno-300" d="M1022.537 459.703c2.926 7.314 2.926 17.554-1.463 24.869-7.314 13.166-187.246 321.829-506.149 321.829-96.549 0-179.931-27.794-250.149-67.291l-70.217 70.217c-11.703 11.703-29.257 11.703-40.96 0s-11.703-29.257 0-40.96l678.766-678.766c5.851-5.851 13.166-8.777 20.48-8.777s14.629 2.926 20.48 8.777c11.703 11.703 11.703 29.257 0 40.96l-59.977 59.977c146.286 106.789 207.726 266.24 209.189 269.166zM627.566 374.857l-187.246 187.246c20.48 13.166 46.811 21.943 73.143 21.943 74.606 0 136.046-61.44 136.046-136.046 0-27.794-8.777-52.663-21.943-73.143zM772.389 228.571l-103.863 103.863c23.406 32.183 38.034 71.68 38.034 114.103 0 106.789-86.309 193.097-193.097 193.097-42.423 0-83.383-14.629-114.103-38.034l-92.16 93.623c59.977 30.72 128.731 52.663 206.263 52.663 253.074 0 413.989-226.743 450.56-280.869-17.554-39.497-76.069-156.526-191.634-238.446zM513.463 148.114c-292.571 0-422.766 257.463-450.56 318.903 17.554 27.794 67.291 98.011 143.36 160.914l-40.96 40.96c-99.474-83.383-155.063-177.006-157.989-184.32-4.389-7.314-4.389-16.091-1.463-24.869 1.463-4.389 143.36-368.64 509.074-368.64 73.143 0 137.509 14.629 193.097 38.034l-43.886 43.886c-45.349-16.091-95.086-24.869-150.674-24.869zM329.143 505.051c-5.851-17.554-8.777-38.034-8.777-57.051 0-106.789 86.309-193.097 193.097-193.097 20.48 0 39.497 2.926 57.051 8.777l-48.274 48.274c-2.926 0-5.851 0-8.777 0-74.606 0-136.046 61.44-136.046 136.046 0 2.926 0 5.851 0 8.777l-48.274 48.274z" />
<glyph unicode="&#xe91f;" glyph-name="eyeno-500" data-tags="eyeno-500" d="M512 153.966c-267.703 0-392.046 228.206-422.766 296.96 19.017 27.794 59.977 84.846 122.88 138.971l-59.977 59.977c-92.16-81.92-143.36-168.229-146.286-174.080-5.851-10.24-7.314-23.406-2.926-35.109 1.463-5.851 141.897-371.566 509.074-371.566 70.217 0 131.657 13.166 184.32 35.109l-65.829 65.829c-35.109-10.24-74.606-16.091-118.491-16.091zM1021.074 439.223c4.389 11.703 2.926 24.869-2.926 35.109-7.314 13.166-185.783 320.366-506.149 320.366-80.457 0-150.674-19.017-213.577-48.274l-67.291 67.291c-16.091 16.091-42.423 16.091-58.514 0s-16.091-42.423 0-58.514l664.137-664.137c8.777-8.777 19.017-11.703 29.257-11.703s21.943 4.389 29.257 11.703c16.091 16.091 16.091 42.423 0 58.514l-46.811 48.274c119.954 105.326 172.617 238.446 172.617 241.371zM495.909 548.937v0c5.851 0 10.24 1.463 16.091 1.463 65.829 0 118.491-52.663 118.491-118.491 0-5.851 0-11.703-1.463-16.091l-133.12 133.12zM696.32 348.526c11.703 24.869 17.554 54.126 17.554 83.383 0 111.177-90.697 201.874-201.874 201.874-29.257 0-57.051-5.851-83.383-17.554v0l-65.829 65.829c45.349 17.554 95.086 29.257 149.211 29.257 231.131 0 381.806-200.411 422.766-260.389-17.554-36.571-62.903-122.88-146.286-193.097l-92.16 90.697zM564.663 237.349l-80.457 80.457c-42.423 10.24-77.531 43.886-87.771 87.771l-80.457 80.457c-4.389-16.091-7.314-33.646-7.314-52.663 0-111.177 90.697-201.874 201.874-201.874 19.017-1.463 36.571 1.463 54.126 5.851z" />
<glyph unicode="&#xe920;" glyph-name="heart-100" data-tags="heart-100" d="M501.76-14.263c-14.629 0-29.257 5.851-39.497 16.091l-384.731 384.731c-103.863 103.863-103.863 273.554 0 377.417l16.091 16.091c103.863 103.863 273.554 103.863 377.417 0l46.811-46.811 42.423 42.423c105.326 105.326 276.48 108.251 380.343 5.851 51.2-51.2 80.457-118.491 80.457-190.171s-27.794-137.509-77.531-188.709l-402.286-399.36c-10.24-11.703-24.869-17.554-39.497-17.554zM282.331 826.88c-59.977 0-121.417-23.406-166.766-68.754l-16.091-16.091c-92.16-92.16-92.16-242.834 0-334.994l383.269-383.269c10.24-10.24 27.794-10.24 38.034 0l399.36 399.36c43.886 45.349 68.754 103.863 68.754 166.766 0 64.366-24.869 124.343-70.217 168.229-92.16 90.697-242.834 87.771-337.92-5.851l-52.663-52.663c-5.851-5.851-16.091-5.851-21.943 0l-57.051 57.051c-45.349 48.274-106.789 70.217-166.766 70.217z" />
<glyph unicode="&#xe921;" glyph-name="heart-300" data-tags="heart-300" d="M503.223 9.143c-19.017 0-36.571 7.314-49.737 20.48l-373.029 373.029c-106.789 106.789-106.789 280.869 0 387.657l16.091 16.091c106.789 106.789 280.869 106.789 387.657 0l35.109-35.109 30.72 30.72c108.251 108.251 283.794 111.177 390.583 5.851 52.663-52.663 81.92-121.417 81.92-196.023 0-73.143-27.794-141.897-80.457-194.56l-390.583-387.657c-13.166-13.166-30.72-20.48-48.274-20.48zM289.646 828.343c-55.589 0-109.714-20.48-152.137-62.903l-16.091-16.091c-83.383-83.383-83.383-220.891 0-304.274l373.029-373.029c2.926-2.926 5.851-2.926 7.314-2.926s4.389 0 7.314 2.926l389.12 389.12c40.96 40.96 62.903 95.086 62.903 152.137 0 58.514-23.406 112.64-64.366 153.6-83.383 81.92-222.354 80.457-307.2-5.851l-51.2-51.2c-11.703-11.703-30.72-11.703-40.96 0l-55.589 55.589c-42.423 40.96-98.011 62.903-152.137 62.903z" />
<glyph unicode="&#xe922;" glyph-name="heart-solid" data-tags="heart-solid" d="M1022.537 630.857c0-65.829-24.869-133.12-76.069-184.32l-412.526-412.526c-16.091-16.091-43.886-16.091-61.44 0l-394.971 396.434c-102.4 102.4-102.4 266.24 0 368.64l16.091 16.091c100.937 100.937 266.24 100.937 367.177 0l59.977-59.977 54.126 54.126c100.937 100.937 267.703 106.789 370.103 5.851 52.663-49.737 77.531-117.029 77.531-184.32z" />
<glyph unicode="&#xe923;" glyph-name="help-100" data-tags="help-100" d="M517.851 960c-261.851 0-475.429-213.577-475.429-475.429 0-149.211 70.217-289.646 188.709-378.88l-74.606-143.36c-2.926-5.851-2.926-14.629 1.463-20.48 2.926-4.389 8.777-7.314 14.629-7.314 1.463 0 2.926 0 4.389 0 92.16 19.017 333.531 70.217 351.086 74.606 260.389 11.703 463.726 219.429 463.726 473.966 1.463 263.314-212.114 476.891-473.966 476.891zM526.629 47.177c-1.463 0-4.389 0-317.44-67.291l64.366 121.417c4.389 8.777 1.463 19.017-5.851 23.406-117.029 81.92-185.783 216.503-185.783 358.4-1.463 242.834 194.56 440.32 435.931 440.32s437.394-197.486 437.394-438.857c0-234.057-188.709-427.154-428.617-437.394zM500.297 736.183c-48.274 0-95.086-20.48-128.731-57.051-7.314-7.314-5.851-19.017 1.463-26.331s19.017-5.851 26.331 1.463c26.331 27.794 62.903 43.886 100.937 43.886 76.069 0 137.509-61.44 137.509-137.509s-61.44-137.509-137.509-137.509c-10.24 0-19.017-8.777-19.017-19.017v-86.309c0-10.24 8.777-19.017 19.017-19.017s19.017 8.777 19.017 19.017v68.754c87.771 8.777 156.526 83.383 156.526 174.080 0 98.011-78.994 175.543-175.543 175.543zM500.297 251.977c-11.703 0-20.48-8.777-20.48-20.48s8.777-20.48 20.48-20.48c11.703 0 20.48 8.777 20.48 20.48s-10.24 20.48-20.48 20.48z" />
<glyph unicode="&#xe924;" d="M179.931-64c-11.703 0-21.943 5.851-29.257 14.629-8.777 11.703-10.24 26.331-2.926 38.034l65.829 124.343c-111.177 90.697-177.006 226.743-177.006 371.566 0 261.851 213.577 475.429 475.429 475.429s475.429-213.577 475.429-475.429c0-256-203.337-463.726-463.726-475.429-23.406-4.389-212.114-43.886-337.92-71.68 0-1.463-2.926-1.463-5.851-1.463zM512 888.32c-222.354 0-403.749-181.394-403.749-403.749 0-131.657 64.366-254.537 172.617-330.606 14.629-10.24 19.017-30.72 11.703-46.811l-43.886-83.383c266.24 57.051 269.166 57.051 272.091 57.051 222.354 8.777 396.434 187.246 396.434 403.749 0 222.354-181.394 403.749-405.211 403.749z" />
<glyph unicode="&#xe925;" d="M672.914 557.714c0 102.4-83.383 187.246-187.246 187.246-52.663 0-102.4-21.943-137.509-59.977-13.166-14.629-13.166-38.034 1.463-51.2s38.034-13.166 51.2 1.463c21.943 23.406 52.663 36.571 84.846 36.571 62.903 0 115.566-51.2 115.566-115.566 0-62.903-51.2-115.566-115.566-115.566-20.48 0-36.571-16.091-36.571-36.571v-83.383c0-20.48 16.091-36.571 36.571-36.571s36.571 16.091 36.571 36.571v54.126c84.846 16.091 150.674 92.16 150.674 182.857z" />
<glyph unicode="&#xe926;" d="M529.554 212.48c0-19.39-15.719-35.109-35.109-35.109s-35.109 15.719-35.109 35.109c0 19.39 15.719 35.109 35.109 35.109s35.109-15.719 35.109-35.109z" />
<glyph unicode="&#xe927;" d="M494.446 247.589c-19.017 0-35.109-16.091-35.109-35.109s16.091-35.109 35.109-35.109c19.017 0 35.109 16.091 35.109 35.109 0 20.48-16.091 35.109-35.109 35.109v0z" />
<glyph unicode="&#xe928;" glyph-name="help-500" data-tags="help-500" d="M506.149 960c-263.314 0-478.354-213.577-478.354-476.891 0-140.434 61.44-272.091 166.766-362.789l-57.051-108.251c-8.777-17.554-7.314-39.497 4.389-55.589 10.24-13.166 24.869-20.48 40.96-20.48 2.926 0 7.314 0 10.24 1.463 119.954 24.869 298.423 62.903 324.754 68.754 260.389 13.166 462.263 220.891 462.263 476.891 2.926 263.314-210.651 476.891-473.966 476.891zM512 110.080c-5.851 0-7.314 0-229.669-48.274l24.869 48.274c11.703 23.406 5.851 51.2-16.091 67.291-99.474 70.217-157.989 184.32-157.989 305.737 0 206.263 166.766 373.029 373.029 373.029s373.029-166.766 373.029-373.029c0-200.411-160.914-364.251-367.177-373.029zM490.057 752.274c-55.589 0-108.251-23.406-146.286-64.366-19.017-20.48-17.554-54.126 2.926-73.143s54.126-17.554 73.143 2.926c17.554 19.017 42.423 30.72 68.754 30.72 51.2 0 93.623-42.423 93.623-93.623s-42.423-93.623-93.623-93.623c-29.257 0-52.663-23.406-52.663-52.663v-55.589c0-29.257 23.406-52.663 52.663-52.663s52.663 23.406 52.663 52.663v10.24c83.383 23.406 146.286 99.474 146.286 190.171 0 109.714-89.234 198.949-197.486 198.949zM497.371 265.143c-24.869 0-45.349-20.48-45.349-45.349s20.48-45.349 45.349-45.349c24.869 0 45.349 20.48 45.349 45.349 0 26.331-20.48 45.349-45.349 45.349z" />
<glyph unicode="&#xe929;" glyph-name="search-100" data-tags="search-100" d="M1018.149-27.429l-217.966 217.966c-1.463 1.463-2.926 2.926-4.389 2.926 74.606 81.92 119.954 188.709 119.954 308.663 0 253.074-204.8 457.874-457.874 457.874s-457.874-204.8-457.874-457.874 204.8-457.874 457.874-457.874c118.491 0 226.743 45.349 308.663 119.954 1.463-1.463 1.463-2.926 2.926-4.389l217.966-217.966c4.389-4.389 10.24-5.851 16.091-5.851s11.703 1.463 16.091 5.851c5.851 8.777 5.851 23.406-1.463 30.72zM457.874 88.137c-228.206 0-413.989 185.783-413.989 413.989s185.783 413.989 413.989 413.989c228.206 0 413.989-185.783 413.989-413.989s-185.783-413.989-413.989-413.989z" />
<glyph unicode="&#xe92a;" glyph-name="search-300" data-tags="search-300" d="M1010.834 9.143l-217.966 217.966c64.366 77.531 102.4 177.006 102.4 285.257 1.463 247.223-200.411 447.634-447.634 447.634s-447.634-200.411-447.634-447.634c0-247.223 200.411-447.634 447.634-447.634 108.251 0 207.726 38.034 285.257 102.4l217.966-217.966c8.777-8.777 19.017-13.166 30.72-13.166 10.24 0 21.943 4.389 30.72 13.166 16.091 16.091 16.091 42.423-1.463 59.977zM84.846 512.366c0 198.949 163.84 362.789 362.789 362.789s362.789-163.84 362.789-362.789-162.377-362.789-362.789-362.789-362.789 162.377-362.789 362.789z" />
<glyph unicode="&#xe92b;" glyph-name="search-500" data-tags="search-500" d="M1006.446 36.937l-160.914 160.914c62.903 80.457 99.474 179.931 99.474 289.646 0 260.389-212.114 472.503-472.503 472.503s-472.503-212.114-472.503-472.503 212.114-472.503 472.503-472.503c109.714 0 209.189 36.571 289.646 99.474l160.914-160.914c11.703-11.703 26.331-17.554 42.423-17.554s30.72 5.851 42.423 17.554c21.943 23.406 21.943 59.977-1.463 83.383zM118.491 487.497c0 196.023 159.451 354.011 354.011 354.011s354.011-159.451 354.011-354.011-157.989-354.011-354.011-354.011-354.011 157.989-354.011 354.011z" />
<glyph unicode="&#xe92c;" glyph-name="share-100" data-tags="share-100" d="M768 554.789c111.177 0 201.874 90.697 201.874 201.874s-89.234 203.337-201.874 203.337-201.874-90.697-201.874-201.874c0-32.183 7.314-62.903 20.48-89.234l-171.154-106.789c-36.571 48.274-95.086 80.457-160.914 80.457-111.177-1.463-201.874-92.16-201.874-203.337s90.697-201.874 201.874-201.874c73.143 0 136.046 38.034 172.617 96.549l163.84-96.549c-16.091-29.257-26.331-62.903-26.331-98.011 0-111.177 90.697-201.874 201.874-201.874s201.874 90.697 201.874 201.874-90.697 201.874-201.874 201.874c-64.366 0-121.417-29.257-157.989-76.069l-168.229 98.011c10.24 23.406 14.629 49.737 14.629 76.069 0 33.646-8.777 65.829-23.406 95.086l171.154 105.326c38.034-51.2 98.011-84.846 165.303-84.846zM768 307.566c93.623 0 169.691-76.069 169.691-169.691s-76.069-169.691-169.691-169.691-168.229 76.069-168.229 169.691 76.069 169.691 168.229 169.691zM256 269.531c-93.623 0-169.691 76.069-169.691 169.691s76.069 169.691 169.691 169.691 168.229-76.069 168.229-169.691-76.069-169.691-168.229-169.691zM768 926.354c93.623 0 169.691-76.069 169.691-169.691s-76.069-169.691-169.691-169.691-168.229 77.531-168.229 171.154 76.069 168.229 168.229 168.229z" />
<glyph unicode="&#xe92d;" glyph-name="share-300" data-tags="share-300" d="M759.223 532.846c117.029 0 213.577 95.086 213.577 213.577s-95.086 213.577-213.577 213.577-213.577-95.086-213.577-213.577c0-27.794 5.851-54.126 16.091-78.994l-138.971-86.309c-39.497 43.886-95.086 71.68-159.451 71.68-117.029 0-213.577-95.086-213.577-213.577s96.549-213.577 215.040-213.577c70.217 0 133.12 33.646 171.154 86.309l128.731-76.069c-11.703-26.331-19.017-57.051-19.017-87.771 0-117.029 95.086-213.577 213.577-213.577s213.577 95.086 213.577 213.577-95.086 215.040-213.577 215.040c-61.44 0-117.029-26.331-156.526-68.754l-136.046 78.994c7.314 20.48 10.24 42.423 10.24 65.829 0 30.72-5.851 58.514-17.554 84.846l136.046 84.846c40.96-46.811 99.474-76.069 163.84-76.069zM759.223 294.4c80.457 0 144.823-64.366 144.823-144.823s-64.366-144.823-144.823-144.823-144.823 64.366-144.823 144.823 64.366 144.823 144.823 144.823zM264.777 294.4c-80.457 0-144.823 64.366-144.823 144.823s64.366 144.823 144.823 144.823 144.823-64.366 144.823-144.823-64.366-144.823-144.823-144.823zM759.223 891.246c80.457 0 144.823-64.366 144.823-144.823s-64.366-144.823-144.823-144.823-144.823 64.366-144.823 144.823 64.366 144.823 144.823 144.823z" />
<glyph unicode="&#xe92e;" glyph-name="share-500" data-tags="share-500" d="M750.446 383.634c-59.977 0-114.103-23.406-153.6-61.44l-109.714 64.366c4.389 17.554 7.314 36.571 7.314 55.589 0 26.331-4.389 51.2-13.166 74.606l108.251 67.291c40.96-42.423 96.549-68.754 159.451-68.754 122.88 0 222.354 99.474 222.354 222.354s-98.011 222.354-220.891 222.354-222.354-99.474-222.354-222.354c0-24.869 4.389-48.274 11.703-70.217l-111.177-68.754c-39.497 39.497-95.086 64.366-156.526 64.366-122.88 0-222.354-99.474-222.354-222.354s99.474-222.354 222.354-222.354c67.291 0 128.731 30.72 169.691 78.994l99.474-58.514c-8.777-24.869-14.629-49.737-14.629-77.531 0-122.88 99.474-222.354 222.354-222.354s223.817 99.474 223.817 222.354-99.474 222.354-222.354 222.354zM750.446 860.526c68.754 0 122.88-55.589 122.88-122.88s-55.589-122.88-122.88-122.88-122.88 55.589-122.88 122.88 55.589 122.88 122.88 122.88zM273.554 317.806c-68.754 0-122.88 55.589-122.88 122.88s54.126 124.343 122.88 124.343 122.88-55.589 122.88-122.88-55.589-124.343-122.88-124.343zM750.446 36.937c-68.754 0-122.88 55.589-122.88 122.88s55.589 122.88 122.88 122.88 122.88-55.589 122.88-122.88-54.126-122.88-122.88-122.88z" />
<glyph unicode="&#xe92f;" glyph-name="truck-100" data-tags="truck-100" d="M1025.463 459.703l-197.486 200.411c-2.926 2.926-7.314 5.851-13.166 5.851h-108.251v131.657c0 33.646-27.794 61.44-61.44 61.44h-583.68c-33.646 0-61.44-27.794-61.44-61.44v-522.24c0-33.646 27.794-61.44 61.44-61.44h61.44c-4.389-13.166-7.314-29.257-7.314-43.886 0-73.143 59.977-131.657 131.657-131.657 73.143 0 131.657 59.977 131.657 131.657 0 16.091-2.926 30.72-7.314 43.886h345.234c-4.389-13.166-7.314-29.257-7.314-43.886 0-73.143 59.977-131.657 131.657-131.657 73.143 0 131.657 59.977 131.657 131.657 0 16.091-2.926 30.72-7.314 43.886h46.811c10.24 0 17.554 7.314 17.554 17.554v215.040c0 5.851-1.463 10.24-4.389 13.166zM248.686 73.509c-52.663 0-96.549 43.886-96.549 96.549s43.886 96.549 96.549 96.549 96.549-43.886 96.549-96.549-43.886-96.549-96.549-96.549zM248.686 301.714c-42.423 0-80.457-20.48-105.326-52.663h-81.92c-14.629 0-24.869 11.703-24.869 24.869v523.703c0 14.629 11.703 24.869 24.869 24.869h583.68c14.629 0 24.869-11.703 24.869-24.869v-547.109h-315.977c-24.869 30.72-62.903 51.2-105.326 51.2zM841.143 73.509c-52.663 0-96.549 43.886-96.549 96.549s43.886 96.549 96.549 96.549c52.663 0 96.549-43.886 96.549-96.549s-43.886-96.549-96.549-96.549zM994.743 249.051h-48.274c-24.869 32.183-62.903 52.663-105.326 52.663s-80.457-20.48-105.326-52.663h-29.257v380.343h100.937l187.246-190.171v-190.171z" />
<glyph unicode="&#xe930;" glyph-name="truck-300" data-tags="truck-300" d="M1013.76 471.406l-190.171 193.097c-5.851 7.314-14.629 10.24-24.869 10.24h-86.309v109.714c0 42.423-33.646 76.069-76.069 76.069h-560.274c-40.96-1.463-76.069-35.109-76.069-77.531v-501.76c0-42.423 33.646-76.069 76.069-76.069h36.571c-1.463-8.777-2.926-16.091-2.926-24.869 0-78.994 64.366-144.823 144.823-144.823s144.823 64.366 144.823 144.823c0 8.777-1.463 17.554-2.926 24.869h285.257c-1.463-8.777-2.926-16.091-2.926-24.869 0-78.994 64.366-144.823 144.823-144.823s144.823 64.366 144.823 144.823c0 8.777-1.463 17.554-2.926 24.869h21.943c19.017 0 35.109 16.091 35.109 35.109v206.263c1.463 10.24-2.926 19.017-8.777 24.869zM254.537 105.691c-40.96 0-74.606 33.646-74.606 74.606s33.646 74.606 74.606 74.606c40.96 0 74.606-33.646 74.606-74.606 1.463-40.96-32.183-74.606-74.606-74.606zM254.537 325.12c-43.886 0-83.383-19.017-109.714-49.737h-68.754c-4.389 0-7.314 2.926-7.314 7.314v500.297c0 4.389 2.926 7.314 7.314 7.314h560.274c4.389 0 7.314-2.926 7.314-7.314v-509.074h-279.406c-26.331 32.183-65.829 51.2-109.714 51.2zM823.589 105.691c-40.96 0-74.606 33.646-74.606 74.606s33.646 74.606 74.606 74.606c40.96 0 74.606-33.646 74.606-74.606 1.463-40.96-32.183-74.606-74.606-74.606zM823.589 325.12c-43.886 0-83.383-19.017-109.714-49.737h-2.926v330.606h71.68l171.154-172.617v-157.989h-20.48c-26.331 30.72-65.829 49.737-109.714 49.737z" />
<glyph unicode="&#xe931;" glyph-name="truck-500" data-tags="truck-500" d="M1012.297 483.109l-184.32 185.783c-8.777 10.24-21.943 14.629-35.109 14.629h-67.291v89.234c0 49.737-40.96 90.697-90.697 90.697h-544.183c-49.737 1.463-90.697-39.497-90.697-89.234v-487.131c0-49.737 40.96-90.697 90.697-90.697h17.554c0-2.926 0-4.389 0-7.314 0-86.309 70.217-156.526 156.526-156.526s156.526 70.217 156.526 156.526c0 2.926 0 4.389 0 7.314h239.909c0-2.926 0-4.389 0-7.314 0-86.309 70.217-156.526 156.526-156.526s156.526 70.217 156.526 156.526c0 2.926 0 4.389 0 7.314h2.926c27.794 0 49.737 21.943 49.737 49.737v200.411c0 14.629-5.851 26.331-14.629 36.571zM770.926 584.046l155.063-157.989v-125.806c-27.794 27.794-67.291 45.349-109.714 45.349-33.646 0-65.829-11.703-90.697-29.257v267.703h45.349zM264.777 132.023c-30.72 0-57.051 24.869-57.051 57.051 0 30.72 24.869 57.051 57.051 57.051s57.051-24.869 57.051-57.051c-1.463-32.183-26.331-57.051-57.051-57.051zM264.777 345.6c-43.886 0-84.846-19.017-112.64-48.274h-51.2v466.651h523.703v-468.114h-247.223c-29.257 30.72-68.754 49.737-112.64 49.737zM816.274 132.023c-30.72 0-57.051 24.869-57.051 57.051 0 30.72 24.869 57.051 57.051 57.051 30.72 0 57.051-24.869 57.051-57.051s-26.331-57.051-57.051-57.051z" />
<glyph unicode="&#xe932;" glyph-name="user-100" data-tags="user-100" d="M519.314 929.28c133.12 0 241.371-106.789 241.371-239.909s-108.251-241.371-241.371-241.371-241.371 108.251-241.371 241.371 108.251 239.909 241.371 239.909zM519.314 960c-149.211 0-270.629-121.417-270.629-270.629s121.417-270.629 270.629-270.629 270.629 119.954 270.629 270.629-121.417 270.629-270.629 270.629v0zM586.606 311.954c80.457 0 156.526-30.72 213.577-87.771s87.771-133.12 87.771-213.577c0-24.869-20.48-45.349-45.349-45.349h-662.674c-24.869 0-45.349 20.48-45.349 45.349 0 166.766 134.583 301.349 301.349 301.349h150.674zM586.606 342.674h-149.211c-182.857 0-332.069-147.749-332.069-332.069 0-40.96 33.646-74.606 74.606-74.606h662.674c40.96 0 74.606 33.646 74.606 74.606v0c1.463 182.857-147.749 332.069-330.606 332.069v0z" />
<glyph unicode="&#xe933;" glyph-name="user-300" data-tags="user-300" d="M517.851 900.023c115.566 0 210.651-95.086 210.651-210.651s-95.086-210.651-210.651-210.651-210.651 93.623-210.651 210.651 95.086 210.651 210.651 210.651zM517.851 960c-149.211 0-270.629-121.417-270.629-270.629s121.417-270.629 270.629-270.629 270.629 121.417 270.629 270.629-121.417 270.629-270.629 270.629v0zM585.143 282.697c73.143 0 140.434-27.794 191.634-78.994s78.994-119.954 78.994-191.634c0-8.777-7.314-14.629-14.629-14.629h-662.674c-8.777 0-14.629 7.314-14.629 14.629 0 149.211 121.417 270.629 270.629 270.629h150.674zM585.143 342.674h-149.211c-182.857 0-332.069-147.749-332.069-332.069v0c0-40.96 33.646-74.606 74.606-74.606h662.674c40.96 0 74.606 33.646 74.606 74.606 1.463 182.857-147.749 332.069-330.606 332.069v0z" />
<glyph unicode="&#xe934;" glyph-name="user-500" data-tags="user-500" d="M523.703 869.303c99.474 0 181.394-80.457 181.394-181.394s-80.457-181.394-181.394-181.394-181.394 80.457-181.394 181.394 81.92 181.394 181.394 181.394zM523.703 960c-149.211 0-270.629-121.417-270.629-270.629s121.417-270.629 270.629-270.629 270.629 121.417 270.629 270.629-121.417 270.629-270.629 270.629v0zM590.994 251.977c64.366 0 124.343-24.869 171.154-70.217 42.423-42.423 65.829-96.549 70.217-155.063h-631.954c7.314 125.806 112.64 225.28 241.371 225.28h149.211zM590.994 342.674h-149.211c-182.857 0-332.069-147.749-332.069-332.069v0c0-40.96 33.646-74.606 74.606-74.606h664.137c40.96 0 74.606 33.646 74.606 74.606 0 182.857-149.211 332.069-332.069 332.069v0z" />
<glyph unicode="&#xe935;" glyph-name="user-solid" data-tags="user-solid" d="M782.629 689.371c0-149.464-121.165-270.629-270.629-270.629s-270.629 121.165-270.629 270.629c0 149.464 121.165 270.629 270.629 270.629s270.629-121.165 270.629-270.629zM836.754-64h-664.137c-40.96 0-74.606 33.646-74.606 74.606v0c0 182.857 147.749 332.069 332.069 332.069h150.674c182.857 0 332.069-147.749 332.069-332.069v0c-1.463-40.96-35.109-74.606-76.069-74.606z" />
<glyph unicode="&#xe936;" glyph-name="star-solid" data-tags="star-solid" d="M999.131 584.046l-332.069 30.72-131.657 305.737c-8.777 21.943-39.497 21.943-48.274 0l-131.657-305.737-330.606-30.72c-23.406-1.463-32.183-30.72-14.629-46.811l250.149-219.429-73.143-324.754c-5.851-23.406 19.017-40.96 39.497-29.257l285.257 169.691 286.72-169.691c20.48-11.703 45.349 5.851 39.497 29.257l-73.143 324.754 250.149 219.429c17.554 14.629 7.314 43.886-16.091 46.811v0z" />
<glyph unicode="&#xe937;" glyph-name="card-100" data-tags="card-100" d="M933.303 781.531h-841.143c-46.811 0-84.846-38.034-84.846-84.846v-497.371c0-46.811 38.034-84.846 84.846-84.846h841.143c46.811 0 84.846 38.034 84.846 84.846v497.371c0 46.811-38.034 84.846-84.846 84.846zM983.040 199.314c0-26.331-21.943-49.737-49.737-49.737h-841.143c-26.331 0-49.737 21.943-49.737 49.737v365.714h939.154v-365.714zM983.040 601.6h-940.617v95.086c0 26.331 21.943 49.737 49.737 49.737h841.143c26.331 0 49.737-21.943 49.737-49.737v-95.086zM166.766 276.846h266.24c10.24 0 17.554 7.314 17.554 17.554s-7.314 17.554-17.554 17.554h-266.24c-10.24 0-17.554-7.314-17.554-17.554s7.314-17.554 17.554-17.554z" />
<glyph unicode="&#xe938;" glyph-name="heart-500" data-tags="heart-500" d="M498.834 0.366c-21.943 0-42.423 8.777-59.977 24.869l-370.103 371.566c-111.177 112.64-111.177 294.034 0 405.211l16.091 16.091c54.126 54.126 125.806 83.383 201.874 83.383s149.211-29.257 203.337-83.383l24.869-24.869 20.48 20.48c114.103 114.103 296.96 115.566 408.137 5.851 55.589-54.126 86.309-127.269 86.309-204.8 0-76.069-29.257-149.211-83.383-203.337l-387.657-386.194c-16.091-16.091-38.034-24.869-59.977-24.869zM286.72 813.714c-52.663 0-103.863-20.48-140.434-58.514l-14.629-14.629c-78.994-77.531-78.994-204.8 0-282.331l368.64-368.64 383.269 383.269c38.034 38.034 58.514 87.771 58.514 140.434 0 54.126-20.48 103.863-59.977 141.897-77.531 76.069-204.8 73.143-285.257-5.851l-51.2-51.2c-17.554-17.554-45.349-17.554-61.44 0l-55.589 57.051c-38.034 38.034-87.771 58.514-141.897 58.514z" />
</font>
</defs>
</svg>
