<svg id="Camada_1" data-name="Camada 1" xmlns="http://www.w3.org/2000/svg" viewBox="0 0 60 38"><defs><style>.cls-1{fill:#3781cd;}.cls-2{fill:#fff;}</style></defs><title>american</title><path class="cls-1" d="M4,0H56a4,4,0,0,1,4,4V34a4,4,0,0,1-4,4H4a4,4,0,0,1-4-4V4A4,4,0,0,1,4,0Z"/><path class="cls-2" d="M5.2,8.8c-1.3,3.1-2.6,6.1-4,9.2H5.9l.6-1.5H7.8L8.4,18c16.4.1,32.2,0,46.4,0V8.8H16.3l-1,2.4-1-2.4ZM27,10.1h3.5c1.8,0,2.6.7,2.6,1.8,0,1.4-.6,1.8-1.1,1.8.9,0,1,1.1,1,1.8v1.3H31.5V16c0-1.1-.2-1.6-1.3-1.6H28.6v2.4H27.1V10.2Zm-20.9,0H8.3l2.6,6.2V10.1h2.5l2,4.5,1.8-4.5h2.5v6.6H18.1V11.5l-2.2,5.2H14.6l-2.2-5.2v5.2H9.3l-.6-1.5H5.5l-.6,1.5H3.3L6,10.1Zm14.8,0H26v1.4H22.5v1.2H26v1.4H22.5v1.3H26v1.4H20.9V10.1Zm13.1,0h1.6v6.6H34Zm5.4,0h1.5v1.4H39.5c-1.2,0-1.6.8-1.6,1.9s.4,1.8,1.5,1.8h.7L42.2,10h2.3l2.6,6.2V10h2.3l2.7,4.6V10h1.6v6.6H51.6l-2.9-4.9v4.9H45.6L45,15.1H41.9l-.6,1.5H39.5c-2.3,0-3-1.4-3-3.2S37,10.1,39.4,10.1ZM7.2,11.2l-1,2.6H8.3l-1-2.6Zm36,0-1,2.6h2.1ZM28.5,12.9h1.8c.8,0,1.1-.2,1.1-.7s-.4-.7-1-.7H28.5ZM14,19.9v9.2h8l1.3-1.4,1.2,1.4h5V26.9a5.21,5.21,0,0,0,2.6-.3v2.5h23c4,0,4.2-3.8,3.2-5V19.9H24.6l-1.2,1.4-1.2-1.4Zm1.4,1.3h6.1l1.9,2.2,1.9-2.2h4.8c1.2,0,2.6.3,2.6,2.2s-1.3,2.2-2.6,2.2H28.2v2.2h-3l-1.9-2.2-1.9,2.2h-6Zm18,0h3.5c2.4-.1,2.6,1,2.6,1.8a1.92,1.92,0,0,1-1.1,1.8,1.41,1.41,0,0,1,.7.6,2,2,0,0,1,.2,1.2v1.3H37.8v-.8c0-1.1-.2-1.6-1.3-1.6H34.9v2.4H33.4V21.2Zm7,0h5.1v1.4H41.9v1.2h3.5v1.3H41.9v1.3h3.6v1.4H40.4Zm8,0h3v1.4H48.6c-.6,0-.8.3-.8.6s.4.6.9.6h.8c1.9,0,2.2.9,2.2,1.9q0,2.1-2.4,2.1h-3V26.4h3c.4,0,.8-.1.8-.6s-.3-.5-.7-.5c-1.4-.1-3.2,0-3.2-2S47.3,21.2,48.4,21.2Zm5.9,0h3v1.4H54.6c-.7,0-.8.2-.8.6s.5.6.9.6h.8c1.7.1,2.3.7,2.3,2,0,1.7-1.2,2-2.4,2H52.5V26.4h2.9c.6,0,.8-.3.8-.6,0-.5-.4-.5-.7-.5-1.4-.1-3.2,0-3.2-2C52.3,21.6,53.3,21.2,54.3,21.2Zm-27.6.7-2.3,2.6,2.3,2.7Zm-9.8.7v1.2h3.3v1.3H16.9v1.3h3.7l1.7-1.9-1.7-1.9H16.9Zm11.3,0v1.7h2a.8.8,0,0,0,.9-.9c0-.6-.4-.8-.9-.8ZM35,24.1h1.9c.7,0,1.1-.2,1.1-.7s-.3-.7-1-.7H35Z"/></svg>