<svg id="Camada_1" data-name="Camada 1" xmlns="http://www.w3.org/2000/svg" viewBox="0 0 60 38"><defs><style>.cls-1{fill:#b91714;}.cls-2{fill:#fff;}</style></defs><title>hipercard</title><path class="cls-1" d="M4,0H56a4,4,0,0,1,4,4V34a4,4,0,0,1-4,4H4a4,4,0,0,1-4-4V4A4,4,0,0,1,4,0Z"/><path class="cls-2" d="M15.6,14.4a1.06,1.06,0,0,0,.2-1.4c-.1-.1-.3-.1-.6-.1a.46.46,0,0,0-.5.3,1.26,1.26,0,0,0-.1,1.2c.3.3.8.1,1,0ZM11.8,13c-.2,1.3-.4,2.5-.6,3.7-1.4,0-2.8.1-4.1,0,.3-1.2.4-2.5.7-3.7H6.3c-.5,3.1-1,6.2-1.6,9.2H6.2c.2-1.6.5-3.1.8-4.6,1.3,0,2.8-.1,4.1,0-.3,1.5-.6,3-.8,4.6h1.5c.5-3.1,1-6.2,1.6-9.2H11.8Zm21.5,2.7a1.92,1.92,0,0,0-2.5,1.1c.1-.3.1-.7.2-1.1H29.8c-.3,2.3-.7,4.4-1.1,6.6H30a28.31,28.31,0,0,1,.7-4.2,1.86,1.86,0,0,1,2.4-1.4,3.55,3.55,0,0,1,.2-1Zm.7,5a2.77,2.77,0,0,1-.1-1.3,4.67,4.67,0,0,1,.9-2.5c.7-.7,2.1-.6,3.2-.2a4.25,4.25,0,0,1,.2-1.1c-1.8-.3-3.5-.1-4.4.9A5.43,5.43,0,0,0,32.7,21c.5,1.6,2.6,1.7,4.4,1.1.1-.3.1-.7.2-1-.9.5-2.8.8-3.2-.3h0Zm15-5a1.93,1.93,0,0,0-2.5,1c.1-.3.1-.7.2-1H45.5c-.3,2.3-.7,4.5-1.1,6.6h1.4a19.67,19.67,0,0,1,.3-2.4c.3-1.8.7-3.8,2.8-3.2.1-.3.1-.7.2-.9h0Zm-34.7,0v.1c-.3,2.2-.7,4.4-1.1,6.5h1.3c.3-2.3.7-4.5,1.1-6.6ZM26,15.6a3.77,3.77,0,0,0-2.4,1,5.61,5.61,0,0,0-1.1,4c.2,2.2,2.9,2.1,5,1.6a4.25,4.25,0,0,1,.2-1.1c-.9.3-2.4.8-3.3.2-.7-.4-.7-1.6-.5-2.5h4.4a3.76,3.76,0,0,0,.1-2.1c-.3-.9-1.4-1.1-2.5-1h0ZM27.3,18H24.2A1.93,1.93,0,0,1,26,16.4c1,0,1.6.4,1.4,1.6h-.1ZM21,15.7a3.56,3.56,0,0,0-3.1.6h0c0-.2.1-.4.1-.6H16.9c-.5,3.2-1,6.4-1.6,9.5h1.3c.2-1.2.3-2.5.6-3.6.3,1.2,2.3,1,3.1.5,1.7-1,3.1-5.5.7-6.4Zm-1.1,5.4c-.7.8-2.5.8-2.6-.5a4.68,4.68,0,0,1,.2-1.7c.1-.6.2-1.2.3-1.7.7-.9,2.8-1,3,.5a4.86,4.86,0,0,1-.9,3.5h0ZM54,12.9a25,25,0,0,1-.5,2.9c-3.3-1.1-5.3,1.4-5.2,4.4a2.2,2.2,0,0,0,.5,1.6,3,3,0,0,0,3.3.3c.2-.1.3-.3.5-.5s.2-.4.2-.3c0,.3-.1.6-.1,1h1.2a88,88,0,0,1,1.5-9.4H54Zm-3,8.7c-.9,0-1.3-.5-1.4-1.5,0-1.6.7-3.5,2.1-3.6a2.56,2.56,0,0,1,1.6.3c-.5,1.9-.3,4.8-2.4,4.9h0ZM39.5,15.7a4.25,4.25,0,0,0-.2,1.1c.8-.2,3.2-.8,3.5.3a1.64,1.64,0,0,1-.2,1c-2.2-.2-4,.2-4.5,1.8-.3,1.1,0,2.1.7,2.4a2.82,2.82,0,0,0,3.4-1,3.08,3.08,0,0,0-.1,1h1.1a27.69,27.69,0,0,1,.3-3c.1-.9.4-1.7.4-2.5-.1-1.7-2.9-1.1-4.5-1.1h.1ZM41.7,21c-.7.7-2.6.9-2.4-.8.2-1.4,1.6-1.7,3.2-1.5a4.19,4.19,0,0,1-.8,2.2h0Z"/></svg>