<svg id="Camada_1" data-name="Camada 1" xmlns="http://www.w3.org/2000/svg" viewBox="0 0 203.3 149.42"><defs><style>.cls-1{fill:#f0eef6;}.cls-2{fill:#fff;}.cls-3,.cls-4,.cls-5{fill:none;stroke-miterlimit:10;}.cls-3{stroke:#44434f;stroke-width:2px;}.cls-4,.cls-5{stroke:#1bb600;stroke-width:3px;}.cls-4{stroke-linecap:round;}</style></defs><title>bemvindo</title><path class="cls-1" d="M185.81,92a9.24,9.24,0,0,1-9.21,9.21H159.4a7.84,7.84,0,0,1-1.29-.1.44.44,0,0,1,0,.1H147.77a9.22,9.22,0,0,0,0,18.43h11.95a9.22,9.22,0,0,1,0,18.43h-22.6a57.83,57.83,0,0,1-93.28-35.26H27.4a9.22,9.22,0,0,1,0-18.43H55.72a9.22,9.22,0,1,0,0-18.43H42.58a9.22,9.22,0,0,1,0-18.43H65.19a57.84,57.84,0,0,1,92.6,35.41,8.53,8.53,0,0,1,1.61-.15h17.2A9.25,9.25,0,0,1,185.81,92Z" transform="translate(0 -1.41)"/><rect class="cls-1" y="46.08" width="27.3" height="18.43" rx="9.21"/><rect class="cls-1" x="176" y="119.08" width="27.3" height="18.43" rx="9.21"/><path class="cls-2" d="M126.06,68.82V96.37a17.84,17.84,0,0,1-2.48,9.09c-4,6.7-12.48,18.38-24.6,19.74a11.3,11.3,0,0,1-1.17.1,8.93,8.93,0,0,1-1.17-.1C84.52,123.84,76,112.16,72,105.46a17.94,17.94,0,0,1-2.48-9.09V68.82A1.48,1.48,0,0,1,71.7,67.5c1.86,1,5.21,2,11.06,2a18.21,18.21,0,0,0,13.94-6,1.48,1.48,0,0,1,2.22,0,18.18,18.18,0,0,0,13.93,6c5.85,0,9.2-1,11.06-2A1.48,1.48,0,0,1,126.06,68.82Z" transform="translate(0 -1.41)"/><path class="cls-1" d="M80.24,69.5V97.73a19.24,19.24,0,0,0,.91,5.83c1.76,5.52,6.28,16.67,15.31,21.64,0,0-27.08-8.21-27.08-32.3V68.82s-.41-2.06,2.7-1A61.91,61.91,0,0,0,80.24,69.5Z" transform="translate(0 -1.41)"/><path class="cls-3" d="M125.89,68.82V94.75a23.45,23.45,0,0,1-3.65,12.61c-4.34,6.8-12.4,16.6-23.43,17.84a11.3,11.3,0,0,1-1.17.1,9.24,9.24,0,0,1-1.18-.1c-11-1.24-19.1-11-23.43-17.84a23.45,23.45,0,0,1-3.65-12.61V68.82a1.48,1.48,0,0,1,2.15-1.32c1.86,1,5.21,2,11.06,2a18.21,18.21,0,0,0,13.94-6,1.47,1.47,0,0,1,2.21,0,18.19,18.19,0,0,0,13.94,6c5.85,0,9.2-1,11.06-2A1.48,1.48,0,0,1,125.89,68.82Z" transform="translate(0 -1.41)"/><path class="cls-4" d="M103,96.87c0,3.49-1.59,6.32-5.08,6.32s-5.23-2.83-5.23-6.32" transform="translate(0 -1.41)"/><path class="cls-1" d="M156,26l4.76-4.76a.8.8,0,0,0,0-1.13L155.57,15a.79.79,0,0,0-1.14,0l-4.76,5.14a.8.8,0,0,0,0,1.13l5.18,4.8A.8.8,0,0,0,156,26Z" transform="translate(0 -1.41)"/><circle class="cls-5" cx="69.82" cy="4.19" r="2.69"/><path class="cls-5" d="M48.45,30.62,46.07,33a.4.4,0,0,1-.56,0l-2.59-2.41a.39.39,0,0,1,0-.56l2.39-2.58a.4.4,0,0,1,.57,0l2.6,2.6A.39.39,0,0,1,48.45,30.62Z" transform="translate(0 -1.41)"/><path class="cls-4" d="M110.76,90l-.17-.12a4.43,4.43,0,0,0-4.91,0h0" transform="translate(0 -1.41)"/><path class="cls-4" d="M89.94,90l-.18-.12a4.43,4.43,0,0,0-4.91,0h0" transform="translate(0 -1.41)"/></svg>