<?xml version="1.0" encoding="utf-8"?>
<!-- Generator: Adobe Illustrator 23.0.1, SVG Export Plug-In . SVG Version: 6.00 Build 0)  -->
<svg version="1.1" id="Camada_1" xmlns="http://www.w3.org/2000/svg" xmlns:xlink="http://www.w3.org/1999/xlink" x="0px" y="0px"
	 viewBox="0 0 610 408" style="enable-background:new 0 0 610 408;" xml:space="preserve">
<style type="text/css">
	.st0{opacity:0.5;fill:#F4F4F4;stroke:#D1D1D1;stroke-width:3;stroke-miterlimit:10;}
	.st1{fill:none;stroke:#27AE60;stroke-width:4;stroke-miterlimit:10;}
	.st2{fill:#C0ECFF;stroke:#23B3E5;stroke-width:3;stroke-miterlimit:10;}
	.st3{fill:#F2F2F2;stroke:#27AE60;stroke-width:3;stroke-miterlimit:10;}
	.st4{fill:#FFDCA4;stroke:#27AE60;stroke-width:3;stroke-linecap:round;stroke-miterlimit:10;}
	.st5{fill:none;stroke:#7F8C8D;stroke-width:4;stroke-miterlimit:10;}
	.st6{opacity:0.28;fill:none;stroke:#3498DB;stroke-width:4;stroke-linecap:round;stroke-miterlimit:10;}
</style>
<g>
	<path class="st0" d="M203.4,138.5c0,5.7-4.6,10.3-10.3,10.3H148c-8.8,0-16-7.2-16-16c0-8.8,7.2-16,16-16c3.1,0,6,0.9,8.5,2.4
		c3.3-7,10.4-11.8,18.7-11.8c11.4,0,20.7,9.3,20.7,20.7c0,0.1,0,0.2,0,0.4C200.2,129.7,203.4,133.7,203.4,138.5z"/>
	<path class="st0" d="M107.5,55.2c0,8.3-6.7,15-15,15H27C14.1,70.2,3.7,59.8,3.7,47S14.1,23.7,27,23.7c4.5,0,8.8,1.3,12.3,3.5
		c4.8-10.1,15.2-17.1,27.1-17.1c16.6,0,30.1,13.5,30.1,30c0,0.2,0,0.4,0,0.5C102.9,42.4,107.5,48.3,107.5,55.2z"/>
	<g>
		<line class="st1" x1="143.5" y1="279" x2="143.5" y2="0"/>
		<g>
			<polyline class="st1" points="125.7,32.9 143.5,15.1 162.2,33.8 			"/>
			<polyline class="st1" points="125.7,56.3 143.5,38.5 162.2,57.2 			"/>
			<polyline class="st1" points="125.7,79.7 143.5,61.9 162.2,80.6 			"/>
			<polyline class="st1" points="125.7,103.1 143.5,85.3 162.2,104.1 			"/>
			<polyline class="st1" points="125.7,126.5 143.5,108.7 162.2,127.5 			"/>
			<polyline class="st1" points="125.7,150 143.5,132.1 162.2,150.9 			"/>
			<polyline class="st1" points="125.7,173.4 143.5,155.5 162.2,174.3 			"/>
			<polyline class="st1" points="125.7,196.8 143.5,178.9 162.2,197.7 			"/>
			<polyline class="st1" points="125.7,220.2 143.5,202.3 162.2,221.1 			"/>
			<polyline class="st1" points="125.7,243.6 143.5,225.8 162.2,244.5 			"/>
		</g>
	</g>
	<line class="st1" x1="73.5" y1="279" x2="73.5" y2="79.2"/>
	<g>
		<polyline class="st1" points="55.6,112.9 73.4,95.1 92.2,113.8 		"/>
		<polyline class="st1" points="55.6,134.7 73.4,116.9 92.2,135.6 		"/>
		<polyline class="st1" points="55.6,156.5 73.4,138.7 92.2,157.4 		"/>
		<polyline class="st1" points="55.6,178.2 73.4,160.4 92.2,179.2 		"/>
		<polyline class="st1" points="55.6,200 73.4,182.2 92.2,200.9 		"/>
		<polyline class="st1" points="55.6,221.8 73.4,204 92.2,222.7 		"/>
		<polyline class="st1" points="55.6,243.6 73.4,225.8 92.2,244.5 		"/>
	</g>
	<path class="st2" d="M608.5,322c0,9.5-3.9,18.1-10.1,24.4s-14.9,10.1-24.4,10.1H408.5c-2.6,0-5,1.1-6.7,2.8
		c-1.7,1.7-2.8,4.1-2.8,6.7c0,5.3,4.3,9.5,9.5,9.5H477c8.6,0,15.5,6.9,15.5,15.5c0,4.3-1.7,8.2-4.5,11c-2.8,2.8-6.7,4.5-11,4.5H121
		c-3.4,0-6.6-1.1-9.2-3c-3.8-2.8-6.3-7.4-6.3-12.5c0-2.3,0.5-4.5,1.4-6.5c0.8-1.7,1.8-3.2,3.1-4.5c2.8-2.8,6.7-4.5,11-4.5h69.6
		c2.6,0,5-1.1,6.7-2.8c1.7-1.7,2.8-4.1,2.8-6.7c0-5.3-4.3-9.5-9.5-9.5H36C17,356.5,1.5,341,1.5,322c0-9.5,3.9-18.1,10.1-24.4
		s14.9-10.1,24.4-10.1h538C593,287.5,608.5,303,608.5,322z"/>
	<path class="st3" d="M253.9,277.2H82.2c-19.7,0-35.6,15.9-35.6,35.6v3h207.3c1.7,0,3-1.3,3-3v-32.6
		C256.9,278.6,255.5,277.2,253.9,277.2z"/>
	<path class="st3" d="M544.3,315.9c-2.9-11.8-9-22.4-17.3-30.8c-11.8-11.8-28.1-19.1-46.1-19.1H197.4c-30.7,0-56.5,21.3-63.4,49.9"
		/>
	<line class="st4" x1="27.5" y1="315.9" x2="556.3" y2="315.9"/>
	<g>
		<polyline class="st5" points="199.7,102.8 232.2,102.8 271.7,244.3 365.2,244.3 		"/>
		<polyline class="st5" points="245.9,151.8 388.7,151.8 365.2,224.8 266.3,224.8 		"/>
		<polyline class="st5" points="252.7,151.8 279.4,125.2 305.4,151.2 		"/>
		<polyline class="st5" points="287.1,132.9 325.2,132.9 325.2,151.8 		"/>
		<polyline class="st5" points="350.6,151.8 371.9,82.9 397.6,90.9 378.8,151.8 		"/>
		<circle class="st5" cx="274.7" cy="254.9" r="10.1"/>
		<circle class="st5" cx="365.2" cy="254.9" r="10.1"/>
	</g>
	<line class="st6" x1="256.8" y1="353.5" x2="337" y2="353.5"/>
	<line class="st6" x1="429.1" y1="335.5" x2="509.4" y2="335.5"/>
	<line class="st6" x1="39" y1="333" x2="202" y2="333"/>
	<line class="st6" x1="175.9" y1="390" x2="244" y2="390"/>
	<line class="st6" x1="342.7" y1="381" x2="376.8" y2="381"/>
	<line class="st6" x1="320.8" y1="381" x2="332.6" y2="381"/>
	<path class="st0" d="M547.5,87.3c0,9.5-7.7,17.1-17.1,17.1h-74.7c-14.6,0-26.5-11.9-26.5-26.5s11.9-26.5,26.5-26.5
		c5.2,0,10,1.5,14.1,4c5.5-11.5,17.3-19.5,30.9-19.5c18.9,0,34.3,15.3,34.3,34.3c0,0.2,0,0.4,0,0.6
		C542.2,72.8,547.5,79.4,547.5,87.3z"/>
</g>
</svg>
