<svg xmlns="http://www.w3.org/2000/svg" width="215.042" height="196.675" viewBox="0 0 215.042 196.675">
  <g id="Grupo_137" data-name="Grupo 137" transform="translate(-1872.49 5419.624)">
    <g id="Grupo_135" data-name="Grupo 135">
      <g id="Grupo_134" data-name="Grupo 134">
        <path id="Caminho_238" data-name="Caminho 238" d="M2045.941-5338.652q-.654.683-1.33,1.334l-63.67,63.671a2.125,2.125,0,0,1-1.425.591,2.189,2.189,0,0,1-.713-.121,1.938,1.938,0,0,1-1.167-.591l-63.671-63.671a45.342,45.342,0,0,1,.046-64.125,45.343,45.343,0,0,1,64.125.045l1.228,1.228,1.137-1.137a45.344,45.344,0,0,1,64.11-1.334A45.345,45.345,0,0,1,2045.941-5338.652Z" fill="#f66"/>
      </g>
    </g>
    <path id="Caminho_239" data-name="Caminho 239" d="M1956.879-5354.24l16.465,16.465a1.441,1.441,0,0,0,2.038,0l35.2-35.2" fill="none" stroke="#fff" stroke-linecap="round" stroke-miterlimit="10" stroke-width="6.777"/>
    <ellipse id="Elipse_52" data-name="Elipse 52" cx="71.865" cy="7.404" rx="71.865" ry="7.404" transform="translate(1907.77 -5237.757)" opacity="0.05"/>
    <g id="Grupo_136" data-name="Grupo 136">
      <path id="Caminho_240" data-name="Caminho 240" d="M1881.663-5327.37a1.848,1.848,0,0,0,1.262,2.223c1.573.594,2.513,2.83,2.724,4.448.318,2.436-.749,4.811-1.747,6.963-1.185,2.554-2.315,5.186-2.292,8.056a14.726,14.726,0,0,0,2.8,8.063,36.981,36.981,0,0,0,6.634,6.857,1.856,1.856,0,0,0,2.555,0,1.824,1.824,0,0,0,0-2.556c-3.895-3.342-9.033-7.747-8.326-13.491.334-2.713,1.848-5.143,2.858-7.632a12.836,12.836,0,0,0,.817-8.079,8.643,8.643,0,0,0-5.065-6.113,1.82,1.82,0,0,0-2.222,1.261Zm0,0" fill="#c1c1c1"/>
    </g>
    <path id="Caminho_241" data-name="Caminho 241" d="M2049.565-5276.373c2.1-2.914,4.346-6.027,4.986-9.647a13.788,13.788,0,0,0-2.244-10c-2.255-3.41-5.53-5.864-8.762-8.281a2.242,2.242,0,0,0-3.046.8,2.278,2.278,0,0,0,.8,3.044c4.973,3.718,11.193,8.892,8.2,15.816-2.656,6.149-9.568,11.1-8.7,18.471.417,3.553,2.526,6.767,6.118,7.716,2.772.732,3.954-3.559,1.184-4.292-2.245-.592-3.132-3.045-2.893-5.195.349-3.123,2.571-5.949,4.36-8.426Zm0,0" fill="#c1c1c1"/>
    <path id="Caminho_242" data-name="Caminho 242" d="M1895.253-5403.806c-.855,1.22-1.753-.11-2.229-.968a8.741,8.741,0,0,1-1.064-3.827c-.007-.138-.008-.277-.008-.415.077,0,.155.006.233.013,2.3.193,4.534,3.106,3.068,5.2Zm0,0,3.5-2.166a7.179,7.179,0,0,0-3.2-5.124,6.67,6.67,0,0,0-3.139-1.062,8.886,8.886,0,0,1,3.01-4.522,1.62,1.62,0,0,0,.563-2.148,1.578,1.578,0,0,0-2.146-.563,12.815,12.815,0,0,0-4.781,7.719,9.415,9.415,0,0,0-4.922,4.119c-2.825,5.027-1.039,10.9,1.8,15.471,1.065,1.712,3.783.137,2.711-1.585-1.852-2.981-3.414-6.552-2.6-10.129a7.149,7.149,0,0,1,2.812-4.328,12.074,12.074,0,0,0,1.462,4.935c1.17,2.1,3.389,3.838,5.84,2.666A5.334,5.334,0,0,0,1898.749-5405.972Z" fill="#c1c1c1"/>
    <path id="Caminho_243" data-name="Caminho 243" d="M2087.012-5411.414l-7.143-7.143a1.779,1.779,0,0,0-1.256-.519,1.78,1.78,0,0,0-1.256.519l-7.14,7.143a1.777,1.777,0,0,0,0,2.512l7.141,7.141a1.771,1.771,0,0,0,1.255.52,1.773,1.773,0,0,0,1.256-.52l7.142-7.141a1.774,1.774,0,0,0,.521-1.256,1.777,1.777,0,0,0-.52-1.256Zm-8.4,5.885-4.63-4.629,4.63-4.631,4.631,4.631Zm0,0" fill="#c1c1c1"/>
    <path id="Caminho_244" data-name="Caminho 244" d="M2075.588-5331.978l-5.011-5.01a1.244,1.244,0,0,0-.881-.365,1.243,1.243,0,0,0-.881.365l-5.009,5.01a1.247,1.247,0,0,0,0,1.762l5.009,5.009a1.238,1.238,0,0,0,.881.365,1.24,1.24,0,0,0,.881-.365l5.01-5.009a1.243,1.243,0,0,0,.365-.881,1.249,1.249,0,0,0-.364-.881Zm-5.892,4.129-3.248-3.248,3.248-3.249,3.249,3.249Zm0,0" fill="#f66"/>
    <path id="Caminho_245" data-name="Caminho 245" d="M1883.507-5361.019l-4.545-4.545a1.13,1.13,0,0,0-.8-.331,1.13,1.13,0,0,0-.8.331l-4.543,4.545a1.13,1.13,0,0,0,0,1.6l4.543,4.543a1.127,1.127,0,0,0,.8.331,1.126,1.126,0,0,0,.8-.331l4.545-4.543a1.129,1.129,0,0,0,.331-.8,1.127,1.127,0,0,0-.331-.8Zm-5.343,3.744-2.946-2.946,2.946-2.946,2.946,2.946Zm0,0" fill="#f66"/>
  </g>
</svg>
