<svg id="Camada_1" data-name="Camada 1" xmlns="http://www.w3.org/2000/svg" viewBox="0 0 312.54 364.57"><defs><style>.cls-1{fill:#fff;}</style></defs><title>logo-icone</title><path id="Caminho_11" data-name="Caminho 11" class="cls-1" d="M312.54,158.75a27.78,27.78,0,0,1-12.88,23L169.3,264.61V210.53l7.67-5L277.69,141a21.76,21.76,0,0,1,34.85,17.77"/><path id="Caminho_12" data-name="Caminho 12" class="cls-1" d="M304.93,86.21,163.81,161.56l-68,20.78-25,7.61-23-34.28L2.07,87.75a41.35,41.35,0,0,1,3.59-4.23,30.57,30.57,0,0,1,6.67-5.15L137.42,4.54a32.87,32.87,0,0,1,33.33,0L295.84,78.37a31.65,31.65,0,0,1,9.09,7.84"/><path id="Caminho_13" data-name="Caminho 13" class="cls-1" d="M131,212.42V354.88l-118.65-70A33,33,0,0,1,0,272.25V153.73l55.12,81.89Z"/><path id="Caminho_14" data-name="Caminho 14" class="cls-1" d="M312.54,250.31a37,37,0,0,1-16.69,30.6L177,359.56l-6.21,4.1-1.46.91V306.1l117-70.24a18.22,18.22,0,0,1,8.25-2.66,16.71,16.71,0,0,1,17.93,15.39h0a15.88,15.88,0,0,1,0,1.69"/></svg>