<svg id="Camada_1" data-name="Camada 1" xmlns="http://www.w3.org/2000/svg" viewBox="0 0 307.84 363.23"><defs><style>.cls-1{fill:#fff;}.cls-2{fill:#ffc7c7;}</style></defs><title>vantangens</title><path class="cls-1" d="M295.51,116.65a6.15,6.15,0,0,0-.23-1.35h0a6,6,0,0,0-.25-.71.3.3,0,0,0,0-.08,6.16,6.16,0,0,0-.34-.68,0,0,0,0,1,0,0L276.17,83a6.17,6.17,0,0,0-5.28-3H260.41l4.3-18.34a6.1,6.1,0,0,0-.77-4.64,6.17,6.17,0,0,0-3.83-2.76l-55-12.87a52.33,52.33,0,0,0-93.45-19.92,6.2,6.2,0,0,0-.7,1.25L41.75,30.92a6.16,6.16,0,0,0-5.39,6.84l5,42.26H36.94a6.14,6.14,0,0,0-5.28,3L13.19,113.8s0,.06,0,.08c-.1.18-.19.36-.28.55l-.11.27a3.66,3.66,0,0,0-.15.43,2.58,2.58,0,0,0-.08.26,5,5,0,0,0-.14.67s0,.09,0,.13a3.57,3.57,0,0,0,0,.46L0,356.76a6,6,0,0,0,1.68,4.55,6.19,6.19,0,0,0,4.46,1.92H301.67a6.19,6.19,0,0,0,6.16-6.47Zm-38-24.31h9.87l11.08,18.47H253.21Zm-103.62-80A40.27,40.27,0,0,1,191.35,38.2l-15.16-3.55a6.17,6.17,0,0,0-7.4,4.59l-6,25.67-6.24,1.5-5-42.27a6.08,6.08,0,0,0-2.3-4.11,6.14,6.14,0,0,0-4.53-1.28l-15.07,1.78A40.18,40.18,0,0,1,153.91,12.31Zm38.36,98.5H100L95.9,93.65l87.2-21ZM140.06,31.7l4.44,37.6L87,83.12a6.15,6.15,0,0,0-4.55,7.43l4.87,20.26h-30L49.31,42.42ZM40.42,92.34h2.39L45,110.81H29.34ZM12.63,350.92l11.68-227.8H283.5l11.69,227.8Z"/><path class="cls-2" d="M200.09,135.44a18.46,18.46,0,0,0-6.16,35.86v22.63a40,40,0,0,1-80,0V171.3a18.47,18.47,0,1,0-12.31,0v22.63a52.33,52.33,0,0,0,104.66,0V171.3a18.46,18.46,0,0,0-6.15-35.86Zm-92.35,12.32a6.16,6.16,0,0,1,6.15,6.15,6.09,6.09,0,0,1-.83,3.08,6.14,6.14,0,0,0-10.65,0,6.15,6.15,0,0,1,5.33-9.23ZM205.41,157a6.16,6.16,0,0,0-5.32-3.07h-.48a6.15,6.15,0,0,0-5.06,2.66,6.15,6.15,0,1,1,10.86.41Z"/></svg>