<!-- Generator: Adobe Illustrator 23.0.1, SVG Export Plug-In  -->
<svg version="1.1" xmlns="http://www.w3.org/2000/svg" xmlns:xlink="http://www.w3.org/1999/xlink" x="0px" y="0px" width="60px"
	 height="38px" viewBox="0 0 60 38" style="enable-background:new 0 0 60 38;" xml:space="preserve">
<style type="text/css">
	.st0{fill:#D8D8D8;}
	.st1{fill:#EE183B;}
</style>
<defs>
</defs>
<path class="st0" d="M0,3v32c0,1.7,1.3,3,3,3h54c1.7,0,3-1.3,3-3V3c0-1.7-1.3-3-3-3H3C1.3,0,0,1.3,0,3z M4,4h52v6H4V4z M4,16h52v18
	H4V16z M7,21v1h23v-1H7z M41,21v1h10v-1H41z"/>
<path class="st1" d="M36,15v14h21V15H36z M38,17h17v10H38V17z"/>
</svg>
