<svg id="Camada_1" data-name="Camada 1" xmlns="http://www.w3.org/2000/svg" viewBox="0 0 60 38"><defs><style>.cls-1{fill:#3232c8;}.cls-2{fill:#f90;}.cls-3{fill:#c00;}.cls-4{fill:#fff;}</style></defs><title>mastercard</title><path class="cls-1" d="M4,0H56a4,4,0,0,1,4,4V34a4,4,0,0,1-4,4H4a4,4,0,0,1-4-4V4A4,4,0,0,1,4,0Z"/><path class="cls-2" d="M55,19.1a14.9,14.9,0,1,0-29.8,0h0a14.9,14.9,0,1,0,29.8,0Z"/><path class="cls-3" d="M20.1,4A15,15,0,0,0,5.3,19.1,15,15,0,0,0,20.2,34.2a14.68,14.68,0,0,0,10-3.9h0c.5-.5,1-1,1.5-1.6h-3a9.06,9.06,0,0,1-1.1-1.6h5.3c.3-.5.6-1.1.9-1.6h-7c-.2-.5-.4-1-.6-1.6h8.2a15.1,15.1,0,0,0,.8-4.8,16.55,16.55,0,0,0-.3-3.2H25.8c.1-.5.3-1.1.4-1.6h8.2c-.3-.6-.5-1.1-.8-1.6h-7a12.9,12.9,0,0,1,.9-1.6h5.3a6.1,6.1,0,0,0-1.2-1.6H28.7c.5-.6,1-1.1,1.5-1.6A15.06,15.06,0,0,0,20.2,4h-.1"/><path class="cls-4" d="M25.7,22.9l.2-1.4h-.4c-.6,0-.6-.3-.6-.5l.4-2.8h.8l.2-1.5h-.8l.2-.9H24.1s-.9,5.2-.9,5.9c0,.9.5,1.4,1.3,1.3a7.07,7.07,0,0,0,1.2-.2ZM29,18.1c.9,0,.7,1,.7,1.1H27.9c0-.1.2-1.1,1-1.1Zm-2.8,2.2A2.51,2.51,0,0,0,29,23.1a3.57,3.57,0,0,0,1.7-.3l.3-1.5a5,5,0,0,1-1.7.4c-1.7,0-1.4-1.3-1.4-1.3h3.2a10.87,10.87,0,0,0,.2-1.5A2.13,2.13,0,0,0,29,16.6C27.4,16.6,26.2,18.3,26.2,20.3Zm12.9,2.6.3-1.7a3.93,3.93,0,0,1-1.3.4,1.63,1.63,0,0,1-1.6-1.8c0-1.9,1-2.9,2.1-2.9a2.93,2.93,0,0,1,1.5.5l.3-1.7a5.91,5.91,0,0,0-1.8-.4c-1.8,0-3.6,1.6-3.6,4.6,0,2,1,3.3,2.9,3.3A3.5,3.5,0,0,0,39.1,22.9ZM17.2,20.2c0,.3-.2,1.5-1.1,1.5a.57.57,0,0,1-.6-.6c0-.4.2-1,1.4-1h.3Zm-2.1-3.1-.2,1.4a4.72,4.72,0,0,1,1.7-.3c.6,0,1,.1,1,.5a.58.58,0,0,1-.1.4h-.7c-1.4,0-2.8.6-2.8,2.4a1.51,1.51,0,0,0,1.5,1.7,2,2,0,0,0,1.6-.7l-.1.6h1.4l.6-4.4c0-1.9-1.6-1.9-2.2-1.9A6.53,6.53,0,0,0,15.1,17.1Zm8,4c0-2-1.9-1.6-1.9-2.4,0-.4.3-.5.9-.5.2,0,1.1.1,1.1.1l.2-1.4a10.07,10.07,0,0,0-1.5-.1c-1.2,0-2.4.5-2.4,2.1,0,1.8,2,1.6,2,2.4,0,.5-.6.6-1,.6-.7,0-1.4-.3-1.4-.2l-.2,1.4a5.48,5.48,0,0,0,1.8.2A2.15,2.15,0,0,0,23.1,21.1Zm27.3.5c-.6,0-.8-.5-.8-1.2,0-1.2.6-2,1.3-2s.9.4.9,1.3C51.7,21.4,51,21.6,50.4,21.6Zm2-6.2-.3,2.1a2.1,2.1,0,0,0-1.5-.8c-1.5,0-2.7,1.8-2.7,3.8,0,1.3.7,2.6,2,2.6a1.91,1.91,0,0,0,1.5-.7l-.1.6h1.6l1.2-7.6H52.4ZM8.3,23l1-5.7L9.4,23h1.1l2.1-5.7L11.7,23h1.6l1.3-7.6H12.1l-1.6,4.7-.1-4.7H8.1L6.8,23Zm24.6,0c.5-2.6.6-4.8,1.7-4.4a6,6,0,0,1,.6-1.8h-.3c-.7,0-1.2,1-1.2,1l.1-.9H32.3l-1,6.2h1.6Zm10.3-2.8c0,.3-.2,1.5-1.1,1.5a.57.57,0,0,1-.6-.6c0-.4.2-1,1.4-1h.3ZM41,17.1l-.2,1.4a4.72,4.72,0,0,1,1.7-.3c.6,0,1,.1,1,.5a.58.58,0,0,1-.1.4h-.7c-1.4,0-2.8.6-2.8,2.4a1.51,1.51,0,0,0,1.5,1.7,2,2,0,0,0,1.6-.7l-.1.6h1.4l.6-4.4c0-1.9-1.6-1.9-2.2-1.9A6.53,6.53,0,0,0,41,17.1ZM46.4,23c.5-2.6.6-4.8,1.7-4.4a6,6,0,0,1,.6-1.8h-.3c-.7,0-1.2,1-1.2,1l.1-.9H45.8l-1,6.2h1.6Z"/></svg>