<svg id="Camada_1" data-name="Camada 1" xmlns="http://www.w3.org/2000/svg" viewBox="0 0 60 38"><defs><style>.cls-1{fill:#1e2eb6;}.cls-2{fill:#f3f3f3;}.cls-3{fill:#fb9905;}</style></defs><title>visa</title><path class="cls-1" d="M4,0H56a4,4,0,0,1,4,4V34a4,4,0,0,1-4,4H4a4,4,0,0,1-4-4V4A4,4,0,0,1,4,0Z"/><path class="cls-2" d="M4,0c-.3,0-.7.1-1,.1V31H60V4a4,4,0,0,0-4-4ZM36.3,7.6a8.24,8.24,0,0,1,3.2.6L39,11l-.3-.2a6.49,6.49,0,0,0-2.7-.5c-1.4,0-2.1.6-2.1,1.1s.8,1,2,1.6c2.1.9,3,2.1,3,3.6,0,2.7-2.5,4.5-6.3,4.5a10.25,10.25,0,0,1-4-.7l.5-2.9.5.2a7.39,7.39,0,0,0,3.4.7c1,0,2.1-.4,2.1-1.3,0-.6-.5-1-1.9-1.6s-3.2-1.7-3.1-3.6c0-2.5,2.5-4.3,6.1-4.3ZM20.2,8H24L18.3,21.1H14.5L11.3,9.7a10.26,10.26,0,0,1,5,5.5l.3,1.8Zm5.2,0H29L26.8,21.1H23.2ZM45.7,8h2.7l3,13.1H48l-.4-2H43.1l-.7,2H38.6l5.3-12A1.75,1.75,0,0,1,45.8,8Zm.3,3.6a10.6,10.6,0,0,1-.5,1.2l-1.4,3.7h3c-.1-.7-.8-3.8-.8-3.8l-.2-1.1Z"/><path class="cls-3" d="M7.4,8v.2c4.5,1.1,7.6,3.8,8.8,7L14.9,9.1A1.44,1.44,0,0,0,13.3,8Z"/></svg>